<svg xmlns="http://www.w3.org/2000/svg" width="641.853" height="652.593" viewBox="0 0 641.853 652.593">
  <g id="Forgot_password-pana" data-name="Forgot password-pana" transform="translate(-41.536 -46.84)">
    <g id="freepik--background-complete--inject-6" transform="translate(65.708 55.151)">
      <path id="Path_207" data-name="Path 207" d="M213.3,262.3a35.557,35.557,0,1,0-.421-55.8h0l-7.785-6.011-11.587,3.622,1.323-11.587-9.768-7.589-11.572,3.607,1.323-11.587-8.4-6.522-7.063,2.194.811-7.063-4.944-3.847L144.123,162.8l-1.5,17.042L200.72,225A35.587,35.587,0,0,0,213.3,262.3Zm42.335-12.128a10.189,10.189,0,1,1-1.8-14.307A10.189,10.189,0,0,1,255.633,250.177Z" transform="translate(-14.879 2.615)" fill="#ebebeb"/>
      <path id="Path_208" data-name="Path 208" d="M239.068,148.676a19.041,19.041,0,1,0-29.876-.511h0l-3.351,4.088,1.788,6.252-6.192-.857-4.163,5.14,1.788,6.252-6.177-.872-3.607,4.418,1.082,3.8-3.772-.526-2.089,2.57.436,6.011,9.107,1.022,24.917-30.523A19.056,19.056,0,0,0,239.068,148.676Zm-6.011-22.813a7.047,7.047,0,1,1,.06,0Z" transform="translate(6.18 -19.582)" fill="#ebebeb"/>
      <path id="Path_209" data-name="Path 209" d="M222.23,52.37V162.648H63.816L58.12,53.136Z" transform="translate(-57.369 -52.37)" fill="#e0e0e0"/>
      <rect id="Rectangle_80" data-name="Rectangle 80" width="109.286" height="158.414" transform="translate(0.751 110.053) rotate(-90)" fill="#fff"/>
      <path id="Path_210" data-name="Path 210" d="M217.492,163.169H57.62V52.38H217.492Zm-158.4-1.5h156.9V53.883H59.123Z" transform="translate(-57.62 -52.365)" fill="#e0e0e0"/>
      <rect id="Rectangle_81" data-name="Rectangle 81" width="124.089" height="82.13" transform="translate(17.899 14.337)" fill="#fff"/>
      <path id="Path_211" data-name="Path 211" d="M193.831,62.031h-2.389l-6.793.135H159.1l-89.329.18.361-.361v82.13h0l-.391-.391,124.1.09-.316.3c0-24.992.12-45.476.165-59.753,0-7.138,0-12.7.075-16.531V84.3c0,14.322.105,34.881.165,59.948v.316H69.14v-.406h0V61.67H69.5l89.569.18,25.548.105h8.476Z" transform="translate(-51.827 -47.694)" fill="#e0e0e0"/>
      <path id="Path_212" data-name="Path 212" d="M58.11,52.67a13.8,13.8,0,0,1,2.735,1.773c1.623,1.172,3.817,2.825,6.207,4.734s4.509,3.712,6.011,5.065a13.12,13.12,0,0,1,2.269,2.314c-.15.165-3.952-3.006-8.716-6.763A88.921,88.921,0,0,1,58.11,52.67Z" transform="translate(-57.374 -52.219)" fill="#e0e0e0"/>
      <path id="Path_213" data-name="Path 213" d="M169.247,52.88a78.146,78.146,0,0,1-8.3,7.093,78.4,78.4,0,0,1-8.822,6.477,78.146,78.146,0,0,1,8.326-7.093,77.545,77.545,0,0,1,8.792-6.477Z" transform="translate(-10.097 -52.114)" fill="#e0e0e0"/>
      <path id="Path_214" data-name="Path 214" d="M169.348,130.4,151.69,116.08" transform="translate(-10.318 -20.334)" fill="#fff"/>
      <path id="Path_215" data-name="Path 215" d="M151.69,116.08a84.165,84.165,0,0,1,9.017,6.853,85.755,85.755,0,0,1,8.581,7.514,82.534,82.534,0,0,1-9.017-6.853,79.649,79.649,0,0,1-8.581-7.514Z" transform="translate(-10.318 -20.334)" fill="#e0e0e0"/>
      <path id="Path_216" data-name="Path 216" d="M58.11,130.1a76.346,76.346,0,0,1,8.251-7.018,77.582,77.582,0,0,1,8.731-6.417,72.63,72.63,0,0,1-8.236,7.033,76.239,76.239,0,0,1-8.747,6.4Z" transform="translate(-57.374 -20.042)" fill="#e0e0e0"/>
      <rect id="Rectangle_82" data-name="Rectangle 82" width="27.502" height="78.087" transform="translate(43.101 67.432) rotate(-90)" fill="#e0e0e0"/>
    </g>
    <g id="freepik--Floor--inject-6" transform="translate(47.298 681.188)">
      <path id="Path_217" data-name="Path 217" d="M621.9,469.331c0,.21-129.064.391-288.244.391s-288.29-.18-288.29-.391,129.049-.391,288.29-.391S621.9,469.12,621.9,469.331Z" transform="translate(-45.37 -468.94)" fill="#263238"/>
    </g>
    <g id="freepik--Character--inject-6" transform="translate(61.589 299.699)">
      <path id="Path_218" data-name="Path 218" d="M348.79,433.407l37.2,54.087,13.3.316-24.376-55.62Z" transform="translate(92.91 -105.93)" fill="#263238"/>
      <path id="Path_219" data-name="Path 219" d="M94.177,434.83l-19.6,51.1h9.8l34.22-50.871Z" transform="translate(-44.974 -104.603)" fill="#263238"/>
      <path id="Path_220" data-name="Path 220" d="M82,333.356l1.5,66.125a17.463,17.463,0,0,0,17.072,17.087L470.563,424.8a17.478,17.478,0,0,0,17.869-17.478v-79.65a47.054,47.054,0,0,0-40.577-46.588c-67.733-9.318-207.392-23.64-320.33-3.291A55.259,55.259,0,0,0,82,333.356Z" transform="translate(-41.247 -188.774)" fill="#ff725e"/>
      <path id="Path_221" data-name="Path 221" d="M94.014,329.2s-30.478-14.112-36.714,0,.766,31.424,7.619,41.073S71.742,499.13,71.742,499.13l462.243-4.944,5.47-114.622s22.167-27.307,20.784-39.074-20.093-28.9-41.569-11.331-27.051,54.283-27.051,54.283l-368.541,2.78S124.341,334.659,94.014,329.2Z" transform="translate(-54.88 -161.524)" fill="#ff725e"/>
      <path id="Path_222" data-name="Path 222" d="M464.761,378.131c0,.21-81.89.391-182.88.391S99,378.386,99,378.131s81.86-.391,182.88-.391S464.761,377.95,464.761,378.131Z" transform="translate(-32.694 -133.31)" fill="#263238"/>
      <path id="Path_223" data-name="Path 223" d="M108.785,454.6a1.128,1.128,0,0,1,0-.361V453.17q0-1.413-.09-4.1V434.039c0-12.714.09-30.282-.5-49.594a210.8,210.8,0,0,0-2.1-27.171c-.271-.992-.541-1.984-.8-3.006a18.443,18.443,0,0,0-1.142-2.8c-.8-1.818-1.608-3.562-2.495-5.2a55.391,55.391,0,0,0-5.621-8.641,40.125,40.125,0,0,0-6.011-6.011,32.653,32.653,0,0,0-5.4-3.487,54.6,54.6,0,0,0-5.095-2.044h.346l1.037.286a22.193,22.193,0,0,1,3.847,1.5,29.638,29.638,0,0,1,5.53,3.411,39.22,39.22,0,0,1,6.132,6.011,54.464,54.464,0,0,1,5.771,8.686c.917,1.653,1.743,3.4,2.555,5.23.406.917.781,1.863,1.157,2.81l.857,3.006a202.884,202.884,0,0,1,2.179,27.307c.586,19.387.391,36.955.27,49.669-.09,6.3-.165,11.422-.21,15.028v5.155C108.785,454.463,108.785,454.6,108.785,454.6Z" transform="translate(-42.479 -159.281)" fill="#263238"/>
      <path id="Path_224" data-name="Path 224" d="M79.888,344.626a2.164,2.164,0,0,1,1.217-.376,5.169,5.169,0,0,1,3.4.947,5.29,5.29,0,0,1,1.653,1.879,4.583,4.583,0,0,1,.436,2.855,5.606,5.606,0,0,1-4.313,4.659,5.711,5.711,0,0,1-5.711-2.72,5.17,5.17,0,0,1-.736-2.8,5.771,5.771,0,0,1,3.261-4.9,2.63,2.63,0,0,1,1.247-.316c0,.075-.436.18-1.112.586a5.785,5.785,0,0,0-2.179,2.435,4.629,4.629,0,0,0,.18,4.508,5.049,5.049,0,0,0,4.959,2.329,4.944,4.944,0,0,0,3.742-3.952,4.253,4.253,0,0,0-1.713-4.163,5.05,5.05,0,0,0-3.006-1.1A10.632,10.632,0,0,1,79.888,344.626Z" transform="translate(-44.346 -150.346)" fill="#263238"/>
      <path id="Path_225" data-name="Path 225" d="M81.337,370.808a7.108,7.108,0,0,1-2.089-2.465,14.773,14.773,0,0,1-.18-15.028A7.32,7.32,0,0,1,81.1,350.79c.105.09-.676,1.037-1.5,2.78a15.975,15.975,0,0,0-1.683,7.274,16.156,16.156,0,0,0,1.848,7.244C80.63,369.8,81.457,370.733,81.337,370.808Z" transform="translate(-43.705 -146.861)" fill="#263238"/>
      <path id="Path_226" data-name="Path 226" d="M77.188,334.42a12.685,12.685,0,0,1-.451,2.254A13.856,13.856,0,0,0,78.931,347a17.111,17.111,0,0,1,1.338,1.864,6.631,6.631,0,0,1-1.788-1.5,12.158,12.158,0,0,1-2.344-10.82,4.794,4.794,0,0,1,1.052-2.119Z" transform="translate(-44.396 -155.093)" fill="#263238"/>
      <path id="Path_227" data-name="Path 227" d="M70.71,345.484c.18-.15,1.578,1.262,3.712,2.359s4.073,1.5,4.043,1.683a6.6,6.6,0,0,1-4.4-.992,6.718,6.718,0,0,1-3.351-3.051Z" transform="translate(-46.92 -149.535)" fill="#263238"/>
      <path id="Path_228" data-name="Path 228" d="M530.67,411.731c0,.21-104.252.391-232.85.391S65,411.941,65,411.731s104.237-.391,232.94-.391S530.67,411.505,530.67,411.731Z" transform="translate(-49.791 -116.414)" fill="#263238"/>
      <path id="Path_229" data-name="Path 229" d="M341.441,363.05c.225,0,.391,16.321.391,36.444s-.165,36.474-.391,36.474-.391-16.321-.391-36.474S341.23,363.05,341.441,363.05Z" transform="translate(89.018 -140.696)" fill="#263238"/>
      <path id="Path_230" data-name="Path 230" d="M313.817,279.2H313.1l-2.1.075-8.07.225-29.726.691-98.045,1.969c-9.573.225-18.936.2-27.923.8a94.3,94.3,0,0,0-25.443,4.644,44.906,44.906,0,0,0-19.266,12.729,42.41,42.41,0,0,0-6.011,8.716,55.692,55.692,0,0,0-3.682,9.017,85.117,85.117,0,0,0-3.006,16.531c-.466,4.959-.511,9.242-.541,12.759s0,6.222.105,8.07v2.1a15.078,15.078,0,0,0-.12-2.1c-.09-1.833-.21-4.509-.24-8.07s0-7.815.406-12.8a84.971,84.971,0,0,1,3.006-16.7,56.476,56.476,0,0,1,3.667-9.182,42.287,42.287,0,0,1,6.011-8.9,45.521,45.521,0,0,1,19.537-12.924,93.775,93.775,0,0,1,25.548-4.734c9.017-.6,18.395-.586,27.968-.812l98.06-1.743,29.711-.436,8.085-.09h2.1Z" transform="translate(-37.715 -182.945)" fill="#263238"/>
      <path id="Path_231" data-name="Path 231" d="M161.414,313.57a8.323,8.323,0,0,0-1.262.827,6.868,6.868,0,0,0-2.329,3.261,5.771,5.771,0,0,0,.827,5.576,6.011,6.011,0,0,0,10.986-2.615,5.831,5.831,0,0,0-1.773-5.365,6.913,6.913,0,0,0-3.547-1.849c-.947-.165-1.5-.105-1.5-.165a2.9,2.9,0,0,1,1.5-.135,7,7,0,0,1,5.636,4.193,6.191,6.191,0,0,1,.346,3.457,6.778,6.778,0,0,1-12.263,2.915,6.222,6.222,0,0,1-1.247-3.231,6.973,6.973,0,0,1,.466-3.006,6.807,6.807,0,0,1,2.675-3.321A3.006,3.006,0,0,1,161.414,313.57Z" transform="translate(-3.645 -165.833)" fill="#263238"/>
      <path id="Path_232" data-name="Path 232" d="M156.2,347.99a18.185,18.185,0,0,1-1.142-4.509,25.548,25.548,0,0,1,.24-11.091,15.178,15.178,0,0,1,6.477-8.927,10.143,10.143,0,0,1,3.141-1.277,3,3,0,0,1,1.232-.12,19.187,19.187,0,0,0-4.088,1.863,15.419,15.419,0,0,0-6.011,8.671,28.058,28.058,0,0,0-.451,10.79C155.957,346.247,156.318,347.96,156.2,347.99Z" transform="translate(-4.756 -161.314)" fill="#263238"/>
      <path id="Path_233" data-name="Path 233" d="M160.825,298.009a35.213,35.213,0,0,0-2.209,3.306,13.165,13.165,0,0,0,3.862,16.952,32.649,32.649,0,0,0,3.441,2.029,2.765,2.765,0,0,1-1.082-.225,11.662,11.662,0,0,1-2.675-1.353,13.075,13.075,0,0,1-4.043-17.7,11.447,11.447,0,0,1,1.833-2.374C160.465,298.114,160.8,297.9,160.825,298.009Z" transform="translate(-3.913 -173.415)" fill="#263238"/>
      <path id="Path_234" data-name="Path 234" d="M163.64,318.017a75.564,75.564,0,0,0-8.145,1.833,78,78,0,0,0-7.6,3.456A21.746,21.746,0,0,1,163.64,318.017Z" transform="translate(-8.11 -163.366)" fill="#263238"/>
      <g id="Group_125" data-name="Group 125" transform="translate(106.973 227.241)" opacity="0.3">
        <path id="Path_235" data-name="Path 235" d="M126.06,385.295a75.532,75.532,0,0,0,51.1,15.4q-5.711,26.495-11.392,53.005c-1.007,4.7-1.954,9.949.511,14.1,3.457,5.816,11.5,6.387,18.259,6.3,7.514-.105,15.359-.286,22.032-3.772,9.453-4.929,14.532-15.389,18.2-25.4s6.838-20.739,14.382-28.268a58.611,58.611,0,0,0,33.288,18.951c3.757.691,8.025.9,11.031-1.5s3.862-6.643,3.1-10.37a31.109,31.109,0,0,0-4.914-10.2l-22-34.115c-3.006-4.614-6.222-9.483-11.256-11.677-3.952-1.728-8.431-1.5-12.729-1.308a587.477,587.477,0,0,0-106.506,16.1" transform="translate(-126.06 -366.302)"/>
      </g>
      <g id="Group_126" data-name="Group 126" transform="translate(75.839 75.646)" opacity="0.3">
        <path id="Path_236" data-name="Path 236" d="M254.029,266.888c-8.9,23.5-42.079,28.9-53.787,51.1-11.527,22,2.765,51.1-9.107,72.978-4.4,8.085-12.023,14.112-16.261,22.257-2.885,5.47-4.373,12.023-9.017,16.065-5.44,4.734-13.871,4.644-20.409,1.578s-11.557-8.566-16.216-14.082c-8.716-10.34-16.907-21.521-21.04-34.43-7-22.2-.571-47.309,13.526-65.854s34.971-31.064,57.018-38.563,45.371-10.324,68.559-12.5" transform="translate(-105.344 -265.43)"/>
      </g>
      <path id="Path_237" data-name="Path 237" d="M133.18,230.387A36.519,36.519,0,0,1,146.706,217.9a23.925,23.925,0,0,1,18.034-1.818,17.914,17.914,0,0,1,12.023,12.984c.947,4.824-.346,10.2,2.149,14.442,2.855,4.869,9.753,6.4,12.188,11.512a11.106,11.106,0,0,1-.736,9.814,30.523,30.523,0,0,1-6.6,7.725,16.156,16.156,0,0,1,4.118,3.7,5.606,5.606,0,0,1,.872,5.26,7.724,7.724,0,0,1-4.508,3.607,44.409,44.409,0,0,1-26.585,2.495c-2.374-.511-5.095-1.157-7.048.286" transform="translate(-15.507 -215.094)" fill="#263238"/>
      <path id="Path_238" data-name="Path 238" d="M178.651,240.469l-4.824,14.713,32.852,18.65L173.616,274.9l2.465,26.8,63.645-15.63s3.817-25.954-61.075-45.6l-4.509-1.082a5.155,5.155,0,0,1-3.622-3.141h0a5.576,5.576,0,0,0-2.705-2.9l-5.425-2.825v4.3l3.006,3.5-.481,8.311a7.514,7.514,0,0,0,5.771,7.845l3.006.706" transform="translate(-0.819 -207.338)" fill="#b78876"/>
      <path id="Path_239" data-name="Path 239" d="M137.821,279.122c-1.307,0-13.435,3.006-20.379,11.782s-16.982,41.989-16.982,41.989l25.548,4.418,11.031,27.7s65.3-8.551,61.827-12.023a133.927,133.927,0,0,0-10.52-8.731l15.028-50.06,18.034-9.738-6.086-25.007L179,264.364Z" transform="translate(-31.96 -192.791)" fill="#fafafa"/>
      <path id="Path_240" data-name="Path 240" d="M197.287,290.4c0,.21-20.363.391-45.461.391s-45.476-.18-45.476-.391,20.363-.391,45.476-.391S197.287,290.19,197.287,290.4Z" transform="translate(-28.998 -177.424)" fill="#ff725e"/>
      <path id="Path_241" data-name="Path 241" d="M194.577,300.191c0,.21-20.363.391-45.461.391s-45.476-.18-45.476-.391,20.348-.391,45.476-.391S194.577,299.98,194.577,300.191Z" transform="translate(-30.361 -172.501)" fill="#ff725e"/>
      <path id="Path_242" data-name="Path 242" d="M187.2,310.761c0,.225-15.419.406-34.445.406s-34.43-.18-34.43-.406,15.419-.391,34.43-.391S187.2,310.55,187.2,310.761Z" transform="translate(-22.979 -167.186)" fill="#ff725e"/>
      <path id="Path_243" data-name="Path 243" d="M190.7,320.951c0,.21-15.419.391-34.43.391s-34.43-.18-34.43-.391,15.4-.391,34.43-.391S190.7,320.725,190.7,320.951Z" transform="translate(-21.209 -162.062)" fill="#ff725e"/>
      <path id="Path_244" data-name="Path 244" d="M193.731,277.231c0,.225-10.189.391-22.738.391s-22.753-.165-22.753-.391,10.174-.391,22.753-.391S193.731,277.08,193.731,277.231Z" transform="translate(-7.934 -184.046)" fill="#ff725e"/>
      <path id="Path_245" data-name="Path 245" d="M194.776,266.763c0,.225-10.144.631-22.648.917s-22.678.361-22.678.15,10.129-.631,22.648-.932S194.776,266.553,194.776,266.763Z" transform="translate(-7.326 -189.178)" fill="#ff725e"/>
      <path id="Path_246" data-name="Path 246" d="M122.891,295.35a100.019,100.019,0,0,1-2.45,12.293,102.193,102.193,0,0,1-3.2,12.128,102.2,102.2,0,0,1,2.435-12.293,97.215,97.215,0,0,1,3.216-12.128Z" transform="translate(-23.522 -174.739)" fill="#263238"/>
      <path id="Path_247" data-name="Path 247" d="M174.666,420.21,155.64,480.218l22.933,2.314,21.551-52.148Z" transform="translate(-4.213 -111.954)" fill="#b78876"/>
      <path id="Path_248" data-name="Path 248" d="M193.484,449.388l-10.926,27.051s23.865,20.213,22.332,25.413L151.6,482.6l15.284-42.921Z" transform="translate(-6.245 -102.164)" fill="#455a64"/>
      <path id="Path_249" data-name="Path 249" d="M162.6,458.665a2.314,2.314,0,0,0-2.4,1.939,2.224,2.224,0,0,0,1.894,2.4,2.45,2.45,0,0,0,2.54-2.059c0-1.142-1.127-2.45-2.254-2.284" transform="translate(-1.929 -92.625)" fill="#e0e0e0"/>
      <path id="Path_250" data-name="Path 250" d="M151.6,469.668l1.713-4.268,50.465,20.108s2,1.879,1.112,3.457Z" transform="translate(-6.245 -89.231)" fill="#e0e0e0"/>
      <path id="Path_251" data-name="Path 251" d="M174.81,464.465c-.105.255-1.5-.09-3.006.27s-2.66,1.232-2.855,1.037.721-1.5,2.645-1.969S174.945,464.24,174.81,464.465Z" transform="translate(2.466 -90.1)" fill="#263238"/>
      <path id="Path_252" data-name="Path 252" d="M177.64,467.174c0,.286-1.323.316-2.6,1.1s-1.909,1.788-2.209,1.788.105-1.638,1.713-2.57S177.73,466.934,177.64,467.174Z" transform="translate(4.385 -88.481)" fill="#263238"/>
      <path id="Path_253" data-name="Path 253" d="M176.538,473.572c-.255,0-.15-1.5,1.037-2.645s2.615-1.307,2.645-1.052-1.007.751-1.954,1.728S176.809,473.647,176.538,473.572Z" transform="translate(6.238 -87.033)" fill="#263238"/>
      <path id="Path_254" data-name="Path 254" d="M175.891,460.641c-.2.2-1.262-.6-2.765-1.037s-2.825-.376-2.885-.646,1.4-.812,3.156-.271S176.147,460.476,175.891,460.641Z" transform="translate(3.127 -92.723)" fill="#263238"/>
      <path id="Path_255" data-name="Path 255" d="M177.8,458.526a5.4,5.4,0,0,1-2.66-.977,12.109,12.109,0,0,1-2.48-1.879,10.972,10.972,0,0,1-1.247-1.368,3.44,3.44,0,0,1-.571-.917,1.2,1.2,0,0,1,.376-1.428,1.5,1.5,0,0,1,1.353-.18,4.389,4.389,0,0,1,.962.5,10.41,10.41,0,0,1,1.5,1.172,10.085,10.085,0,0,1,1.879,2.51,4.689,4.689,0,0,1,.781,2.735c-.15,0-.451-.992-1.368-2.389a11.042,11.042,0,0,0-1.894-2.194,8.82,8.82,0,0,0-1.368-1.037c-.511-.346-.992-.526-1.217-.331s-.105.12,0,.316a3.351,3.351,0,0,0,.436.676,16.624,16.624,0,0,0,1.112,1.323,17.071,17.071,0,0,0,2.224,1.924A19,19,0,0,1,177.8,458.526Z" transform="translate(3.382 -96.123)" fill="#263238"/>
      <path id="Path_256" data-name="Path 256" d="M175.162,459.013a4.509,4.509,0,0,1,.24-2.84,9.107,9.107,0,0,1,2.69-4.163,2.36,2.36,0,0,1,2.179-.736,1.368,1.368,0,0,1,.857,1.157,3.5,3.5,0,0,1-.09,1.082,6.177,6.177,0,0,1-.646,1.788,6.416,6.416,0,0,1-2.134,2.344c-1.5,1.007-2.75.932-2.735.827a21.969,21.969,0,0,0,2.329-1.368,6.522,6.522,0,0,0,1.758-2.209,6.162,6.162,0,0,0,.511-1.5c.12-.586.075-1.127-.165-1.142a2.035,2.035,0,0,0-1.247.541,9.021,9.021,0,0,0-1.187,1.2,10.822,10.822,0,0,0-1.5,2.48C175.4,457.946,175.328,459.028,175.162,459.013Z" transform="translate(5.54 -96.354)" fill="#263238"/>
      <path id="Path_257" data-name="Path 257" d="M216.35,387.86l28.4,49.368,23.234-14.908L239.464,372.2Z" transform="translate(26.314 -136.096)" fill="#b78876"/>
      <path id="Path_258" data-name="Path 258" d="M253.4,396.16l14.683,25.308s30.6-6.432,33.769-2.029l-47.971,30.207L229.4,411.188Z" transform="translate(32.876 -124.047)" fill="#455a64"/>
      <path id="Path_259" data-name="Path 259" d="M244.588,418.031a2.3,2.3,0,0,0,0,3.081,2.224,2.224,0,0,0,3.006,0,2.45,2.45,0,0,0-.075-3.276,2.329,2.329,0,0,0-3.186.376" transform="translate(40.215 -113.382)" fill="#e0e0e0"/>
      <path id="Path_260" data-name="Path 260" d="M246.464,442.266,244.15,438.3l46.859-27.472s2.72-.421,3.426,1.232Z" transform="translate(40.293 -116.697)" fill="#e0e0e0"/>
      <path id="Path_261" data-name="Path 261" d="M256.554,412.509c.135.24-.962,1.082-1.638,2.555s-.676,2.855-.947,2.9-.781-1.5,0-3.306S256.464,412.253,256.554,412.509Z" transform="translate(45.021 -115.855)" fill="#263238"/>
      <path id="Path_262" data-name="Path 262" d="M260.356,411.771c.2.2-.571,1.232-.736,2.735s.255,2.675,0,2.81-1.217-1.082-.977-3.006S260.206,411.56,260.356,411.771Z" transform="translate(47.561 -116.214)" fill="#263238"/>
      <path id="Path_263" data-name="Path 263" d="M264.719,416.3c-.2.2-1.247-.767-1.5-2.435s.571-2.855.8-2.735,0,1.247.165,2.615S264.929,416.137,264.719,416.3Z" transform="translate(49.856 -116.523)" fill="#263238"/>
      <path id="Path_264" data-name="Path 264" d="M254.526,408.957c0,.286-1.247.631-2.51,1.5s-2.029,1.984-2.284,1.864.225-1.593,1.728-2.66S254.526,408.7,254.526,408.957Z" transform="translate(43.067 -117.698)" fill="#263238"/>
      <path id="Path_265" data-name="Path 265" d="M253.957,405.884a5.865,5.865,0,0,1-2.4,1.5,13.948,13.948,0,0,1-3.006.812,17.839,17.839,0,0,1-1.848.135,3.711,3.711,0,0,1-1.082-.12,1.2,1.2,0,0,1-.887-1.172,1.5,1.5,0,0,1,.691-1.187,4.175,4.175,0,0,1,.977-.436,9.844,9.844,0,0,1,4.944-.376c1.773.331,2.705.977,2.645,1.067s-1.052-.255-2.72-.391a11.694,11.694,0,0,0-2.915.15,10.2,10.2,0,0,0-1.638.436c-.6.2-1.037.466-1.022.766s0,.15.225.24a3.007,3.007,0,0,0,.8.075,15.24,15.24,0,0,0,4.6-.646,18.859,18.859,0,0,1,2.645-.857Z" transform="translate(40.584 -119.66)" fill="#263238"/>
      <path id="Path_266" data-name="Path 266" d="M252.073,408.905c0,.09-1.052-.466-2.1-1.924a9.018,9.018,0,0,1-1.322-2.84,9.928,9.928,0,0,1-.316-1.833,2.36,2.36,0,0,1,.781-2.179,1.323,1.323,0,0,1,1.413,0,3.893,3.893,0,0,1,.812.721,6.977,6.977,0,0,1,1.022,1.623,6.583,6.583,0,0,1,.526,3.126c-.15,1.833-.947,2.735-1.022,2.66a23.617,23.617,0,0,0,.346-2.675,6.538,6.538,0,0,0-.661-2.735,5.741,5.741,0,0,0-.917-1.368c-.391-.451-.842-.751-1.007-.571a1.593,1.593,0,0,0-.346,1.307,9.9,9.9,0,0,0,.225,1.683,10.143,10.143,0,0,0,1.052,2.69C251.367,408.063,252.178,408.785,252.073,408.905Z" transform="translate(42.378 -122.155)" fill="#263238"/>
      <path id="Path_267" data-name="Path 267" d="M180.256,404.638l55.785-37.932,35.181,68.484,31.98-17.328s-36.835-89.87-50.06-92.725c-7.409-1.623-92.379,14.593-92.379,14.593l-9.5-4.764-24.045-2.931-1.5,3.892a82.025,82.025,0,0,0,2.675,66.305l1.172,2.389Z" transform="translate(-22.142 -159.817)" fill="#263238"/>
      <path id="Path_268" data-name="Path 268" d="M149.288,358.835c.421,1.879,46.588,45.085,46.588,45.085l-26.6,89.4,39.7,7.589,39.87-107.693-72.873-71.49L142.63,335.661Z" transform="translate(-10.755 -161.474)" fill="#263238"/>
      <path id="Path_269" data-name="Path 269" d="M215.876,352.751c.12.18-12.278,8.807-27.667,19.281S160.226,390.848,160.09,390.7s12.263-8.822,27.667-19.3S215.74,352.571,215.876,352.751Z" transform="translate(-1.976 -145.877)" fill="#455a64"/>
      <path id="Path_270" data-name="Path 270" d="M225.839,408.46a13.162,13.162,0,0,1-1.353-2.059c-.827-1.353-1.969-3.351-3.366-5.816-2.78-4.944-6.477-11.857-10.385-19.537s-7.364-14.758-9.783-19.883c-1.217-2.57-2.179-4.659-2.825-6.1a12.531,12.531,0,0,1-.917-2.284,16.531,16.531,0,0,1,1.2,2.149l3.006,6.011c2.615,5.185,6.117,12.113,9.979,19.792s7.514,14.653,10.174,19.657c1.277,2.42,2.344,4.418,3.156,5.936a15.522,15.522,0,0,1,1.112,2.134Z" transform="translate(16.689 -145.861)" fill="#455a64"/>
      <path id="Path_271" data-name="Path 271" d="M186.662,365.78a71.514,71.514,0,0,1-4.268,9.588,71.435,71.435,0,0,1-4.974,9.227,141.092,141.092,0,0,1,9.243-18.815Z" transform="translate(6.738 -139.324)" fill="#455a64"/>
      <path id="Path_272" data-name="Path 272" d="M103.678,308.32l-9.017,33.3a17.373,17.373,0,0,0,1.5,12.819h0a17.463,17.463,0,0,0,19.311,8.732l71.46-17.6-7.514-14.848-56.3,4.884,6.011-22.873Z" transform="translate(-35.178 -168.217)" fill="#b78876"/>
      <path id="Path_273" data-name="Path 273" d="M121.55,368.741l.932-4.839,38.728-6.958,11.256-59.708,71.926-8.566-12.083,63.735Z" transform="translate(-21.355 -178.098)" fill="#455a64"/>
      <path id="Path_274" data-name="Path 274" d="M178.218,318.484a4.058,4.058,0,1,1,4.163-3.291,3.772,3.772,0,0,1-4.163,3.291Z" transform="translate(5.189 -167.185)" fill="#ebebeb"/>
      <path id="Path_275" data-name="Path 275" d="M128.55,229.118l.135,4.313,1.623,64.622c.2,7.514,6.793,13.315,14.818,13.045h0c8.115-.256,14.638-6.612,14.578-14.2-.075-7.95,0-16.336,0-16.336s10.234-1.818,12.2-15.224c.977-6.658.511-17.568-.15-26.48a14.127,14.127,0,0,0-15.735-12.985Z" transform="translate(-17.835 -209.723)" fill="#b78876"/>
      <path id="Path_276" data-name="Path 276" d="M154.992,239.975a1.728,1.728,0,0,1-1.638,1.758,1.638,1.638,0,0,1-1.773-1.5,1.728,1.728,0,0,1,1.623-1.758,1.653,1.653,0,0,1,1.788,1.5Z" transform="translate(-6.255 -203.342)" fill="#263238"/>
      <path id="Path_277" data-name="Path 277" d="M158.054,238.9c-.21.225-1.5-.721-3.366-.706s-3.186.977-3.4.751.12-.511.706-.947a4.734,4.734,0,0,1,2.705-.872,4.644,4.644,0,0,1,2.69.827C157.964,238.438,158.159,238.8,158.054,238.9Z" transform="translate(-6.432 -204.014)" fill="#263238"/>
      <path id="Path_278" data-name="Path 278" d="M142.877,240.41a1.713,1.713,0,0,1-1.638,1.758,1.653,1.653,0,0,1-1.788-1.5,1.713,1.713,0,0,1,1.638-1.743,1.638,1.638,0,0,1,1.788,1.488Z" transform="translate(-12.355 -203.116)" fill="#263238"/>
      <path id="Path_279" data-name="Path 279" d="M145.985,239.273c-.21.225-1.5-.721-3.366-.706s-3.186.977-3.4.751.105-.511.691-.947a4.779,4.779,0,0,1,2.72-.872,4.6,4.6,0,0,1,2.675.827C145.879,238.762,146.09,239.168,145.985,239.273Z" transform="translate(-12.502 -203.828)" fill="#263238"/>
      <path id="Path_280" data-name="Path 280" d="M148.6,252.869a12.372,12.372,0,0,1,3.006-.571c.481,0,.917-.15.992-.481a2.344,2.344,0,0,0-.331-1.383l-1.428-3.577a61.526,61.526,0,0,1-3.246-9.348,58.608,58.608,0,0,1,3.982,9.017l1.383,3.592a2.81,2.81,0,0,1,.27,1.849,1.217,1.217,0,0,1-.766.706,3.425,3.425,0,0,1-.812.12A11.8,11.8,0,0,1,148.6,252.869Z" transform="translate(-8.261 -203.823)" fill="#263238"/>
      <path id="Path_281" data-name="Path 281" d="M155.314,263.769a33.994,33.994,0,0,1-18.034-4.509s4.508,9.137,17.824,7.725Z" transform="translate(-13.446 -192.886)" fill="#aa6550"/>
      <path id="Path_282" data-name="Path 282" d="M147.019,237.17c-.2.5-2.029.18-4.208.331s-3.952.676-4.223.21c-.12-.225.21-.676.932-1.127a6.943,6.943,0,0,1,3.171-.947,7.093,7.093,0,0,1,3.261.526C146.733,236.523,147.109,236.944,147.019,237.17Z" transform="translate(-12.8 -204.775)" fill="#263238"/>
      <path id="Path_283" data-name="Path 283" d="M157.391,234.629c-.331.421-1.608,0-3.126,0s-2.825.316-3.126-.12,0-.631.616-1.037a4.509,4.509,0,0,1,5.05.105C157.346,234.058,157.526,234.493,157.391,234.629Z" transform="translate(-6.536 -206.216)" fill="#263238"/>
      <path id="Path_284" data-name="Path 284" d="M150.167,253.672a3.125,3.125,0,0,1-1.608-.165l-1.5-.421c-.421-.135-.887-.331-1.413-.526a3.006,3.006,0,0,1-1.383-.827c-.316-.406-.255-1.127.466-1.773a3.892,3.892,0,0,1,6.011,2C151.054,252.905,150.663,253.536,150.167,253.672Z" transform="translate(-10.027 -197.938)" fill="#aa6550"/>
      <path id="Path_285" data-name="Path 285" d="M150.7,253.129c-.18.135-1.082-1.713-3.246-2.269a7.874,7.874,0,0,0-3.922.436,2.236,2.236,0,0,1,.977-.857,4.539,4.539,0,0,1,5.741,1.473C150.714,252.588,150.789,253.1,150.7,253.129Z" transform="translate(-10.303 -197.56)" fill="#263238"/>
      <path id="Path_286" data-name="Path 286" d="M154.076,222.784a16.847,16.847,0,0,1-2.42,21.04c-3.2,3.006-7.965,5.305-8.281,9.663-.361,4.824,5.23,8.431,5.23,13.27s-5.726,8.145-6.853,13c-.9,3.907,1.5,7.815,4.148,10.775s6.011,5.576,7.514,9.242a16.411,16.411,0,0,1-.451,12.879,40.711,40.711,0,0,1-7.514,10.805,50.752,50.752,0,0,0-12.383-2.75c.255-1.593.526-3.2.8-4.794a4.4,4.4,0,0,1-3.231,4.058,11.857,11.857,0,0,1-5.53.075,89.926,89.926,0,0,1-16.531-4.253,29.742,29.742,0,0,0,6.011-7.514,10.024,10.024,0,0,0,.165-9.318c-1.322-2.254-3.757-3.7-4.974-6.011-1.818-3.457-.316-7.845,2.269-10.775s6.1-4.839,9.182-7.244,5.906-5.651,6.147-9.558c.331-5.05-3.772-9.663-3.261-14.7.571-5.741,6.643-9.257,9.017-14.517,1.728-3.8,1.5-8.491,4.148-11.722a10.084,10.084,0,0,1,8.311-3.306,18.7,18.7,0,0,1,8.656,3.006" transform="translate(-27.882 -212.075)" fill="#263238"/>
      <path id="Path_287" data-name="Path 287" d="M150.623,268.364c-2.4,1.323-2.269,5-.8,7.334s3.832,4,5.29,6.342a10.4,10.4,0,0,1-2.45,13.255l5.771,2.179,1.262-.706,3.547-2.014-1.668,4.1h3.7a10.52,10.52,0,0,0,8.686-16.757c-1.5-2.1-3.877-3.772-4.4-6.312-.616-3.081,1.713-5.861,2.84-8.777a12.4,12.4,0,0,0-4.028-14.022" transform="translate(-7.673 -196.039)" fill="#263238"/>
    </g>
    <g id="freepik--speech-bubble--inject-6" transform="translate(41.536 219.681)">
      <path id="Path_288" data-name="Path 288" d="M78.637,182.355a2.029,2.029,0,0,1,1.127,1.818v10.009a2,2,0,0,1-.8,1.593,1.954,1.954,0,0,1-1.758.331,6.327,6.327,0,0,0-4.9.751,5.606,5.606,0,0,0-2.675,3.577,5.711,5.711,0,0,0,1.022,4.373,6.462,6.462,0,0,0,4.133,2.735,7.514,7.514,0,0,0,7.875-5.095,2,2,0,1,1,3.817,1.217,11.557,11.557,0,0,1-12.323,7.845,10.279,10.279,0,0,1-6.808-4.418,9.8,9.8,0,0,1-1.653-7.514,9.648,9.648,0,0,1,4.509-6.192,10.52,10.52,0,0,1,5.515-1.5v-7.71a2.014,2.014,0,0,1,2.014-2.014,2.119,2.119,0,0,1,.9.2Z" transform="translate(-29.473 -151.637)" fill="#ff725e"/>
      <path id="Path_289" data-name="Path 289" d="M72.41,180.048a1.638,1.638,0,1,1,.506,1.155,1.638,1.638,0,0,1-.506-1.155Z" transform="translate(-26.012 -153.538)" fill="#ff725e"/>
      <path id="Path_290" data-name="Path 290" d="M106.763,215.173a3.271,3.271,0,0,0-1.323.421,6.011,6.011,0,0,0-2.735,2.359,5.681,5.681,0,0,0-.857,2.374,4.974,4.974,0,0,0,.5,2.825,5.515,5.515,0,0,0,10.339-.6,4.974,4.974,0,0,0,.165-2.87,6.011,6.011,0,0,0-1.127-2.269,6.162,6.162,0,0,0-3.006-2.044c-.857-.24-1.368-.21-1.368-.255h.361a2.6,2.6,0,0,1,.451,0,3.1,3.1,0,0,1,.586.09,6.011,6.011,0,0,1,3.246,2.014,5.876,5.876,0,0,1,1.247,2.375,5.29,5.29,0,0,1-.135,3.006,6.222,6.222,0,0,1-1.924,2.81,5.846,5.846,0,0,1-3.381,1.4,5.906,5.906,0,0,1-3.517-.992,6.222,6.222,0,0,1-2.254-2.555,5.47,5.47,0,0,1-.5-3.006,6.011,6.011,0,0,1,.962-2.51,6.117,6.117,0,0,1,3.006-2.39,4.51,4.51,0,0,1,.586-.165,1.772,1.772,0,0,1,.436-.075A.932.932,0,0,1,106.763,215.173Z" transform="translate(-11.387 -135.072)" fill="#263238"/>
      <path id="Path_291" data-name="Path 291" d="M115.887,224.844a4.978,4.978,0,0,0-.812.3,3.862,3.862,0,0,0-1.728,1.5,3.261,3.261,0,0,0-.21,3.216,3.411,3.411,0,0,0,6.387-.376,3.246,3.246,0,0,0-.586-3.171,3.847,3.847,0,0,0-1.894-1.292c-.526-.165-.842-.15-.842-.2a1.758,1.758,0,0,1,.887,0,3.937,3.937,0,0,1,2.885,2.78,3.531,3.531,0,0,1,0,1.969,3.787,3.787,0,0,1-7.108.421,3.336,3.336,0,0,1-.316-1.954,3.772,3.772,0,0,1,.616-1.593,3.862,3.862,0,0,1,1.924-1.5,1.848,1.848,0,0,1,.8-.105Z" transform="translate(-5.844 -130.21)" fill="#263238"/>
      <path id="Path_292" data-name="Path 292" d="M134.538,212.165v-4.6c0-.6-.09-1.247-.135-1.954s-.105-1.5-.18-2.284a7.289,7.289,0,0,0-.165-1.247l-.225-1.322a44.56,44.56,0,0,0-4.163-12.7A46.2,46.2,0,0,0,119.013,174.1l-1.879-1.638c-.661-.511-1.368-.992-2.059-1.5l-1.067-.751a6.462,6.462,0,0,0-1.082-.721l-2.314-1.4c-.391-.225-.766-.466-1.172-.676l-1.247-.571-2.51-1.142c-.872-.361-1.773-.631-2.66-.947l-1.353-.466-.691-.225-.706-.165a45.09,45.09,0,0,0-5.771-1.127c-.992-.105-2-.286-3.006-.346l-3.006-.09h-1.5l-1.5.12c-1.052.09-2.1.12-3.141.255a48.9,48.9,0,0,0-6.3,1.322l-1.578.451a2.56,2.56,0,0,0-.781.225l-.766.3-3.1,1.2c-1.007.451-2,.992-3.006,1.5-.5.27-1.007.481-1.5.781l-1.5.917a50.962,50.962,0,0,0-5.576,4.043l-2.54,2.39-.646.6-.586.661-1.157,1.338-1.172,1.322-1.052,1.5-1.037,1.5-.526.736c-.165.255-.316.511-.466.766l-1.818,3.141c-.5,1.1-1.007,2.194-1.5,3.306a45.761,45.761,0,0,0-2.269,29.095l.992,3.517,1.307,3.366.331.842.406.8.812,1.608.8,1.578.962,1.5.947,1.5.466.736.541.691,2.149,2.765a51.322,51.322,0,0,0,4.884,4.854l1.277,1.127c.421.376.9.676,1.353,1.007.917.646,1.8,1.338,2.735,1.939l2.855,1.593.706.421.751.346,1.5.676a49.717,49.717,0,0,0,6.011,2.284c1.022.3,2.059.5,3.006.751l1.5.361c.511.105,1.022.135,1.5.21l3.006.391c1.007.105,2.014,0,3.006.12a42.461,42.461,0,0,0,5.891-.21h.721l.706-.12,1.413-.24c.932-.18,1.864-.3,2.765-.526l2.675-.736,1.322-.361,1.262-.5,2.48-.962a7.736,7.736,0,0,0,1.187-.541l1.172-.586c.766-.391,1.5-.751,2.269-1.157l2.1-1.338A45.881,45.881,0,0,0,126,235.339c.376-.526.766-1.037,1.127-1.5l.932-1.593.9-1.5c.15-.255.3-.5.436-.751s.225-.526.346-.781l1.353-2.916c.391-.932.661-1.879.977-2.735l.451-1.277a7.678,7.678,0,0,0,.346-1.2l.541-2.239c.15-.691.331-1.323.436-1.909s.15-1.127.225-1.608c.12-.962.225-1.683.3-2.194s.12-.736.12-.736v.751l-.271,2.194a14.1,14.1,0,0,1-.2,1.608c-.075.586-.271,1.232-.421,1.924s-.331,1.5-.511,2.239a7.392,7.392,0,0,1-.346,1.217c-.15.421-.286.842-.436,1.277-.316.872-.571,1.818-.977,2.765s-.872,1.909-1.323,3.006l-.361.781c-.12.255-.286.511-.421.766-.3.5-.6,1.022-.9,1.5s-.616,1.067-.932,1.623-.751,1.037-1.127,1.578a46.077,46.077,0,0,1-12.819,12.113l-2.119,1.353c-.736.406-1.5.781-2.284,1.172l-1.157.6a8.646,8.646,0,0,1-1.2.541l-2.51.977-1.262.5-1.322.376-2.69.751c-.917.225-1.864.346-2.8.526l-1.428.255-.706.12H93.24a42.874,42.874,0,0,1-5.921.24,24.885,24.885,0,0,1-3.006-.12l-3.006-.391a6.045,6.045,0,0,1-1.5-.225l-1.5-.346c-1.022-.255-2.074-.451-3.1-.751a46.328,46.328,0,0,1-6.011-2.3l-1.5-.676-.751-.346-.721-.421-2.9-1.683c-.932-.6-1.833-1.307-2.75-1.954-.466-.346-.947-.646-1.368-1.022l-1.292-1.127a50.533,50.533,0,0,1-5.155-4.929l-2.179-2.78-.541-.706-.481-.751-.947-1.5-.962-1.5-.812-1.593-.827-1.623-.406-.812-.361-.887c-.451-1.127-.887-2.269-1.323-3.4s-.661-2.359-1.007-3.547a46.3,46.3,0,0,1,2.329-29.335l1.5-3.351c.616-1.052,1.232-2.1,1.833-3.156.165-.255.3-.526.466-.781l.526-.736,1.067-1.5,1.052-1.5,1.187-1.353,1.172-1.338.586-.661.646-.616,2.57-2.42a50.363,50.363,0,0,1,5.636-4.058l1.5-.917c.481-.316,1.007-.526,1.5-.8,1.007-.5,2-1.052,3.006-1.5l3.126-1.217.781-.3.781-.225,1.593-.436a47.6,47.6,0,0,1,6.342-1.322c1.067-.135,2.119-.18,3.171-.27l1.5-.105h1.5l3.1.09a24.869,24.869,0,0,1,3.006.361,40.584,40.584,0,0,1,5.816,1.157l.721.165a2.389,2.389,0,0,1,.676.225l1.368.466c.9.331,1.818.586,2.675.947l2.705,1.322,1.247.571,1.187.676,2.314,1.353a9.316,9.316,0,0,1,1.1.736l1.067.766c.691.511,1.413.992,2.074,1.5l1.894,1.653a46.348,46.348,0,0,1,10.715,14.142,43.913,43.913,0,0,1,4.118,12.774c.075.451.15.9.225,1.323a9.6,9.6,0,0,1,.15,1.262c0,.812.12,1.578.165,2.284s.105,1.368.12,1.969,0,1.142,0,1.638v2.209Z" transform="translate(-41.536 -161.85)" fill="#263238"/>
    </g>
    <g id="freepik--Sreen--inject-6" transform="translate(335.527 46.84)">
      <rect id="Rectangle_83" data-name="Rectangle 83" width="310.261" height="470.975" transform="translate(0.902 0.421)" fill="#fff"/>
      <rect id="Rectangle_84" data-name="Rectangle 84" width="310.351" height="202.688" transform="translate(0.271 24.406)" fill="#f5f5f5"/>
      <path id="Path_293" data-name="Path 293" d="M288.424,217.583v4.508h6.628v1.623h-6.628v5.35H286.53V215.84h9.348v1.743Z" transform="translate(-212.335 38.14)" fill="#263238"/>
      <path id="Path_294" data-name="Path 294" d="M293.511,223.115a5.215,5.215,0,1,1,5.215,5.125,4.989,4.989,0,0,1-5.215-5.125Zm8.581,0a3.381,3.381,0,1,0-3.366,3.532,3.291,3.291,0,0,0,3.366-3.532Z" transform="translate(-208.826 39.13)" fill="#263238"/>
      <path id="Path_295" data-name="Path 295" d="M307.505,217.947v1.758h-.421a3.006,3.006,0,0,0-3.156,3.381v4.989H302.11V218.037h1.743v1.668A3.862,3.862,0,0,1,307.505,217.947Z" transform="translate(-204.501 39.189)" fill="#263238"/>
      <path id="Path_296" data-name="Path 296" d="M317.015,218.058V226.7c0,3.547-1.788,5.14-5.185,5.14a7.334,7.334,0,0,1-4.779-1.5l.857-1.4a6.132,6.132,0,0,0,3.862,1.307c2.359,0,3.442-1.1,3.442-3.366v-.8a4.6,4.6,0,0,1-3.607,1.5,4.854,4.854,0,1,1,0-9.693,4.509,4.509,0,0,1,3.7,1.653v-1.5Zm-1.773,4.734a3.457,3.457,0,1,0-3.449,3.229A3.457,3.457,0,0,0,315.241,222.792Z" transform="translate(-202.303 39.168)" fill="#263238"/>
      <path id="Path_297" data-name="Path 297" d="M315.181,223.115a5.215,5.215,0,1,1,5.215,5.125,4.99,4.99,0,0,1-5.215-5.125Zm8.581,0a3.381,3.381,0,1,0-3.366,3.532,3.291,3.291,0,0,0,3.366-3.532Z" transform="translate(-197.929 39.13)" fill="#263238"/>
      <path id="Path_298" data-name="Path 298" d="M329.9,228.172a3.487,3.487,0,0,1-2.194.706,2.855,2.855,0,0,1-3.171-3.141v-5.5H322.82v-1.5h1.773V216.54h1.8v2.194h2.87v1.5H326.4v5.425a1.5,1.5,0,0,0,1.5,1.683,2.284,2.284,0,0,0,1.413-.481Z" transform="translate(-194.087 38.492)" fill="#263238"/>
      <path id="Path_299" data-name="Path 299" d="M342.74,223.056a4.869,4.869,0,0,1-5.065,5.125,4.253,4.253,0,0,1-3.487-1.638v5.185H332.37V218.037h1.743v1.578a4.253,4.253,0,0,1,3.562-1.683,4.869,4.869,0,0,1,5.065,5.125Zm-1.833,0a3.381,3.381,0,1,0-3.381,3.532,3.306,3.306,0,0,0,3.381-3.532Z" transform="translate(-189.285 39.189)" fill="#263238"/>
      <path id="Path_300" data-name="Path 300" d="M349.082,222.019v6.011h-1.743v-1.322a3.742,3.742,0,0,1-3.291,1.5c-2.269,0-3.7-1.217-3.7-3.006s1.037-2.931,4.013-2.931h2.976v-.346c0-1.5-.9-2.42-2.69-2.42a5.034,5.034,0,0,0-3.171,1.067l-.751-1.353a6.582,6.582,0,0,1,4.133-1.292C347.534,217.946,349.082,219.269,349.082,222.019Zm-1.8,3.006v-1.4h-2.8c-1.8,0-2.314.706-2.314,1.5s.827,1.623,2.209,1.623a2.916,2.916,0,0,0,2.961-1.758Z" transform="translate(-185.272 39.189)" fill="#263238"/>
      <path id="Path_301" data-name="Path 301" d="M347.56,227.053l.751-1.5a6.477,6.477,0,0,0,3.517,1.037c1.683,0,2.374-.511,2.374-1.353,0-2.254-6.327-.3-6.327-4.3,0-1.788,1.608-3.006,4.178-3.006a7.259,7.259,0,0,1,3.652.917l-.781,1.428a5.214,5.214,0,0,0-2.885-.8c-1.593,0-2.359.586-2.359,1.383,0,2.359,6.342.436,6.342,4.328,0,1.818-1.653,3.006-4.328,3.006A7.229,7.229,0,0,1,347.56,227.053Z" transform="translate(-181.647 39.19)" fill="#263238"/>
      <path id="Path_302" data-name="Path 302" d="M353.86,227.053l.751-1.5a6.477,6.477,0,0,0,3.517,1.037c1.683,0,2.374-.511,2.374-1.353,0-2.254-6.327-.3-6.327-4.3,0-1.788,1.608-3.006,4.178-3.006a7.259,7.259,0,0,1,3.652.917l-.781,1.428a5.215,5.215,0,0,0-2.885-.8c-1.593,0-2.359.586-2.359,1.383,0,2.359,6.342.436,6.342,4.328,0,1.818-1.653,3.006-4.328,3.006A7.229,7.229,0,0,1,353.86,227.053Z" transform="translate(-178.479 39.19)" fill="#263238"/>
      <path id="Path_303" data-name="Path 303" d="M376.627,218l-3.742,10.009h-1.743l-2.885-7.514-2.931,7.514h-1.743L359.81,218H361.6l2.916,7.965L367.52,218h1.5l3.006,8.01,3.006-8.01Z" transform="translate(-175.487 39.226)" fill="#263238"/>
      <path id="Path_304" data-name="Path 304" d="M371.381,223.105a5.2,5.2,0,1,1,5.215,5.125,4.989,4.989,0,0,1-5.215-5.125Zm8.566,0a3.366,3.366,0,1,0-3.351,3.532,3.276,3.276,0,0,0,3.351-3.532Z" transform="translate(-169.67 39.14)" fill="#263238"/>
      <path id="Path_305" data-name="Path 305" d="M385.35,217.946V219.7h-.421a3.006,3.006,0,0,0-3.156,3.381v4.989H380V218.036h1.728V219.7a3.862,3.862,0,0,1,3.622-1.758Z" transform="translate(-165.335 39.19)" fill="#263238"/>
      <path id="Path_306" data-name="Path 306" d="M394.672,215.34v14.022h-1.743v-1.593a4.223,4.223,0,0,1-3.577,1.713,5.125,5.125,0,0,1,0-10.234,4.283,4.283,0,0,1,3.5,1.608V215.34Zm-1.8,9.017a3.381,3.381,0,1,0-3.366,3.532,3.291,3.291,0,0,0,3.366-3.532Z" transform="translate(-163.069 37.888)" fill="#263238"/>
      <path id="Path_307" data-name="Path 307" d="M399.984,219.406c0-1.2-.992-2.029-2.705-2.029a4.057,4.057,0,0,0-3.381,1.5l-1.368-.977a5.831,5.831,0,0,1,4.884-2.119c2.72,0,4.508,1.262,4.508,3.366,0,3.156-3.336,3.351-3.336,5.831h-1.894C396.663,222.006,399.984,221.585,399.984,219.406Zm-3.592,8.641a1.232,1.232,0,1,1,1.225,1.1A1.232,1.232,0,0,1,396.392,228.047Z" transform="translate(-159.034 38.105)" fill="#263238"/>
      <path id="Path_308" data-name="Path 308" d="M502.059,242.861c0,.225-53.17.391-118.724.391s-118.724-.165-118.724-.391,53.155-.391,118.724-.391S502.059,242.65,502.059,242.861Z" transform="translate(-223.357 51.53)"/>
      <path id="Path_309" data-name="Path 309" d="M434.422,251.311c0,.21-30.463.391-68.049.391s-68.064-.18-68.064-.391,30.478-.391,68.064-.391S434.422,251.04,434.422,251.311Z" transform="translate(-206.411 55.779)"/>
      <path id="Path_310" data-name="Path 310" d="M411.765,165.053a36.188,36.188,0,1,0-56.146-8.581l-7.364,6.868,1.773,12.218-11.437-3.126-9.212,8.6,1.833,12.143-11.422-3.2-7.92,7.379,1.082,7.514-6.973-1.954-4.6,4.3-.691,11.316,16.877,4.253,54.779-51.1a36.2,36.2,0,0,0,39.419-6.628Zm-5.41-44.5a10.385,10.385,0,1,1-14.668-.511A10.385,10.385,0,0,1,406.355,120.554Z" transform="translate(-205.215 -18.902)" fill="#263238"/>
      <path id="Path_311" data-name="Path 311" d="M411.765,165.053a36.188,36.188,0,1,0-56.146-8.581l-7.364,6.868,1.773,12.218-11.437-3.126-9.212,8.6,1.833,12.143-11.422-3.2-7.92,7.379,1.082,7.514-6.973-1.954-4.6,4.3-.691,11.316,16.877,4.253,54.779-51.1a36.2,36.2,0,0,0,39.419-6.628Zm-5.41-44.5a10.385,10.385,0,1,1-14.668-.511A10.385,10.385,0,0,1,406.355,120.554Z" transform="translate(-205.215 -18.902)" fill="none"/>
      <path id="Path_312" data-name="Path 312" d="M377.155,115.7a15.039,15.039,0,0,0-2.059-1.5,10.52,10.52,0,0,0-6.537-1.428,9.994,9.994,0,1,0,10.911,11.692,10.31,10.31,0,0,0-.977-6.613c-.751-1.5-1.413-2.1-1.338-2.164s.2.135.5.451a8.311,8.311,0,0,1,1.157,1.5,10.3,10.3,0,0,1,1.292,6.883,10.756,10.756,0,1,1-11.6-12.428,10.309,10.309,0,0,1,6.793,1.773,8.025,8.025,0,0,1,1.5,1.247C377.155,115.506,377.245,115.686,377.155,115.7Z" transform="translate(-176.015 -14.049)" fill="#263238"/>
      <path id="Path_313" data-name="Path 313" d="M411.941,165.29s-.165.18-.526.5l-1.593,1.5a37.448,37.448,0,0,1-7,4.509,36.384,36.384,0,0,1-30.493.436h.3L317.938,223.42l-.15.165h-.225l-16.877-4.238-.346-.075v-.361c.21-3.532.436-7.394.676-11.316v-.361l.12-.12,4.7-4.388.165-.165h.24l6.973,1.954-.556.481c-.346-2.329-.706-4.884-1.082-7.514v-.225l.165-.15,7.92-7.394.18-.18h.24l11.422,3.2-.556.5c-.556-3.877-1.157-8.025-1.758-12.218v-.24l.18-.15,2.435-2.284,6.778-6.312.18-.18h.24l11.437,3.2-.571.5q-.887-6.177-1.758-12.218V163.1l.165-.165,7.364-6.868-.075.541a36.835,36.835,0,0,1-4.7-16.531,34.565,34.565,0,0,1,.6-8.371,35.389,35.389,0,0,1,2.4-7.875,36.457,36.457,0,0,1,69.792,17.493,35.572,35.572,0,0,1-4.058,13.931c-.225.451-.451.872-.676,1.292l-.736,1.142a23.236,23.236,0,0,1-1.383,2.059c-.977,1.172-1.728,2.224-2.465,3.006l-1.8,2-.586.541s.165-.21.526-.6l1.623-1.728a37.509,37.509,0,0,0,2.39-3.006c.451-.616.842-1.338,1.323-2.059.24-.376.481-.751.721-1.157l.661-1.277a35.873,35.873,0,1,0-64.712-30.883,35.36,35.36,0,0,0-2.344,7.695,34.566,34.566,0,0,0-.571,8.175,36.068,36.068,0,0,0,4.614,16.08l.165.3-.256.24-7.349,6.868.135-.391q.872,6.011,1.758,12.233l.105.676-.676-.18-11.422-3.2.436-.105-6.778,6.312-2.419,2.239.135-.406c.6,4.193,1.2,8.356,1.758,12.218l.105.691-.676-.18-11.422-3.216.421-.105c-2.72,2.555-5.425,5.065-7.92,7.394l.15-.391c.361,2.57.721,5.125,1.067,7.514l.09.661-.646-.18-6.958-1.954.406-.105-4.614,4.3.135-.286c-.24,3.922-.481,7.785-.691,11.316l-.316-.436,16.877,4.253-.376.105,54.854-51.006.135-.12h.165a36.173,36.173,0,0,0,30.147-.21,39.718,39.718,0,0,0,7.033-4.3l1.638-1.368Z" transform="translate(-205.391 -19.139)" fill="#263238"/>
      <path id="Path_314" data-name="Path 314" d="M410.97,162.315a36.173,36.173,0,1,0-56.131-8.6h0l-7.349,6.853,1.758,12.233-11.422-3.216-9.2,8.611,1.758,12.218-11.422-3.2-7.92,7.394,1.067,7.514-6.958-1.939-4.614,4.3L299.85,215.8l16.877,4.238,54.778-51.1A36.158,36.158,0,0,0,410.97,162.315Zm-5.35-44.5a10.37,10.37,0,1,1-7.228-3.3A10.385,10.385,0,0,1,405.62,117.816Z" transform="translate(-205.637 -20.267)" fill="#ff725e"/>
      <path id="Path_315" data-name="Path 315" d="M410.97,162.315a36.173,36.173,0,1,0-56.131-8.6h0l-7.349,6.853,1.758,12.233-11.422-3.216-9.2,8.611,1.758,12.218-11.422-3.2-7.92,7.394,1.067,7.514-6.958-1.939-4.614,4.3L299.85,215.8l16.877,4.238,54.778-51.1A36.158,36.158,0,0,0,410.97,162.315Zm-5.35-44.5a10.37,10.37,0,1,1-7.228-3.3A10.385,10.385,0,0,1,405.62,117.816Z" transform="translate(-205.637 -20.267)" fill="none"/>
      <path id="Path_316" data-name="Path 316" d="M376.4,112.956a15.038,15.038,0,0,0-2.059-1.5,10.294,10.294,0,0,0-6.522-1.5,9.979,9.979,0,1,0,10.911,11.692,10.294,10.294,0,0,0-.992-6.613,24.135,24.135,0,0,0-1.338-2.164c.06-.06.2.135.511.451a8.325,8.325,0,0,1,1.142,1.5,10.279,10.279,0,0,1,1.293,6.9,10.772,10.772,0,1,1-11.662-12.323,10.3,10.3,0,0,1,6.793,1.788,7.514,7.514,0,0,1,1.5,1.247C376.3,112.761,376.434,112.941,376.4,112.956Z" transform="translate(-176.421 -15.407)" fill="#263238"/>
      <path id="Path_317" data-name="Path 317" d="M411.126,162.495s-.165.18-.511.5l-1.593,1.413a38.153,38.153,0,0,1-7,4.508,36.429,36.429,0,0,1-30.508.436h.3l-54.673,51.187-.165.15h-.21l-16.892-4.238-.331-.09v-.346c.21-3.532.451-7.394.676-11.316v-.18l.12-.105,4.614-4.313.18-.165h.241l6.958,1.939-.556.5c-.331-2.329-.706-4.884-1.082-7.514v-.225l.18-.165,7.9-7.379.18-.18.255.075,11.422,3.2-.571.5L328.3,178.485v-.24l.165-.165,2.45-2.269,6.763-6.312.18-.18.256.075,11.422,3.2-.571.5q-.887-6.177-1.758-12.218v-.24l.18-.15,7.364-6.868-.09.541a36.835,36.835,0,0,1-4.7-16.531,35.315,35.315,0,0,1,.6-8.371,35.7,35.7,0,0,1,2.4-7.875,36.444,36.444,0,0,1,69.792,17.478,35.648,35.648,0,0,1-4.058,13.931l-.676,1.292-.736,1.142c-.5.736-.9,1.5-1.368,2.059-.977,1.172-1.728,2.224-2.465,3.006l-1.743,1.668c-.376.376-.586.556-.586.556s.18-.225.541-.616l1.608-1.713a37.518,37.518,0,0,0,2.39-3.006c.451-.6.857-1.323,1.338-2.059l.721-1.142.646-1.292a35.883,35.883,0,1,0-67.027-23.234,33.741,33.741,0,0,0-.571,8.175,36.069,36.069,0,0,0,4.6,16.08l.18.3-.255.24-7.364,6.868.135-.391q.887,6.011,1.758,12.218l.105.691-.661-.2L337.8,170.22l.421-.105-6.763,6.327-2.45,2.269.135-.391c.616,4.193,1.2,8.341,1.758,12.218l.105.691-.661-.2-11.437-3.2.436-.105-7.92,7.379.135-.376c.361,2.57.736,5.11,1.067,7.439l.09.676-.646-.18-6.958-1.954.406-.105-4.6,4.3.135-.3c-.24,3.922-.481,7.8-.706,11.316l-.316-.436,16.877,4.268-.376.105,54.854-51.006.135-.12.165.075a36.339,36.339,0,0,0,30.147-.21,40.291,40.291,0,0,0,7.048-4.3l1.623-1.368Z" transform="translate(-205.793 -20.447)" fill="#263238"/>
      <path id="Path_318" data-name="Path 318" d="M389.655,158.071a48.84,48.84,0,0,0,4.869-6.132,30.418,30.418,0,0,0,3.712-8.326,31.771,31.771,0,0,0,1.037-12.023,31.335,31.335,0,0,0-4.764-13.706,31.709,31.709,0,0,0-12.293-11.121,29.307,29.307,0,0,0-8.551-2.885,34.052,34.052,0,0,0-4.644-.541,36.263,36.263,0,0,0-4.764.24A31.244,31.244,0,0,0,337.1,128.9a36.074,36.074,0,0,0-.571,4.734,34.416,34.416,0,0,0,.225,4.674,29.11,29.11,0,0,0,2.284,8.732,31.56,31.56,0,0,0,10.249,13.03,31.109,31.109,0,0,0,13.33,5.711,31.559,31.559,0,0,0,12.023-.2,30.718,30.718,0,0,0,8.566-3.141,47.911,47.911,0,0,0,6.447-4.418,3.072,3.072,0,0,1-.361.361l-1.127,1.022a14.833,14.833,0,0,1-1.939,1.5,21.983,21.983,0,0,1-2.855,1.833,30.4,30.4,0,0,1-8.626,3.321,32.056,32.056,0,0,1-36.474-18.71,30.174,30.174,0,0,1-2.374-9.017,29.109,29.109,0,0,1,.286-9.543,32.071,32.071,0,0,1,27.923-26.044,29.937,29.937,0,0,1,9.663.331,30.6,30.6,0,0,1,8.777,3.006,32.142,32.142,0,0,1,16.186,37.736,30.055,30.055,0,0,1-3.922,8.386,20.405,20.405,0,0,1-2.014,2.705,15.15,15.15,0,0,1-1.653,1.833l-1.1,1.052A2.99,2.99,0,0,1,389.655,158.071Z" transform="translate(-187.643 -18.848)" fill="#263238"/>
      <path id="Path_319" data-name="Path 319" d="M377.606,129.58a27.389,27.389,0,0,0,1.758-2.39,12.023,12.023,0,0,0,1.713-7.679,11.737,11.737,0,0,0-6.447-9.273,11.6,11.6,0,0,0-6.7-1.187A11.767,11.767,0,0,0,358.49,125.3a11.955,11.955,0,0,0,16.591,5.876c1.683-.887,2.45-1.668,2.525-1.593s-.165.225-.541.571a9.015,9.015,0,0,1-1.818,1.338,12.263,12.263,0,0,1-13.375-.706A12.548,12.548,0,1,1,379.891,114a12.338,12.338,0,0,1-.225,13.39,9.472,9.472,0,0,1-1.5,1.713C377.832,129.445,377.621,129.61,377.606,129.58Z" transform="translate(-177.053 -16.041)" fill="#263238"/>
      <path id="Path_320" data-name="Path 320" d="M308.121,195.779c-.165-.18,12.158-12.023,27.547-26.315s28-25.834,28.163-25.653-12.158,12.023-27.547,26.315S308.286,195.959,308.121,195.779Z" transform="translate(-201.479 1.92)" fill="#263238"/>
      <path id="Path_321" data-name="Path 321" d="M313.605,131.042l.511-1.112.661,1.022a5.17,5.17,0,0,0,2.194,1.864l1.127.5-1.022.676a5.125,5.125,0,0,0-1.879,2.194l-.5,1.112-.676-1.022a5.11,5.11,0,0,0-2.194-1.864l-1.112-.5,1.022-.676A4.989,4.989,0,0,0,313.605,131.042Z" transform="translate(-200.171 -5.059)" fill="#ff725e"/>
      <path id="Path_322" data-name="Path 322" d="M290.893,125.326l.286-.646.391.586a2.885,2.885,0,0,0,1.277,1.082l.646.3-.6.391a3.005,3.005,0,0,0-1.082,1.262l-.286.661-.391-.6a2.886,2.886,0,0,0-1.277-1.082l-.646-.3.586-.376A3.111,3.111,0,0,0,290.893,125.326Z" transform="translate(-210.987 -7.699)" fill="#ff725e"/>
      <path id="Path_323" data-name="Path 323" d="M361.163,163.356l.286-.646.391.6a3.186,3.186,0,0,0,1.277,1.082l.646.286-.586.391a2.885,2.885,0,0,0-1.082,1.277l-.3.646-.391-.586a3.005,3.005,0,0,0-1.262-1.1l-.661-.286.6-.391A2.886,2.886,0,0,0,361.163,163.356Z" transform="translate(-175.653 11.424)" fill="#ff725e"/>
      <path id="Path_324" data-name="Path 324" d="M395.971,144.012l.5-1.112.676,1.022a5.094,5.094,0,0,0,2.194,1.864l1.112.5-1.022.676a5.078,5.078,0,0,0-1.863,2.194l-.511,1.112-.661-1.022a5.275,5.275,0,0,0-2.194-1.864l-1.127-.5,1.022-.676a5.124,5.124,0,0,0,1.879-2.194Z" transform="translate(-158.762 1.463)" fill="#ff725e"/>
      <path id="Path_325" data-name="Path 325" d="M392.159,116.949,393,115.07l1.127,1.728a8.7,8.7,0,0,0,3.682,3.141l1.879.827-1.728,1.127a8.822,8.822,0,0,0-3.141,3.7l-.842,1.879-1.127-1.728a8.7,8.7,0,0,0-3.682-3.141l-1.879-.842,1.728-1.127a8.7,8.7,0,0,0,3.141-3.682Z" transform="translate(-161.669 -12.531)" fill="#ff725e"/>
      <path id="Path_326" data-name="Path 326" d="M307.334,108.529l.842-1.879,1.127,1.713a8.6,8.6,0,0,0,3.682,3.141l1.879.842-1.713,1.127a8.491,8.491,0,0,0-3.141,3.682l-.842,1.879-1.127-1.713a8.551,8.551,0,0,0-3.7-3.141l-1.864-.842,1.713-1.127a8.6,8.6,0,0,0,3.141-3.682Z" transform="translate(-204.314 -16.765)" fill="#ff725e"/>
      <path id="Path_327" data-name="Path 327" d="M487.882,313.616a12.4,12.4,0,0,0,1.413-.12,9.2,9.2,0,0,0,1.743-.2l1.1-.18,1.247-.331a20.168,20.168,0,0,0,6.132-2.735,21.279,21.279,0,0,0,9.708-17.343v-3.231l-.09-1.653a10.654,10.654,0,0,0-.256-1.668,22,22,0,0,0-2.389-6.628,21.325,21.325,0,0,0-11.827-9.738,24.043,24.043,0,0,0-8.431-1.112h-9.107l-194.452.12a21.22,21.22,0,0,0-12.924,4.4,22.377,22.377,0,0,0-4.689,4.989,21.311,21.311,0,0,0-2.81,6.192,23.342,23.342,0,0,0-.646,3.336c0,1.127-.15,2.254-.12,3.411a22.546,22.546,0,0,0,.812,6.673,22.076,22.076,0,0,0,2.78,6.011,22.859,22.859,0,0,0,4.509,4.824,20.562,20.562,0,0,0,5.711,3.2,23.007,23.007,0,0,0,3.111.917,23.64,23.64,0,0,0,3.231.376c4.343.105,8.731,0,13.03,0h25.263l87.42.075,58.941.135,16.02.075h0l-16.02.075-58.941.12-87.42.09H281.572a25.212,25.212,0,0,1-3.336-.376,24.19,24.19,0,0,1-3.231-.962,21.041,21.041,0,0,1-5.906-3.306,21.626,21.626,0,0,1-7.514-11.256,23.686,23.686,0,0,1-.842-6.883,33.9,33.9,0,0,1,.12-3.487,24.641,24.641,0,0,1,.676-3.457,22.375,22.375,0,0,1,2.916-6.432,22.709,22.709,0,0,1,4.869-5.17,21.957,21.957,0,0,1,13.39-4.508l194.452.105h9.107a25.156,25.156,0,0,1,8.6,1.157,21.866,21.866,0,0,1,12.023,9.994,22.254,22.254,0,0,1,2.42,6.778l.255,1.7v4.944a22.077,22.077,0,0,1-1.037,6.011,22.546,22.546,0,0,1-2.389,4.989,21.339,21.339,0,0,1-6.522,6.522,20.708,20.708,0,0,1-6.222,2.705l-1.262.3-1.112.165a10.291,10.291,0,0,1-1.743.165Z" transform="translate(-225.306 64.302)" fill="#263238"/>
      <rect id="Rectangle_85" data-name="Rectangle 85" width="248.359" height="45.19" rx="14.35" transform="translate(35.783 387.582)" fill="#ff725e"/>
      <path id="Path_328" data-name="Path 328" d="M303.3,295.426a10.14,10.14,0,0,1,0-1.337c0-.932,0-2.149-.075-3.652,0-3.216-.09-7.664-.165-13.03l.316.3-26.856.09.391-.391h0V295.4l-.361-.361,19.251.18,5.561.09h2.044a14.431,14.431,0,0,1-1.894.09l-5.485.09-19.537.18h-.466V277.437h0c-.346.346.481-.481.391-.406l26.856.09h.316v.316c-.075,5.455-.135,9.964-.165,13.225,0,1.5,0,2.675-.09,3.592a8.613,8.613,0,0,1-.03,1.172Z" transform="translate(-217.658 68.907)" fill="#263238"/>
      <path id="Path_329" data-name="Path 329" d="M303.131,277.28a35.518,35.518,0,0,1-3.757,3.607c-2.374,2.164-5.711,5.095-9.408,8.311h-.586l-.09-.075-.18-.15-.346-.3-.676-.586-1.322-1.157-2.51-2.209-4.208-3.757a35.537,35.537,0,0,1-3.757-3.607,32.912,32.912,0,0,1,4.073,3.111l4.313,3.637,2.54,2.164,1.338,1.142.691.6.331.3.18.135.09.075h-.466c3.712-3.2,7.093-6.011,9.573-8.13a32.913,32.913,0,0,1,4.178-3.111Z" transform="translate(-217.484 69.034)" fill="#263238"/>
      <path id="Path_330" data-name="Path 330" d="M285.953,282.86a28.99,28.99,0,0,1-4.508,5.095,30.3,30.3,0,0,1-5.125,4.509,30.408,30.408,0,0,1,4.508-5.095A30.973,30.973,0,0,1,285.953,282.86Z" transform="translate(-217.469 71.84)" fill="#263238"/>
      <path id="Path_331" data-name="Path 331" d="M297.182,292.679a29.424,29.424,0,0,1-4.824-4.839,30.765,30.765,0,0,1-4.238-5.35,30.248,30.248,0,0,1,4.824,4.839,29.906,29.906,0,0,1,4.238,5.35Z" transform="translate(-211.535 71.654)" fill="#263238"/>
      <path id="Path_332" data-name="Path 332" d="M307.027,288.486v.6H300.79V280.07H306.8v.6h-5.38v3.562h4.809v.586h-4.809v3.7Z" transform="translate(-205.164 70.437)" fill="#263238"/>
      <path id="Path_333" data-name="Path 333" d="M317.476,284.393v3.937h-.646v-3.892c0-1.5-.8-2.329-2.1-2.329a2.374,2.374,0,0,0-2.465,2.63v3.592h-.646v-3.892c0-1.5-.8-2.329-2.1-2.329a2.374,2.374,0,0,0-2.465,2.63v3.592H306.4v-6.748h.616v1.5a2.675,2.675,0,0,1,2.585-1.5,2.39,2.39,0,0,1,2.465,1.623,2.84,2.84,0,0,1,2.72-1.623,2.525,2.525,0,0,1,2.69,2.81Z" transform="translate(-202.343 71.194)" fill="#263238"/>
      <path id="Path_334" data-name="Path 334" d="M320.6,284.068v4.283h-.616v-1.2a2.63,2.63,0,0,1-2.435,1.247c-1.5,0-2.42-.766-2.42-1.924s.646-1.879,2.51-1.879h2.314v-.541a1.758,1.758,0,0,0-2-1.924,3.547,3.547,0,0,0-2.329.842l-.316-.466a4.118,4.118,0,0,1,2.69-.947,2.284,2.284,0,0,1,2.6,2.51Zm-.646,2.284V285.09h-2.3c-1.4,0-1.879.586-1.879,1.353s.676,1.428,1.863,1.428A2.314,2.314,0,0,0,319.954,286.352Z" transform="translate(-197.954 71.173)" fill="#263238"/>
      <path id="Path_335" data-name="Path 335" d="M320.4,280.326a.526.526,0,1,1,.526.526A.526.526,0,0,1,320.4,280.326Zm.2,2.149h.706v6.748h-.646Z" transform="translate(-195.304 70.301)" fill="#263238"/>
      <path id="Path_336" data-name="Path 336" d="M322.77,279.69h.646v9.588h-.646Z" transform="translate(-194.112 70.246)" fill="#263238"/>
      <path id="Path_337" data-name="Path 337" d="M313.018,327.234l-2.435-3.411a7.173,7.173,0,0,1-.992,0h-2.915v3.336H306V317h3.652c2.555,0,4.1,1.277,4.1,3.441a3.126,3.126,0,0,1-2.389,3.186l2.555,3.562Zm-3.426-3.983c2.179,0,3.351-1.022,3.351-2.765s-1.172-2.78-3.351-2.78h-2.916v5.545Z" transform="translate(-202.545 89.007)" fill="#fff"/>
      <path id="Path_338" data-name="Path 338" d="M319.476,322.76h-6.537a3.006,3.006,0,0,0,3.216,3.006,3.1,3.1,0,0,0,2.435-1.052l.421.481a3.622,3.622,0,0,1-2.87,1.232,3.727,3.727,0,0,1-3.907-3.862,3.637,3.637,0,1,1,7.259,0S319.476,322.685,319.476,322.76Zm-6.522-.571h5.831a2.916,2.916,0,1,0-5.831,0Z" transform="translate(-199.414 89.859)" fill="#fff"/>
      <path id="Path_339" data-name="Path 339" d="M317.82,325.453l.331-.586a4.509,4.509,0,0,0,2.735.917c1.608,0,2.254-.556,2.254-1.428,0-2.209-5.049-.571-5.049-3.562,0-1.142.962-2.074,2.885-2.074a4.7,4.7,0,0,1,2.615.736l-.346.586a3.907,3.907,0,0,0-2.284-.691c-1.5,0-2.134.616-2.134,1.428,0,2.284,5.034.676,5.034,3.577,0,1.232-1.067,2.074-3.006,2.074a4.749,4.749,0,0,1-3.036-.977Z" transform="translate(-196.601 89.871)" fill="#fff"/>
      <path id="Path_340" data-name="Path 340" d="M329.9,322.753h-6.537a3.006,3.006,0,0,0,3.216,3.006,3.1,3.1,0,0,0,2.435-1.052l.421.481a3.652,3.652,0,0,1-2.87,1.232,3.742,3.742,0,0,1-3.922-3.862,3.637,3.637,0,0,1,3.652-3.847,3.592,3.592,0,0,1,3.622,3.817S329.9,322.678,329.9,322.753Zm-6.522-.571h5.816a2.916,2.916,0,0,0-5.816,0Z" transform="translate(-194.179 89.867)" fill="#fff"/>
      <path id="Path_341" data-name="Path 341" d="M333.149,326.427a2.33,2.33,0,0,1-1.5.541,1.879,1.879,0,0,1-2.059-2.074v-4.959h-1.4V319.3h1.4V317.65h.721V319.3h2.419v.631h-2.419v4.9c0,.977.481,1.5,1.413,1.5a1.743,1.743,0,0,0,1.187-.421Z" transform="translate(-191.387 89.334)" fill="#fff"/>
      <path id="Path_342" data-name="Path 342" d="M343.24,320.487c0,2.134-1.5,3.411-4.1,3.411h-2.885v3.336H335.5V317h3.667C341.692,317,343.24,318.322,343.24,320.487Zm-.751,0c0-1.773-1.172-2.78-3.351-2.78h-2.885v5.53h2.916C341.316,323.237,342.488,322.23,342.488,320.487Z" transform="translate(-187.711 89.007)" fill="#fff"/>
      <path id="Path_343" data-name="Path 343" d="M347.837,321.556v4.824h-.706v-1.353a2.916,2.916,0,0,1-2.735,1.413c-1.7,0-2.735-.872-2.735-2.164s.721-2.134,2.84-2.134h2.6v-.6a1.984,1.984,0,0,0-2.254-2.179,3.952,3.952,0,0,0-2.63.962l-.361-.526a4.7,4.7,0,0,1,3.006-1.067,2.585,2.585,0,0,1,2.976,2.825Zm-.736,2.585v-1.428h-2.585c-1.578,0-2.134.661-2.134,1.5s.766,1.593,2.119,1.593a2.585,2.585,0,0,0,2.6-1.668Z" transform="translate(-184.613 89.861)" fill="#fff"/>
      <path id="Path_344" data-name="Path 344" d="M347,325.453l.331-.586a4.4,4.4,0,0,0,2.735.917c1.608,0,2.239-.556,2.239-1.428,0-2.209-5.034-.571-5.034-3.562,0-1.142.962-2.074,2.885-2.074a4.614,4.614,0,0,1,2.6.736l-.331.586a3.937,3.937,0,0,0-2.284-.691c-1.5,0-2.149.616-2.149,1.428,0,2.284,5.05.676,5.05,3.577,0,1.232-1.067,2.074-3.006,2.074a4.719,4.719,0,0,1-3.036-.977Z" transform="translate(-181.928 89.871)" fill="#fff"/>
      <path id="Path_345" data-name="Path 345" d="M351.65,325.453l.331-.586a4.508,4.508,0,0,0,2.735.917c1.608,0,2.254-.556,2.254-1.428,0-2.209-5.05-.571-5.05-3.562,0-1.142.962-2.074,2.885-2.074a4.7,4.7,0,0,1,2.615.736l-.346.586a3.908,3.908,0,0,0-2.284-.691c-1.5,0-2.134.616-2.134,1.428,0,2.284,5.035.676,5.035,3.577,0,1.232-1.067,2.074-3.006,2.074a4.749,4.749,0,0,1-3.036-.977Z" transform="translate(-179.59 89.871)" fill="#fff"/>
      <path id="Path_346" data-name="Path 346" d="M368.263,318.75l-2.885,7.6h-.691l-2.555-6.6-2.585,6.6h-.661L356,318.75h.691l2.54,6.793,2.6-6.793h.616l2.585,6.778,2.555-6.778Z" transform="translate(-177.403 89.887)" fill="#fff"/>
      <path id="Path_347" data-name="Path 347" d="M364.591,322.532a3.8,3.8,0,1,1,3.787,3.862,3.682,3.682,0,0,1-3.787-3.862Zm6.853,0a3.006,3.006,0,1,0-.808,2.253A3.006,3.006,0,0,0,371.444,322.532Z" transform="translate(-173.085 89.907)" fill="#fff"/>
      <path id="Path_348" data-name="Path 348" d="M374.742,318.724v.706h-.18c-1.683,0-2.69,1.127-2.69,3.006v3.952h-.721v-7.6h.691v1.668a2.886,2.886,0,0,1,2.9-1.728Z" transform="translate(-169.785 89.868)" fill="#fff"/>
      <path id="Path_349" data-name="Path 349" d="M381.809,316.62v10.805H381.1v-1.788a3.381,3.381,0,0,1-3.111,1.849,3.862,3.862,0,0,1,0-7.71,3.4,3.4,0,0,1,3.1,1.818V316.62Zm-.721,7a3.006,3.006,0,1,0-.808,2.253A3.006,3.006,0,0,0,381.088,323.623Z" transform="translate(-168.165 88.816)" fill="#fff"/>
      <path id="Path_350" data-name="Path 350" d="M547.676,63.211c0,.21-69.476.391-155.168.391s-155.168-.18-155.168-.391,69.461-.391,155.168-.391S547.676,63,547.676,63.211Z" transform="translate(-237.069 -38.805)" fill="#263238"/>
      <path id="Path_351" data-name="Path 351" d="M251.524,56.147a3.772,3.772,0,1,1-1.1-2.677,3.772,3.772,0,0,1,1.1,2.677Z" transform="translate(-233.731 -44.064)" fill="#263238"/>
      <path id="Path_352" data-name="Path 352" d="M258.784,56.147a3.772,3.772,0,1,1-1.1-2.677,3.772,3.772,0,0,1,1.1,2.677Z" transform="translate(-230.08 -44.064)" fill="#263238"/>
      <path id="Path_353" data-name="Path 353" d="M266,56.147a3.772,3.772,0,1,1-3.727-3.787A3.772,3.772,0,0,1,266,56.147Z" transform="translate(-226.45 -44.064)" fill="#263238"/>
      <path id="Path_354" data-name="Path 354" d="M548.323,518.22c0-3.216-.15-193.776-.361-470.96l.361.361H237.551l.391-.391c0,177.726,0,341.58-.09,470.96l-.3-.3,310.8.3-310.8.316h-.316v-.316c0-129.379,0-293.234-.075-470.96V46.84H548.713V47.2C548.473,324.444,548.323,515.019,548.323,518.22Z" transform="translate(-237.16 -46.84)" fill="#263238"/>
    </g>
    <g id="freepik--Plant--inject-6" transform="translate(579.435 399.015)">
      <path id="Path_355" data-name="Path 355" d="M442.256,527.375a4.419,4.419,0,0,0-.255-.616c-.21-.436-.481-1.007-.827-1.758a43.336,43.336,0,0,1-2.42-7.048,62.263,62.263,0,0,1,.2-27.2A148.8,148.8,0,0,1,444,472.461c2.134-6.477,4.629-13.36,6.643-20.8a80.463,80.463,0,0,0,3.291-23.94c-.316-8.461-2.81-16.907-5.576-25.323s-5.591-16.651-6.447-24.932a38.051,38.051,0,0,1,4.509-23.023c3.652-6.718,8.235-12.474,11.677-18.425a64.408,64.408,0,0,0,7.018-17.7,66.124,66.124,0,0,0,.436-27.442,51.573,51.573,0,0,0-2.855-9.693,3.769,3.769,0,0,0,.165.646c.15.466.331,1.082.586,1.863a72.133,72.133,0,0,1,1.773,7.244,66.772,66.772,0,0,1-.706,27.231,63.466,63.466,0,0,1-7.048,17.493c-3.427,5.876-8.025,11.6-11.752,18.395a38.7,38.7,0,0,0-4.7,23.5c.857,8.416,3.712,16.711,6.462,25.112s5.23,16.772,5.545,25.082a80.07,80.07,0,0,1-3.2,23.685c-2,7.409-4.508,14.292-6.567,20.8a144.88,144.88,0,0,0-4.959,18.395c-2.314,11.452-1.653,21.13.075,27.412a41.42,41.42,0,0,0,2.585,7.033l.917,1.728a3.139,3.139,0,0,0,.391.571Z" transform="translate(-380.682 -281.18)" fill="#263238"/>
      <path id="Path_356" data-name="Path 356" d="M450.339,333.456s6.973-22.3-5.545-35.362a.766.766,0,0,0-1.323.391C442.81,302.166,441.968,313.378,450.339,333.456Z" transform="translate(-377.524 -272.801)" fill="#ff725e"/>
      <path id="Path_357" data-name="Path 357" d="M445.13,303a19.947,19.947,0,0,0,.466,4.118c.451,2.84.992,6.162,1.593,9.844s1.112,7,1.5,9.829a20.958,20.958,0,0,0,.736,4.073,17.283,17.283,0,0,0-.135-4.148c-.225-2.54-.676-6.011-1.307-9.9s-1.292-7.3-1.848-9.8A19.133,19.133,0,0,0,445.13,303Z" transform="translate(-376.493 -270.208)" fill="#263238"/>
      <path id="Path_358" data-name="Path 358" d="M449.973,366.132s-4.268-22.963-21.43-28.659a.781.781,0,0,0-.992.962C428.678,342,433.186,352.306,449.973,366.132Z" transform="translate(-385.348 -252.893)" fill="#ff725e"/>
      <path id="Path_359" data-name="Path 359" d="M431.31,341.41a20.65,20.65,0,0,0,2.329,3.411l6.011,7.95c2.239,3.006,4.253,5.681,6.011,7.965A24.438,24.438,0,0,0,448.217,364a18.029,18.029,0,0,0-2.044-3.607c-1.4-2.149-3.442-5.034-5.8-8.145s-4.508-5.846-6.207-7.8a19.025,19.025,0,0,0-2.855-3.036Z" transform="translate(-383.442 -250.894)" fill="#263238"/>
      <path id="Path_360" data-name="Path 360" d="M450.025,406.187s2.6-23.219-12.173-33.649a.782.782,0,0,0-1.232.631C436.665,376.911,437.988,388.077,450.025,406.187Z" transform="translate(-380.772 -235.314)" fill="#ff725e"/>
      <path id="Path_361" data-name="Path 361" d="M439.27,377.17a19.192,19.192,0,0,0,1.247,3.952c.992,2.69,2.149,5.861,3.427,9.348s2.435,6.658,3.411,9.363a21.813,21.813,0,0,0,1.5,3.847,16.891,16.891,0,0,0-.917-4.043c-.706-2.45-1.818-5.816-3.171-9.468s-2.675-6.928-3.682-9.273A19.1,19.1,0,0,0,439.27,377.17Z" transform="translate(-379.439 -232.912)" fill="#263238"/>
      <path id="Path_362" data-name="Path 362" d="M441.818,444.613s1.758-23.309-13.375-33.2a.767.767,0,0,0-1.2.676C427.421,415.819,429.134,426.94,441.818,444.613Z" transform="translate(-385.489 -215.761)" fill="#ff725e"/>
      <path id="Path_363" data-name="Path 363" d="M430,416a22.028,22.028,0,0,0,1.4,3.907c1.082,2.66,2.36,5.771,3.772,9.212s2.66,6.582,3.742,9.227a20.02,20.02,0,0,0,1.638,3.8,17.912,17.912,0,0,0-1.067-4.013c-.8-2.42-2.029-5.741-3.517-9.348s-2.916-6.823-4.013-9.137A17.629,17.629,0,0,0,430,416Z" transform="translate(-384.101 -213.387)" fill="#263238"/>
      <path id="Path_364" data-name="Path 364" d="M454.58,318.435s20.709-10.82,21.115-28.9a.781.781,0,0,0-1.217-.661C471.4,291.009,462.876,298.327,454.58,318.435Z" transform="translate(-371.741 -277.378)" fill="#ff725e"/>
      <path id="Path_365" data-name="Path 365" d="M471.341,293.41a18.683,18.683,0,0,0-2.585,3.231l-5.846,8.07c-2.179,3.006-4.163,5.741-5.861,8.055a25.552,25.552,0,0,0-2.359,3.4,17.146,17.146,0,0,0,2.855-3.006c1.638-1.969,3.8-4.764,6.011-7.935s4.268-6.011,5.651-8.236A19.883,19.883,0,0,0,471.341,293.41Z" transform="translate(-371.686 -275.03)" fill="#263238"/>
      <path id="Path_366" data-name="Path 366" d="M439.78,349.893s21.37-9.573,22.873-27.607a.766.766,0,0,0-1.172-.736C458.235,323.534,449.278,330.327,439.78,349.893Z" transform="translate(-379.183 -260.94)" fill="#ff725e"/>
      <path id="Path_367" data-name="Path 367" d="M457.879,326a20.1,20.1,0,0,0-2.765,3.006l-6.327,7.695-6.327,7.695a22.812,22.812,0,0,0-2.57,3.246,17.582,17.582,0,0,0,3.006-2.84c1.758-1.863,4.088-4.509,6.552-7.514s4.629-5.816,6.132-7.875A17.377,17.377,0,0,0,457.879,326Z" transform="translate(-379.128 -258.643)" fill="#263238"/>
      <path id="Path_368" data-name="Path 368" d="M447.949,387.761s14.653-18.2,7.785-34.926a.782.782,0,0,0-1.383-.135C452.383,355.886,447.513,366.03,447.949,387.761Z" transform="translate(-375.089 -245.397)" fill="#ff725e"/>
      <path id="Path_369" data-name="Path 369" d="M454.2,357.6a20.365,20.365,0,0,0-1.067,4c-.616,2.81-1.323,6.1-2.119,9.738l-2.134,9.723a23.1,23.1,0,0,0-.812,4.058,16.247,16.247,0,0,0,1.4-3.892c.721-2.465,1.593-5.891,2.4-9.693s1.5-7.289,1.863-9.814a18.7,18.7,0,0,0,.466-4.118Z" transform="translate(-375.014 -242.753)" fill="#263238"/>
      <path id="Path_370" data-name="Path 370" d="M438.29,427.363s21.16-9.889,22.362-27.938a.766.766,0,0,0-1.172-.706C456.309,400.7,447.472,407.646,438.29,427.363Z" transform="translate(-379.932 -222.136)" fill="#ff725e"/>
      <path id="Path_371" data-name="Path 371" d="M456.023,403.16a21.043,21.043,0,0,0-2.72,3.111l-6.177,7.815c-2.329,2.916-4.418,5.546-6.222,7.785a22.783,22.783,0,0,0-2.495,3.291,17.221,17.221,0,0,0,3.006-2.885c1.728-1.894,4.013-4.584,6.417-7.649s4.509-5.891,6.011-7.98a18.774,18.774,0,0,0,2.179-3.487Z" transform="translate(-379.872 -219.844)" fill="#263238"/>
      <path id="Path_372" data-name="Path 372" d="M410.24,356.62v2.014c.075,1.413.15,3.306.255,5.666.271,4.989.661,11.933,1.112,20.243h0c1.5,8.446,5.816,17.824,11.6,26.916,4.238,6.7,8.686,12.8,12.534,18.47a129.616,129.616,0,0,1,9.378,15.524,65.208,65.208,0,0,1,4.4,11.392c.376,1.4.646,2.48.812,3.231a5.181,5.181,0,0,0,.315,1.127,9.248,9.248,0,0,0-.15-1.172c-.105-.751-.331-1.863-.646-3.276a60.639,60.639,0,0,0-4.178-11.572,121.632,121.632,0,0,0-9.273-15.7c-3.8-5.711-8.236-11.812-12.459-18.485-5.741-9.017-10.024-18.275-11.6-26.6h0c-.586-8.311-1.082-15.239-1.428-20.213-.2-2.359-.346-4.253-.451-5.666,0-.586-.12-1.082-.15-1.5A2.227,2.227,0,0,0,410.24,356.62Z" transform="translate(-394.037 -243.246)" fill="#263238"/>
      <path id="Path_373" data-name="Path 373" d="M419.758,404.054s-9.017-21.581,2.314-35.722a.766.766,0,0,1,1.353.271C424.432,372.179,426.34,383.27,419.758,404.054Z" transform="translate(-390.961 -237.509)" fill="#ff725e"/>
      <path id="Path_374" data-name="Path 374" d="M420.416,373.22a18.7,18.7,0,0,0-.706,4.088c-.316,2.525-.676,6.011-.962,9.934s-.406,7.409-.406,9.979a16.31,16.31,0,0,0,.255,4.133,23.493,23.493,0,0,0,.361-4.118c.2-2.87.421-6.222.661-9.934s.5-7.078.706-9.949A20.936,20.936,0,0,0,420.416,373.22Z" transform="translate(-389.981 -234.899)" fill="#263238"/>
      <g id="Group_127" data-name="Group 127" transform="translate(25.396 130.519)" opacity="0.3">
        <path id="Path_375" data-name="Path 375" d="M419.758,404.054s-9.017-21.581,2.314-35.722a.766.766,0,0,1,1.353.271C424.432,372.179,426.34,383.27,419.758,404.054Z" transform="translate(-416.357 -368.028)"/>
      </g>
      <path id="Path_376" data-name="Path 376" d="M437.793,438.511s-7.184-22.242,5.2-35.422a.781.781,0,0,1,1.322.376C445.022,407.147,445.969,418.358,437.793,438.511Z" transform="translate(-381.224 -219.998)" fill="#ff725e"/>
      <path id="Path_377" data-name="Path 377" d="M441.085,408a18.609,18.609,0,0,0-1.037,4.013c-.526,2.495-1.157,6.011-1.758,9.813s-1.007,7.364-1.217,9.919a16.864,16.864,0,0,0,0,4.148,24.249,24.249,0,0,0,.691-4.073c.421-2.84.917-6.177,1.5-9.859s1.067-7,1.5-9.844A20.2,20.2,0,0,0,441.085,408Z" transform="translate(-380.609 -217.41)" fill="#263238"/>
      <g id="Group_128" data-name="Group 128" transform="translate(54.497 182.855)" opacity="0.3">
        <path id="Path_378" data-name="Path 378" d="M437.793,438.511s-7.184-22.242,5.2-35.422a.781.781,0,0,1,1.322.376C445.022,407.147,445.969,418.358,437.793,438.511Z" transform="translate(-435.721 -402.853)"/>
      </g>
      <path id="Path_379" data-name="Path 379" d="M416.8,385.166s-19.146-13.405-17.208-31.379a.766.766,0,0,1,1.277-.511C403.7,355.786,411.213,364.157,416.8,385.166Z" transform="translate(-399.458 -245.026)" fill="#ff725e"/>
      <g id="Group_129" data-name="Group 129" transform="translate(0 108.052)" opacity="0.3">
        <path id="Path_380" data-name="Path 380" d="M416.8,385.166s-19.146-13.405-17.208-31.379a.766.766,0,0,1,1.277-.511C403.7,355.786,411.213,364.157,416.8,385.166Z" transform="translate(-399.458 -353.079)"/>
      </g>
      <path id="Path_381" data-name="Path 381" d="M401.88,358a18.68,18.68,0,0,0,1.593,3.817c1.082,2.314,2.675,5.47,4.509,8.9s3.637,6.492,5,8.641a17.732,17.732,0,0,0,2.435,3.366,21.939,21.939,0,0,0-1.894-3.682c-1.383-2.51-3.006-5.47-4.779-8.732L404,361.547A20.5,20.5,0,0,0,401.88,358Z" transform="translate(-398.24 -242.552)" fill="#263238"/>
      <path id="Path_382" data-name="Path 382" d="M441.808,419.15s-23.084-3.607-29.26-20.589a.766.766,0,0,1,.917-1.022C417.012,398.561,427.441,402.754,441.808,419.15Z" transform="translate(-392.904 -222.684)" fill="#ff725e"/>
      <g id="Group_130" data-name="Group 130" transform="translate(19.59 174.827)" opacity="0.3">
        <path id="Path_383" data-name="Path 383" d="M441.808,419.15s-23.084-3.607-29.26-20.589a.766.766,0,0,1,.917-1.022C417.012,398.561,427.441,402.754,441.808,419.15Z" transform="translate(-412.494 -397.511)"/>
      </g>
      <path id="Path_384" data-name="Path 384" d="M416.52,401.2a18.026,18.026,0,0,0,3.111,2.735c2,1.593,4.809,3.727,7.98,6.011s6.132,4.223,8.311,5.545a17.311,17.311,0,0,0,3.667,1.954,21.632,21.632,0,0,0-3.336-2.465l-8.13-5.741-8.115-5.786A21.175,21.175,0,0,0,416.52,401.2Z" transform="translate(-390.879 -220.829)" fill="#263238"/>
      <path id="Path_385" data-name="Path 385" d="M464.184,440.18l-6.628,43.432-26.435-.045L422.21,440.18Z" transform="translate(-388.018 -201.229)" fill="#455a64"/>
      <path id="Path_386" data-name="Path 386" d="M438.781,452.077A7.379,7.379,0,0,0,440,448.44a3.922,3.922,0,0,0-1.788-3.727,4.268,4.268,0,0,0-4.433.361,6.462,6.462,0,0,0-2.525,3.982,16.77,16.77,0,0,0-.331,4.914,15.885,15.885,0,0,0,1.067,5,11.045,11.045,0,0,0,3.006,4.373,8.551,8.551,0,0,0,5.095,2.134,9.364,9.364,0,0,0,5.29-1.5,16.1,16.1,0,0,0,3.953-3.577,8.7,8.7,0,0,0,2-4.764,5.576,5.576,0,0,0-1.878-4.614,4.328,4.328,0,0,0-4.689-.286,5.08,5.08,0,0,0-2.705,3.547,6.778,6.778,0,0,0,3.351,6.868,9.3,9.3,0,0,0,6.387.932A14.427,14.427,0,0,0,456.3,460.3a25.122,25.122,0,0,0,2.555-1.713,4.3,4.3,0,0,0,.811-.706,10.126,10.126,0,0,0-.9.586c-.586.376-1.5.962-2.6,1.593a14.747,14.747,0,0,1-4.509,1.623,9.017,9.017,0,0,1-6.011-.962,6.282,6.282,0,0,1-3.006-6.312,4.509,4.509,0,0,1,2.4-3.1,3.682,3.682,0,0,1,3.982.24,4.9,4.9,0,0,1,1.608,4.043,8.025,8.025,0,0,1-1.879,4.373,15.632,15.632,0,0,1-3.757,3.4,8.7,8.7,0,0,1-4.884,1.428,7.965,7.965,0,0,1-4.659-1.954,10.52,10.52,0,0,1-2.87-4.088,15.311,15.311,0,0,1-1.037-4.794,16.2,16.2,0,0,1,.286-4.7,5.816,5.816,0,0,1,2.239-3.622,3.682,3.682,0,0,1,3.772-.376,3.4,3.4,0,0,1,1.5,3.2,6.779,6.779,0,0,1-1.1,3.366,9.754,9.754,0,0,1-4.929,3.7,10.8,10.8,0,0,1-4.689.556,12.111,12.111,0,0,1-3.907-1.157l.21.165a7.725,7.725,0,0,0,.706.391,9.3,9.3,0,0,0,3.006.887,10.758,10.758,0,0,0,4.869-.466,10.174,10.174,0,0,0,5.23-3.787" transform="translate(-386.751 -199.179)" fill="#263238"/>
    </g>
  </g>
</svg>
