<svg xmlns="http://www.w3.org/2000/svg" width="647.765" height="491.333" viewBox="0 0 647.765 491.333">
  <g id="Student-Discussing-in-library" transform="translate(-40.51 -43.84)">
    <g id="Group_38" data-name="Group 38" transform="translate(40.51 43.84)">
      <g id="Group_4" data-name="Group 4" transform="translate(237.053)">
        <g id="Group_1" data-name="Group 1" transform="translate(4.003 15.031)">
          <rect id="Rectangle_1" data-name="Rectangle 1" width="19.043" height="404.942" transform="translate(0.413 0.413)" fill="#f5d0d0"/>
          <path id="Path_1" data-name="Path 1" d="M352.409,467.817H332.54V62.05h19.869Zm-19.043-.825h18.218V62.875H333.365Z" transform="translate(-332.54 -62.05)" fill="#002346"/>
        </g>
        <g id="Group_2" data-name="Group 2" transform="translate(0 419.981)">
          <rect id="Rectangle_2" data-name="Rectangle 2" width="27.067" height="15.031" rx="2.56" transform="translate(0.404 0.404)" fill="#e6bdbd"/>
          <path id="Path_2" data-name="Path 2" d="M353.048,568.487H330.216a2.526,2.526,0,0,1-2.526-2.526V555.156a2.526,2.526,0,0,1,2.526-2.526h22.832a2.526,2.526,0,0,1,2.526,2.526v10.805A2.526,2.526,0,0,1,353.048,568.487Zm-22.832-15.031a1.7,1.7,0,0,0-1.7,1.7v10.805a1.7,1.7,0,0,0,1.7,1.7h22.832a1.7,1.7,0,0,0,1.7-1.7V555.156a1.7,1.7,0,0,0-1.7-1.7Z" transform="translate(-327.69 -552.63)" fill="#e6bdbd"/>
        </g>
        <g id="Group_3" data-name="Group 3">
          <rect id="Rectangle_3" data-name="Rectangle 3" width="27.067" height="15.031" rx="2.56" transform="translate(0.404 0.413)" fill="#e6bdbd"/>
          <path id="Path_3" data-name="Path 3" d="M353.048,59.7H330.216a2.526,2.526,0,0,1-2.526-2.526V46.366a2.526,2.526,0,0,1,2.526-2.526h22.832a2.526,2.526,0,0,1,2.526,2.526V57.171A2.526,2.526,0,0,1,353.048,59.7ZM330.216,44.665a1.7,1.7,0,0,0-1.7,1.7V57.171a1.7,1.7,0,0,0,1.7,1.7h22.832a1.7,1.7,0,0,0,1.7-1.7V46.366a1.7,1.7,0,0,0-1.7-1.7Z" transform="translate(-327.69 -43.84)" fill="#e6bdbd"/>
        </g>
      </g>
      <g id="Group_8" data-name="Group 8">
        <g id="Group_5" data-name="Group 5" transform="translate(4.003 15.031)">
          <rect id="Rectangle_4" data-name="Rectangle 4" width="19.043" height="404.942" transform="translate(0.413 0.413)" fill="#f5d0d0"/>
          <path id="Path_4" data-name="Path 4" d="M65.229,467.817H45.36V62.05H65.229Zm-19.043-.825H64.4V62.875H46.185Z" transform="translate(-45.36 -62.05)" fill="#f5d0d0"/>
        </g>
        <g id="Group_6" data-name="Group 6" transform="translate(0 419.981)">
          <rect id="Rectangle_5" data-name="Rectangle 5" width="27.067" height="15.031" rx="2.56" transform="translate(0.404 0.404)" fill="#e6bdbd"/>
          <path id="Path_5" data-name="Path 5" d="M65.868,568.487H43.036a2.526,2.526,0,0,1-2.526-2.526V555.156a2.526,2.526,0,0,1,2.526-2.526H65.868a2.526,2.526,0,0,1,2.526,2.526v10.805A2.526,2.526,0,0,1,65.868,568.487ZM43.036,553.456a1.7,1.7,0,0,0-1.7,1.7v10.805a1.7,1.7,0,0,0,1.7,1.7H65.868a1.7,1.7,0,0,0,1.7-1.7V555.156a1.7,1.7,0,0,0-1.7-1.7Z" transform="translate(-40.51 -552.63)" fill="#e6bdbd"/>
        </g>
        <g id="Group_7" data-name="Group 7">
          <rect id="Rectangle_6" data-name="Rectangle 6" width="27.067" height="15.031" rx="2.56" transform="translate(0.404 0.413)" fill="#e6bdbd"/>
          <path id="Path_6" data-name="Path 6" d="M65.868,59.7H43.036a2.526,2.526,0,0,1-2.526-2.526V46.366a2.526,2.526,0,0,1,2.526-2.526H65.868a2.526,2.526,0,0,1,2.526,2.526V57.171A2.526,2.526,0,0,1,65.868,59.7ZM43.036,44.665a1.7,1.7,0,0,0-1.7,1.7V57.171a1.7,1.7,0,0,0,1.7,1.7H65.868a1.7,1.7,0,0,0,1.7-1.7V46.366a1.7,1.7,0,0,0-1.7-1.7Z" transform="translate(-40.51 -43.84)" fill="#e6bdbd"/>
        </g>
      </g>
      <g id="Group_9" data-name="Group 9" transform="translate(23.047 101.233)">
        <rect id="Rectangle_7" data-name="Rectangle 7" width="218.01" height="17.037" transform="translate(0.413 0.413)" fill="#f3aeae"/>
        <path id="Path_7" data-name="Path 7" d="M287.265,184.343H68.43V166.48H287.265Zm-218.01-.825H286.44V167.305H69.255v16.212Z" transform="translate(-68.43 -166.48)" fill="#002346"/>
      </g>
      <g id="Group_10" data-name="Group 10" transform="translate(23.047 195.45)">
        <rect id="Rectangle_8" data-name="Rectangle 8" width="218.01" height="17.037" transform="translate(0.413 0.413)" fill="#f3aeae"/>
        <path id="Path_8" data-name="Path 8" d="M287.265,298.483H68.43V280.62H287.265Zm-218.01-.825H286.44V281.445H69.255v16.212Z" transform="translate(-68.43 -280.62)" fill="#002346"/>
      </g>
      <g id="Group_11" data-name="Group 11" transform="translate(23.047 289.676)">
        <rect id="Rectangle_9" data-name="Rectangle 9" width="218.01" height="17.037" transform="translate(0.413 0.404)" fill="#f3aeae"/>
        <path id="Path_9" data-name="Path 9" d="M287.265,412.633H68.43V394.77H287.265v17.863Zm-218.01-.825H286.44V395.6H69.255v16.212Z" transform="translate(-68.43 -394.77)" fill="#f3aeae"/>
      </g>
      <g id="Group_12" data-name="Group 12" transform="translate(23.047 373.872)">
        <rect id="Rectangle_10" data-name="Rectangle 10" width="218.01" height="17.037" transform="translate(0.413 0.405)" fill="#f3aeae"/>
        <path id="Path_10" data-name="Path 10" d="M287.265,514.633H68.43V496.77H287.265Zm-218.01-.825H286.44V497.6H69.255v16.212Z" transform="translate(-68.43 -496.77)" fill="#f3aeae"/>
      </g>
      <g id="Group_13" data-name="Group 13" transform="translate(108.324 26.687)">
        <rect id="Rectangle_11" data-name="Rectangle 11" width="22.84" height="74.249" transform="translate(0.413 0.413)" fill="#f69074"/>
        <path id="Path_11" data-name="Path 11" d="M195.406,151.245H171.74V76.17h23.666Zm-22.84-.825H194.58V77H172.565Z" transform="translate(-171.74 -76.17)" fill="#002346"/>
      </g>
      <g id="Group_14" data-name="Group 14" transform="translate(164.124 33.934)">
        <rect id="Rectangle_12" data-name="Rectangle 12" width="22.84" height="67.002" transform="translate(0.413 0.413)" fill="#002346"/>
        <path id="Path_12" data-name="Path 12" d="M263.006,152.777H239.34V84.95h23.666Zm-22.84-.825H262.18V85.775H240.165Z" transform="translate(-239.34 -84.95)" fill="#002346"/>
      </g>
      <g id="Group_15" data-name="Group 15" transform="translate(186.973 33.934)">
        <rect id="Rectangle_13" data-name="Rectangle 13" width="17.788" height="67.002" transform="translate(0.413 0.413)" fill="#d1d3d4"/>
        <path id="Path_13" data-name="Path 13" d="M285.634,152.777H267.02V84.95h18.614Zm-17.788-.825h16.963V85.775H267.845Z" transform="translate(-267.02 -84.95)" fill="#002346"/>
      </g>
      <g id="Group_16" data-name="Group 16" transform="translate(204.984 44.921)">
        <rect id="Rectangle_14" data-name="Rectangle 14" width="15.155" height="56.023" transform="translate(0.413 0.413)" fill="#f69074"/>
        <path id="Path_14" data-name="Path 14" d="M304.821,155.1H288.84V98.26h15.981v56.849Zm-15.155-.825H304V99.085h-14.33v55.2Z" transform="translate(-288.84 -98.26)" fill="#002346"/>
      </g>
      <g id="Group_17" data-name="Group 17" transform="translate(131.172 25.152)">
        <rect id="Rectangle_15" data-name="Rectangle 15" width="20.43" height="75.785" transform="translate(0.413 0.413)" fill="#fff"/>
        <path id="Path_15" data-name="Path 15" d="M220.675,150.92H199.42V74.31h21.255Zm-20.43-.825h19.6V75.135h-19.6Z" transform="translate(-199.42 -74.31)" fill="#002346"/>
      </g>
      <g id="Group_18" data-name="Group 18" transform="translate(151.825 30.203)">
        <rect id="Rectangle_16" data-name="Rectangle 16" width="12.299" height="70.733" transform="translate(0.413 0.413)" fill="#f69074"/>
        <path id="Path_16" data-name="Path 16" d="M237.565,151.988H224.44V80.43h13.125Zm-12.3-.825h11.474V81.255H225.265Z" transform="translate(-224.44 -80.43)" fill="#002346"/>
      </g>
      <g id="Group_24" data-name="Group 24" transform="translate(69.222 128.803)">
        <g id="Group_19" data-name="Group 19" transform="translate(79.078 6.108)">
          <rect id="Rectangle_17" data-name="Rectangle 17" width="17.574" height="60.431" transform="translate(0.413 0.413)" fill="#002346"/>
          <path id="Path_17" data-name="Path 17" d="M238.569,268.537h-18.4V207.28h18.4ZM221,267.711h16.748V208.105H221Z" transform="translate(-220.17 -207.28)" fill="#002346"/>
        </g>
        <g id="Group_20" data-name="Group 20" transform="translate(96.66 8.981)">
          <rect id="Rectangle_18" data-name="Rectangle 18" width="17.574" height="57.559" transform="translate(0.413 0.413)" fill="#d1d3d4"/>
          <path id="Path_18" data-name="Path 18" d="M259.869,269.144h-18.4V210.76h18.4Zm-17.574-.825h16.748V211.585H242.3Z" transform="translate(-241.47 -210.76)" fill="#002346"/>
        </g>
        <g id="Group_21" data-name="Group 21" transform="translate(114.234 12.423)">
          <rect id="Rectangle_19" data-name="Rectangle 19" width="17.574" height="54.117" transform="translate(0.413 0.404)" fill="#002346"/>
          <path id="Path_19" data-name="Path 19" d="M281.159,269.872h-18.4V214.93h18.4Zm-17.574-.825h16.748V215.755H263.585Z" transform="translate(-262.76 -214.93)" fill="#002346"/>
        </g>
        <g id="Group_22" data-name="Group 22" transform="translate(131.8)">
          <rect id="Rectangle_20" data-name="Rectangle 20" width="19.117" height="66.54" transform="translate(0.421 0.404)" fill="#f69074"/>
          <path id="Path_20" data-name="Path 20" d="M303.983,267.245H284.04V199.88h19.943Zm-19.117-.825h18.292V200.705H284.865Z" transform="translate(-284.04 -199.88)" fill="#002346"/>
        </g>
        <g id="Group_23" data-name="Group 23" transform="translate(0 49.841)">
          <rect id="Rectangle_21" data-name="Rectangle 21" width="55.363" height="16.699" transform="translate(0.413 0.413)" fill="#d1d3d4"/>
          <path id="Path_21" data-name="Path 21" d="M180.55,277.784H124.37V260.26h56.188v17.524Zm-55.363-.825h54.538V261.085H125.2v15.873Z" transform="translate(-124.37 -260.26)" fill="#002346"/>
        </g>
      </g>
      <g id="Group_31" data-name="Group 31" transform="translate(131.395 228.675)">
        <g id="Group_25" data-name="Group 25" transform="translate(0 1.238)">
          <rect id="Rectangle_22" data-name="Rectangle 22" width="18.135" height="60.052" transform="translate(0.413 0.413)" fill="#002346"/>
          <path id="Path_22" data-name="Path 22" d="M218.651,383.247H199.69V322.37h18.961Zm-18.135-.825h17.31V323.2h-17.31Z" transform="translate(-199.69 -322.37)" fill="#002346"/>
        </g>
        <g id="Group_26" data-name="Group 26" transform="translate(44.277 7.107)">
          <rect id="Rectangle_23" data-name="Rectangle 23" width="18.135" height="54.183" transform="translate(0.421 0.404)" fill="#d1d3d4"/>
          <path id="Path_23" data-name="Path 23" d="M272.291,384.488H253.33V329.48h18.961Zm-18.135-.825h17.31V330.305h-17.31Z" transform="translate(-253.33 -329.48)" fill="#002346"/>
        </g>
        <g id="Group_27" data-name="Group 27" transform="translate(62.412 7.107)">
          <rect id="Rectangle_24" data-name="Rectangle 24" width="14.123" height="54.183" transform="translate(0.413 0.404)" fill="#002346"/>
          <path id="Path_24" data-name="Path 24" d="M290.249,384.488H275.3V329.48h14.949v55.008Zm-14.123-.825h13.3V330.305h-13.3Z" transform="translate(-275.3 -329.48)" fill="#002346"/>
        </g>
        <g id="Group_28" data-name="Group 28" transform="translate(76.717 15.981)">
          <rect id="Rectangle_25" data-name="Rectangle 25" width="12.027" height="45.309" transform="translate(0.413 0.413)" fill="#f69074"/>
          <path id="Path_25" data-name="Path 25" d="M305.482,386.364H292.63V340.23h12.852Zm-12.027-.825h11.2V341.055h-11.2Z" transform="translate(-292.63 -340.23)" fill="#002346"/>
        </g>
        <g id="Group_29" data-name="Group 29" transform="translate(18.127)">
          <rect id="Rectangle_26" data-name="Rectangle 26" width="16.22" height="61.29" transform="translate(0.421 0.404)" fill="#d1d3d4"/>
          <path id="Path_26" data-name="Path 26" d="M238.7,382.985H221.65V320.87H238.7Zm-16.22-.825H237.87V321.7H222.475Z" transform="translate(-221.65 -320.87)" fill="#002346"/>
        </g>
        <g id="Group_30" data-name="Group 30" transform="translate(34.52 4.086)">
          <rect id="Rectangle_27" data-name="Rectangle 27" width="9.765" height="57.204" transform="translate(0.413 0.413)" fill="#f69074"/>
          <path id="Path_27" data-name="Path 27" d="M252.1,383.849H241.51V325.82H252.1Zm-9.765-.825h8.94V326.645h-8.94Z" transform="translate(-241.51 -325.82)" fill="#002346"/>
        </g>
      </g>
      <g id="Group_32" data-name="Group 32" transform="translate(129.893 313.853)">
        <rect id="Rectangle_28" data-name="Rectangle 28" width="18.135" height="60.052" transform="translate(0.413 0.413)" fill="#002346"/>
        <path id="Path_28" data-name="Path 28" d="M216.831,484.937H197.87V424.06h18.961Zm-18.135-.825h17.31V424.885H198.7Z" transform="translate(-197.87 -424.06)" fill="#002346"/>
      </g>
      <g id="Group_33" data-name="Group 33" transform="translate(174.005 319.664)">
        <rect id="Rectangle_29" data-name="Rectangle 29" width="54.183" height="18.135" transform="matrix(0.006, -1, 1, 0.006, 0.409, 54.574)" fill="#d1d3d4"/>
        <path id="Path_29" data-name="Path 29" d="M270.271,486.224l-18.961-.116.33-55.008,18.961.116Zm-18.127-.933,17.31.107.322-53.357-17.31-.107Z" transform="translate(-251.31 -431.1)" fill="#002346"/>
      </g>
      <g id="Group_34" data-name="Group 34" transform="translate(192.305 319.722)">
        <rect id="Rectangle_30" data-name="Rectangle 30" width="14.123" height="54.183" transform="translate(0.413 0.413)" fill="#002346"/>
        <path id="Path_30" data-name="Path 30" d="M288.429,486.178H273.48V431.17h14.949v55.008Zm-14.124-.825h13.3V432h-13.3Z" transform="translate(-273.48 -431.17)" fill="#002346"/>
      </g>
      <g id="Group_35" data-name="Group 35" transform="translate(206.61 328.596)">
        <rect id="Rectangle_31" data-name="Rectangle 31" width="12.027" height="45.309" transform="translate(0.413 0.421)" fill="#f69074"/>
        <path id="Path_31" data-name="Path 31" d="M303.662,488.054H290.81V441.92h12.852Zm-12.027-.826h11.2V442.745h-11.2Z" transform="translate(-290.81 -441.92)" fill="#002346"/>
      </g>
      <g id="Group_36" data-name="Group 36" transform="translate(148.02 312.615)">
        <rect id="Rectangle_32" data-name="Rectangle 32" width="16.22" height="61.29" transform="translate(0.421 0.413)" fill="#f69074"/>
        <path id="Path_32" data-name="Path 32" d="M236.876,484.675H219.83V422.56h17.046Zm-16.22-.826H236.05V423.385H220.655Z" transform="translate(-219.83 -422.56)" fill="#002346"/>
      </g>
      <g id="Group_37" data-name="Group 37" transform="translate(164.413 316.701)">
        <rect id="Rectangle_33" data-name="Rectangle 33" width="9.765" height="57.204" transform="translate(0.413 0.413)" fill="#fff"/>
        <path id="Path_33" data-name="Path 33" d="M250.281,485.539H239.69V427.51h10.591Zm-9.765-.825h8.94V428.335h-8.94Z" transform="translate(-239.69 -427.51)" fill="#002346"/>
      </g>
    </g>
    <g id="Group_76" data-name="Group 76" transform="translate(453.409 93.367)">
      <g id="Group_42" data-name="Group 42" transform="translate(210.061)">
        <g id="Group_39" data-name="Group 39" transform="translate(3.549 13.323)">
          <rect id="Rectangle_34" data-name="Rectangle 34" width="16.872" height="358.84" transform="translate(0.421 0.413)" fill="#f5d0d0"/>
          <path id="Path_34" data-name="Path 34" d="M817.206,479.646H799.5V119.98h17.706Zm-16.88-.825H816.38V120.805H800.325Z" transform="translate(-799.5 -119.98)" fill="#f5d0d0"/>
        </g>
        <g id="Group_40" data-name="Group 40" transform="translate(0 372.163)">
          <rect id="Rectangle_35" data-name="Rectangle 35" width="23.979" height="13.323" rx="2.27" transform="translate(0.413 0.413)" fill="#e6bdbd"/>
          <path id="Path_35" data-name="Path 35" d="M817.718,568.848H797.486a2.286,2.286,0,0,1-2.286-2.287v-9.575a2.286,2.286,0,0,1,2.286-2.286h20.232A2.286,2.286,0,0,1,820,556.987v9.575A2.286,2.286,0,0,1,817.718,568.848Zm-20.232-13.323a1.458,1.458,0,0,0-1.461,1.461v9.575a1.458,1.458,0,0,0,1.461,1.461h20.232a1.458,1.458,0,0,0,1.461-1.461v-9.575a1.458,1.458,0,0,0-1.461-1.461Z" transform="translate(-795.2 -554.7)" fill="#e6bdbd"/>
        </g>
        <g id="Group_41" data-name="Group 41">
          <rect id="Rectangle_36" data-name="Rectangle 36" width="23.979" height="13.323" rx="2.27" transform="translate(0.413 0.413)" fill="#e6bdbd"/>
          <path id="Path_36" data-name="Path 36" d="M817.718,117.988H797.486A2.286,2.286,0,0,1,795.2,115.7v-9.575a2.286,2.286,0,0,1,2.286-2.286h20.232A2.286,2.286,0,0,1,820,106.127V115.7A2.286,2.286,0,0,1,817.718,117.988Zm-20.232-13.323a1.458,1.458,0,0,0-1.461,1.461V115.7a1.458,1.458,0,0,0,1.461,1.461h20.232a1.458,1.458,0,0,0,1.461-1.461v-9.575a1.458,1.458,0,0,0-1.461-1.461Z" transform="translate(-795.2 -103.84)" fill="#e6bdbd"/>
        </g>
      </g>
      <g id="Group_46" data-name="Group 46">
        <g id="Group_43" data-name="Group 43" transform="translate(3.558 13.323)">
          <rect id="Rectangle_37" data-name="Rectangle 37" width="16.872" height="358.84" transform="translate(0.405 0.413)" fill="#f5d0d0"/>
          <path id="Path_37" data-name="Path 37" d="M562.728,479.646h-17.7V119.98h17.7Zm-16.872-.825H561.9V120.805H545.855Z" transform="translate(-545.03 -119.98)" fill="#f5d0d0"/>
        </g>
        <g id="Group_44" data-name="Group 44" transform="translate(0 372.163)">
          <rect id="Rectangle_38" data-name="Rectangle 38" width="23.979" height="13.323" rx="2.27" transform="translate(0.413 0.413)" fill="#e6bdbd"/>
          <path id="Path_38" data-name="Path 38" d="M563.238,568.848H543.006a2.286,2.286,0,0,1-2.287-2.287v-9.575a2.286,2.286,0,0,1,2.287-2.286h20.232a2.286,2.286,0,0,1,2.286,2.286v9.575A2.286,2.286,0,0,1,563.238,568.848Zm-20.232-13.323a1.458,1.458,0,0,0-1.461,1.461v9.575a1.459,1.459,0,0,0,1.461,1.461h20.232a1.458,1.458,0,0,0,1.461-1.461v-9.575a1.458,1.458,0,0,0-1.461-1.461Z" transform="translate(-540.72 -554.7)" fill="#e6bdbd"/>
        </g>
        <g id="Group_45" data-name="Group 45">
          <rect id="Rectangle_39" data-name="Rectangle 39" width="23.979" height="13.323" rx="2.27" transform="translate(0.413 0.413)" fill="#e6bdbd"/>
          <path id="Path_39" data-name="Path 39" d="M563.238,117.988H543.006a2.286,2.286,0,0,1-2.287-2.287v-9.575a2.286,2.286,0,0,1,2.287-2.286h20.232a2.286,2.286,0,0,1,2.286,2.286V115.7A2.286,2.286,0,0,1,563.238,117.988Zm-20.232-13.323a1.459,1.459,0,0,0-1.461,1.461V115.7a1.458,1.458,0,0,0,1.461,1.461h20.232A1.458,1.458,0,0,0,564.7,115.7v-9.575a1.458,1.458,0,0,0-1.461-1.461Z" transform="translate(-540.72 -103.84)" fill="#e6bdbd"/>
        </g>
      </g>
      <g id="Group_47" data-name="Group 47" transform="translate(20.43 89.71)">
        <rect id="Rectangle_40" data-name="Rectangle 40" width="193.189" height="15.098" transform="translate(0.413 0.413)" fill="#f3aeae"/>
        <path id="Path_40" data-name="Path 40" d="M759.484,228.443H565.47V212.52H759.484ZM566.3,227.617H758.659V213.345H566.3Z" transform="translate(-565.47 -212.52)" fill="#002346"/>
      </g>
      <g id="Group_48" data-name="Group 48" transform="translate(20.43 173.204)">
        <rect id="Rectangle_41" data-name="Rectangle 41" width="193.189" height="15.098" transform="translate(0.413 0.404)" fill="#f3aeae"/>
        <path id="Path_41" data-name="Path 41" d="M759.484,329.593H565.47V313.67H759.484ZM566.3,328.767H758.659V314.5H566.3Z" transform="translate(-565.47 -313.67)" fill="#f3aeae"/>
      </g>
      <g id="Group_49" data-name="Group 49" transform="translate(20.43 256.691)">
        <rect id="Rectangle_42" data-name="Rectangle 42" width="193.189" height="15.098" transform="translate(0.413 0.413)" fill="#f3aeae"/>
        <path id="Path_42" data-name="Path 42" d="M759.484,430.733H565.47V414.81H759.484ZM566.3,429.908H758.659V415.635H566.3Z" transform="translate(-565.47 -414.81)" fill="#f3aeae"/>
      </g>
      <g id="Group_50" data-name="Group 50" transform="translate(20.43 331.303)">
        <rect id="Rectangle_43" data-name="Rectangle 43" width="193.189" height="15.098" transform="translate(0.413 0.413)" fill="#f3aeae"/>
        <path id="Path_43" data-name="Path 43" d="M759.484,521.123H565.47V505.2H759.484ZM566.3,520.3H758.659V506.025H566.3Z" transform="translate(-565.47 -505.2)" fill="#f3aeae"/>
      </g>
      <g id="Group_51" data-name="Group 51" transform="translate(95.992 23.649)">
        <rect id="Rectangle_44" data-name="Rectangle 44" width="20.24" height="65.797" transform="translate(0.413 0.413)" fill="#f69074"/>
        <path id="Path_44" data-name="Path 44" d="M678.076,199.112H657.01V132.49h21.066v66.622Zm-20.24-.825H677.25V133.315H657.835v64.971Z" transform="translate(-657.01 -132.49)" fill="#002346"/>
      </g>
      <g id="Group_52" data-name="Group 52" transform="translate(145.445 30.071)">
        <rect id="Rectangle_45" data-name="Rectangle 45" width="20.24" height="59.375" transform="translate(0.404 0.413)" fill="#002346"/>
        <path id="Path_45" data-name="Path 45" d="M737.985,200.47H716.92v-60.2h21.065v60.2Zm-20.24-.825H737.16V141.1H717.745v58.549Z" transform="translate(-716.92 -140.27)" fill="#002346"/>
      </g>
      <g id="Group_53" data-name="Group 53" transform="translate(165.693 30.071)">
        <rect id="Rectangle_46" data-name="Rectangle 46" width="15.766" height="59.375" transform="translate(0.413 0.413)" fill="#d1d3d4"/>
        <path id="Path_46" data-name="Path 46" d="M758.042,200.47H741.45v-60.2h16.592v60.2Zm-15.766-.825h14.941V141.1H742.275v58.549Z" transform="translate(-741.45 -140.27)" fill="#002346"/>
      </g>
      <g id="Group_54" data-name="Group 54" transform="translate(181.649 39.803)">
        <rect id="Rectangle_47" data-name="Rectangle 47" width="13.43" height="49.643" transform="translate(0.413 0.413)" fill="#f69074"/>
        <path id="Path_47" data-name="Path 47" d="M775.036,202.528H760.78V152.06h14.256Zm-13.43-.825h12.6V152.885h-12.6Z" transform="translate(-760.78 -152.06)" fill="#002346"/>
      </g>
      <g id="Group_55" data-name="Group 55" transform="translate(116.24 22.287)">
        <rect id="Rectangle_48" data-name="Rectangle 48" width="18.102" height="67.159" transform="translate(0.413 0.413)" fill="#fff"/>
        <path id="Path_48" data-name="Path 48" d="M700.468,198.824H681.54V130.84h18.928Zm-18.1-.825h17.277V131.665H682.365Z" transform="translate(-681.54 -130.84)" fill="#002346"/>
      </g>
      <g id="Group_56" data-name="Group 56" transform="translate(134.54 26.761)">
        <rect id="Rectangle_49" data-name="Rectangle 49" width="10.896" height="62.685" transform="translate(0.413 0.421)" fill="#f69074"/>
        <path id="Path_49" data-name="Path 49" d="M715.431,199.77H703.71V136.26h11.721Zm-10.9-.825h10.07V137.085h-10.07Z" transform="translate(-703.71 -136.26)" fill="#002346"/>
      </g>
      <g id="Group_62" data-name="Group 62" transform="translate(61.339 114.127)">
        <g id="Group_57" data-name="Group 57" transform="translate(70.089 5.423)">
          <rect id="Rectangle_50" data-name="Rectangle 50" width="15.568" height="53.547" transform="translate(0.404 0.413)" fill="#002346"/>
          <path id="Path_50" data-name="Path 50" d="M716.333,303.043H699.94V248.67h16.393Zm-15.568-.825h14.743V249.5H700.766Z" transform="translate(-699.94 -248.67)" fill="#002346"/>
        </g>
        <g id="Group_58" data-name="Group 58" transform="translate(85.665 7.966)">
          <rect id="Rectangle_51" data-name="Rectangle 51" width="15.568" height="51.005" transform="translate(0.413 0.413)" fill="#d1d3d4"/>
          <path id="Path_51" data-name="Path 51" d="M735.2,303.58H718.81V251.75H735.2Zm-15.568-.825h14.743V252.575H719.635Z" transform="translate(-718.81 -251.75)" fill="#002346"/>
        </g>
        <g id="Group_59" data-name="Group 59" transform="translate(101.233 11.012)">
          <rect id="Rectangle_52" data-name="Rectangle 52" width="15.568" height="47.959" transform="translate(0.413 0.413)" fill="#002346"/>
          <path id="Path_52" data-name="Path 52" d="M754.063,304.224H737.67V255.44h16.393ZM738.5,303.4h14.743V256.265H738.5Z" transform="translate(-737.67 -255.44)" fill="#002346"/>
        </g>
        <g id="Group_60" data-name="Group 60" transform="translate(116.801)">
          <rect id="Rectangle_53" data-name="Rectangle 53" width="16.938" height="58.97" transform="translate(0.413 0.421)" fill="#f69074"/>
          <path id="Path_53" data-name="Path 53" d="M774.294,301.9H756.53V242.1h17.764Zm-16.938-.825h16.113V242.925H757.355Z" transform="translate(-756.53 -242.1)" fill="#002346"/>
        </g>
        <g id="Group_61" data-name="Group 61" transform="translate(0 44.17)">
          <rect id="Rectangle_54" data-name="Rectangle 54" width="49.057" height="14.8" transform="translate(0.413 0.421)" fill="#d1d3d4"/>
          <path id="Path_54" data-name="Path 54" d="M664.912,311.236H615.03V295.61h49.882Zm-49.057-.825h48.231V296.435H615.855Z" transform="translate(-615.03 -295.61)" fill="#002346"/>
        </g>
      </g>
      <g id="Group_69" data-name="Group 69" transform="translate(116.438 202.632)">
        <g id="Group_63" data-name="Group 63" transform="translate(0 1.098)">
          <rect id="Rectangle_55" data-name="Rectangle 55" width="16.072" height="53.217" transform="translate(0.413 0.421)" fill="#002346"/>
          <path id="Path_55" data-name="Path 55" d="M698.677,404.692h-16.9V350.65h16.9Zm-16.072-.825h15.246V351.475H682.605Z" transform="translate(-681.78 -350.65)" fill="#002346"/>
        </g>
        <g id="Group_64" data-name="Group 64" transform="translate(39.242 6.298)">
          <rect id="Rectangle_56" data-name="Rectangle 56" width="16.072" height="48.017" transform="translate(0.413 0.413)" fill="#d1d3d4"/>
          <path id="Path_56" data-name="Path 56" d="M746.209,405.792H729.32V356.95h16.889Zm-16.063-.825h15.238V357.775H730.146Z" transform="translate(-729.32 -356.95)" fill="#002346"/>
        </g>
        <g id="Group_65" data-name="Group 65" transform="translate(55.313 6.298)">
          <rect id="Rectangle_57" data-name="Rectangle 57" width="12.514" height="48.017" transform="translate(0.404 0.413)" fill="#002346"/>
          <path id="Path_57" data-name="Path 57" d="M762.129,405.792H748.79V356.95h13.339Zm-12.514-.825H761.3V357.775H749.615Z" transform="translate(-748.79 -356.95)" fill="#002346"/>
        </g>
        <g id="Group_66" data-name="Group 66" transform="translate(67.984 14.165)">
          <rect id="Rectangle_58" data-name="Rectangle 58" width="10.657" height="40.15" transform="translate(0.413 0.413)" fill="#f69074"/>
          <path id="Path_58" data-name="Path 58" d="M775.622,407.455H764.14V366.48h11.482Zm-10.657-.825H774.8V367.305h-9.831Z" transform="translate(-764.14 -366.48)" fill="#002346"/>
        </g>
        <g id="Group_67" data-name="Group 67" transform="translate(16.072)">
          <rect id="Rectangle_59" data-name="Rectangle 59" width="14.371" height="54.315" transform="translate(0.413 0.413)" fill="#d1d3d4"/>
          <path id="Path_59" data-name="Path 59" d="M716.446,404.46h-15.2V349.32h15.2Zm-14.371-.825h13.546V350.145H702.075Z" transform="translate(-701.25 -349.32)" fill="#002346"/>
        </g>
        <g id="Group_68" data-name="Group 68" transform="translate(30.591 3.624)">
          <rect id="Rectangle_60" data-name="Rectangle 60" width="8.651" height="50.691" transform="translate(0.413 0.413)" fill="#f69074"/>
          <path id="Path_60" data-name="Path 60" d="M728.316,405.226H718.84V353.71h9.476Zm-8.651-.825h7.825V354.535h-7.825Z" transform="translate(-718.84 -353.71)" fill="#002346"/>
        </g>
      </g>
      <g id="Group_70" data-name="Group 70" transform="translate(115.109 278.119)">
        <rect id="Rectangle_61" data-name="Rectangle 61" width="16.072" height="53.217" transform="translate(0.413 0.413)" fill="#002346"/>
        <path id="Path_61" data-name="Path 61" d="M697.059,494.812H680.17V440.77h16.889ZM681,493.987h15.238V441.6H681Z" transform="translate(-680.17 -440.77)" fill="#002346"/>
      </g>
      <g id="Group_71" data-name="Group 71" transform="translate(154.203 283.27)">
        <rect id="Rectangle_62" data-name="Rectangle 62" width="48.017" height="16.072" transform="matrix(0.006, -1, 1, 0.006, 0.375, 48.407)" fill="#d1d3d4"/>
        <path id="Path_62" data-name="Path 62" d="M744.419,495.951l-16.889-.1.289-48.842,16.889.1Zm-16.063-.924,15.238.091.281-47.191-15.238-.091Z" transform="translate(-727.53 -447.01)" fill="#002346"/>
      </g>
      <g id="Group_72" data-name="Group 72" transform="translate(170.414 283.32)">
        <rect id="Rectangle_63" data-name="Rectangle 63" width="12.514" height="48.017" transform="translate(0.413 0.413)" fill="#002346"/>
        <path id="Path_63" data-name="Path 63" d="M760.509,495.912H747.17V447.07h13.339ZM748,495.086h11.688V447.9H748Z" transform="translate(-747.17 -447.07)" fill="#002346"/>
      </g>
      <g id="Group_73" data-name="Group 73" transform="translate(183.093 291.186)">
        <rect id="Rectangle_64" data-name="Rectangle 64" width="10.657" height="40.15" transform="translate(0.413 0.413)" fill="#f69074"/>
        <path id="Path_64" data-name="Path 64" d="M774.012,497.575H762.53V456.6h11.482Zm-10.657-.825h9.831V457.425h-9.831Z" transform="translate(-762.53 -456.6)" fill="#002346"/>
      </g>
      <g id="Group_74" data-name="Group 74" transform="translate(131.172 277.021)">
        <rect id="Rectangle_65" data-name="Rectangle 65" width="14.371" height="54.315" transform="translate(0.413 0.413)" fill="#f69074"/>
        <path id="Path_65" data-name="Path 65" d="M714.826,494.58h-15.2V439.44h15.2Zm-14.371-.825H714V440.265H700.455Z" transform="translate(-699.63 -439.44)" fill="#002346"/>
      </g>
      <g id="Group_75" data-name="Group 75" transform="translate(145.7 280.645)">
        <rect id="Rectangle_66" data-name="Rectangle 66" width="8.651" height="50.691" transform="translate(0.413 0.413)" fill="#fff"/>
        <path id="Path_66" data-name="Path 66" d="M726.706,495.346H717.23V443.83h9.476Zm-8.651-.826h7.825V444.655h-7.825Z" transform="translate(-717.23 -443.83)" fill="#002346"/>
      </g>
    </g>
    <g id="Group_111" data-name="Group 111" transform="translate(197.734 45.833)">
      <g id="Group_77" data-name="Group 77" transform="translate(0 66.726)">
        <circle id="Ellipse_1" data-name="Ellipse 1" cx="9.262" cy="9.262" r="9.262" transform="translate(0.413 0.413)" fill="#002346"/>
        <path id="Path_67" data-name="Path 67" d="M240.654,146.439a9.674,9.674,0,1,1,9.674-9.674A9.688,9.688,0,0,1,240.654,146.439Zm0-18.523a8.849,8.849,0,1,0,8.849,8.849A8.86,8.86,0,0,0,240.654,127.915Z" transform="translate(-230.98 -127.09)" fill="#002346"/>
      </g>
      <g id="Group_78" data-name="Group 78" transform="translate(8.783 73.61)">
        <circle id="Ellipse_2" data-name="Ellipse 2" cx="9.262" cy="9.262" r="9.262" transform="translate(0.413 0.413)" fill="#f69074"/>
        <path id="Path_68" data-name="Path 68" d="M251.294,154.779a9.674,9.674,0,1,1,9.674-9.674A9.688,9.688,0,0,1,251.294,154.779Zm0-18.523a8.849,8.849,0,1,0,8.849,8.849A8.86,8.86,0,0,0,251.294,136.255Z" transform="translate(-241.62 -135.43)" fill="#002346"/>
      </g>
      <g id="Group_79" data-name="Group 79" transform="translate(45.4 447.49)">
        <path id="Path_69" data-name="Path 69" d="M300.255,601.372a25.622,25.622,0,0,0-.891,8.816c-1.445.908-2.369,3.847-2.369,3.847-1.222,2.658-3.384,2.542-5.027,1.932a5.919,5.919,0,0,1-2.9-2.369,10.305,10.305,0,0,0-1.907-2.2l-.644-22.081,6.133,4.127c.578.256,1.139.471,1.651.669a17.235,17.235,0,0,0,7.858,1.313,20.673,20.673,0,0,1-1.907,5.943Z" transform="translate(-286.074 -588.536)" fill="#f2b3c1"/>
        <path id="Path_70" data-name="Path 70" d="M293.681,616.576a5.712,5.712,0,0,1-1.956-.388,6.413,6.413,0,0,1-3.1-2.534,9.872,9.872,0,0,0-1.824-2.1l-.14-.116v-.182l-.677-22.882,6.8,4.573c.462.2.966.4,1.445.578l.132.05a17.142,17.142,0,0,0,7.66,1.288l.545-.066-.091.537a21.407,21.407,0,0,1-1.923,6.026,25.2,25.2,0,0,0-.867,8.634l.016.248-.206.132c-1.3.817-2.187,3.591-2.2,3.624a3.883,3.883,0,0,1-3.607,2.584Zm-6.207-5.531a10.774,10.774,0,0,1,1.849,2.163,5.572,5.572,0,0,0,2.7,2.2c2.1.784,3.624.206,4.507-1.717.017-.074.883-2.782,2.32-3.88a25.962,25.962,0,0,1,.924-8.725l.025-.074a20.341,20.341,0,0,0,1.775-5.3,18.543,18.543,0,0,1-7.5-1.387l-.132-.05c-.479-.19-1.007-.388-1.544-.627l-5.531-3.715.619,21.1Z" transform="translate(-285.98 -588.37)" fill="#002346"/>
      </g>
      <g id="Group_80" data-name="Group 80" transform="translate(21.584 483.678)">
        <path id="Path_71" data-name="Path 71" d="M258.306,632.71a4.288,4.288,0,0,0-.553,3.368,2.134,2.134,0,0,0,2.064,1.453H275.45a2.164,2.164,0,0,0,2.006-1.3,3.74,3.74,0,0,0-.553-3.4Z" transform="translate(-257.215 -632.297)" fill="#fff"/>
        <path id="Path_72" data-name="Path 72" d="M259.689,637.856a2.546,2.546,0,0,1-2.41-1.733,4.708,4.708,0,0,1,.594-3.723l.124-.19,19.027.116.124.165a4.156,4.156,0,0,1,.619,3.781,2.554,2.554,0,0,1-2.4,1.585H259.689Zm-1.23-4.821a3.909,3.909,0,0,0-.388,2.856,1.693,1.693,0,0,0,1.659,1.139h15.642A1.787,1.787,0,0,0,277,635.974a3.3,3.3,0,0,0-.388-2.823l-18.152-.116Z" transform="translate(-257.128 -632.21)" fill="#002346"/>
      </g>
      <g id="Group_81" data-name="Group 81" transform="translate(25.143 450.148)">
        <rect id="Rectangle_67" data-name="Rectangle 67" width="13.026" height="24.97" transform="translate(0.421 0.413)" fill="#f2b3c1"/>
        <path id="Path_73" data-name="Path 73" d="M275.291,617.385H261.44v-25.8h13.851Zm-13.026-.825h12.2V592.415h-12.2Z" transform="translate(-261.44 -591.59)" fill="#002346"/>
      </g>
      <g id="Group_82" data-name="Group 82" transform="translate(16.673 253.484)">
        <path id="Path_74" data-name="Path 74" d="M326.324,354.17s0,2.072-.132,5.646c-.388,13.876-1.849,50.468-6.736,76.371,0,0-7.223,43.056-10.112,66.218,0,0-4.7,27.133-6.141,41.611,0,0,.644,9.4-7.107,10.3A17.2,17.2,0,0,1,288.237,553c-.537-.2-1.1-.413-1.651-.669l-6.133-4.127-.38-.248s-4.086,12.258-23.17,3.739a3.19,3.19,0,0,1-1.915-2.724c-.561-12.093-3.574-78.567-3.3-114.63.091-10.128.429-17.863,1.164-21.313L269.112,361.5s43.122.1,57.212-7.33Z" transform="translate(-251.264 -353.485)" fill="#fbe493"/>
        <path id="Path_75" data-name="Path 75" d="M268.778,554.989a30.535,30.535,0,0,1-12.126-3.054,3.565,3.565,0,0,1-2.154-3.071c-.6-12.894-3.574-78.987-3.3-114.663.1-11.16.479-18.16,1.172-21.4l16.36-51.863h.305c.388-.008,43.179.017,57.022-7.28l.6-.322v.685s0,2.121-.132,5.663c-.4,14.363-1.866,50.559-6.744,76.429-.074.421-7.256,43.3-10.112,66.193-.049.289-4.713,27.306-6.141,41.6,0,.025.578,9.732-7.47,10.673a17.757,17.757,0,0,1-8.048-1.337c-.5-.19-1.09-.413-1.684-.685l-6.15-4.127a11.012,11.012,0,0,1-5.621,5.415,14.208,14.208,0,0,1-5.795,1.139Zm.553-193.222-16.171,51.244c-.66,3.1-1.048,10.244-1.147,21.189-.272,35.651,2.7,101.729,3.3,114.606a2.744,2.744,0,0,0,1.667,2.361c7.107,3.17,12.9,3.822,17.227,1.923a10.1,10.1,0,0,0,5.382-5.423l.173-.5.825.537,6.141,4.127c.5.231,1.073.446,1.56.627a17.023,17.023,0,0,0,7.668,1.288c7.264-.842,6.769-9.493,6.744-9.864,1.428-14.4,6.1-41.438,6.15-41.71,2.856-22.89,10.038-65.788,10.112-66.218,4.87-25.82,6.331-61.975,6.727-76.313.091-2.361.116-4.078.124-4.961-14.09,6.843-52.367,7.066-56.494,7.066Z" transform="translate(-251.179 -353.34)" fill="#002346"/>
      </g>
      <g id="Group_83" data-name="Group 83" transform="translate(34.677 119.514)">
        <path id="Path_76" data-name="Path 76" d="M289.425,206.108s-10.855,2.526-15.915-3.624l1.445-10.855,3.3.611,12.258,2.311a23.348,23.348,0,0,0-1.527,7.726A14.633,14.633,0,0,0,289.425,206.108Z" transform="translate(-273.081 -191.143)" fill="#f2b3c1"/>
        <path id="Path_77" data-name="Path 77" d="M284.208,206.946c-3.591,0-8.213-.792-11.1-4.3l-.116-.14,1.527-11.466,16.476,3.1-.173.462a22.967,22.967,0,0,0-1.5,7.586,14.06,14.06,0,0,0,.421,3.715l.107.4-.413.1a24.949,24.949,0,0,1-5.225.537Zm-10.351-4.689c4.334,5.06,13,3.8,14.982,3.426a14.823,14.823,0,0,1-.347-3.516,23.612,23.612,0,0,1,1.387-7.4l-14.652-2.749-1.362,10.244Z" transform="translate(-272.99 -191.04)" fill="#002346"/>
      </g>
      <g id="Group_84" data-name="Group 84" transform="translate(295.437 470.182)">
        <path id="Path_78" data-name="Path 78" d="M623.4,632.3s-32.044.644-32.927,0c-3.979-2.873,4.375-8.651,4.375-8.651,4.342-3.624,3-7.074,3-7.074v-.124a7.33,7.33,0,0,0,2.4,0s1.973.066,4.953.438a61.4,61.4,0,0,1,14.578,3.459,6.3,6.3,0,0,0,2,.924v.1c3.525,4.284,1.618,10.929,1.618,10.929Z" transform="translate(-588.979 -615.963)" fill="#fbe493"/>
        <path id="Path_79" data-name="Path 79" d="M600.2,632.9c-5.473,0-9.683-.091-10.062-.372a2.7,2.7,0,0,1-1.246-2.278c.033-3.137,5.4-6.884,5.63-7.041,4.012-3.351,2.906-6.455,2.856-6.587l-.025-.149v-.611l.479.083a6.5,6.5,0,0,0,2.262,0h.083c.017,0,2.022.074,4.986.438a61.462,61.462,0,0,1,14.668,3.483l.091.05a6.011,6.011,0,0,0,1.866.867l.305.083v.272c3.492,4.4,1.684,10.912,1.6,11.185l-.083.289H623.3c-5.613.115-15.568.3-23.121.3Zm-1.915-16.063c.223,1.147.322,4.036-3.261,7.033-1.486,1.032-5.275,4.144-5.3,6.4a1.9,1.9,0,0,0,.9,1.6c1.1.388,19.844.173,32.366-.074.305-1.3,1.321-6.694-1.61-10.26l-.025-.033a6.488,6.488,0,0,1-1.849-.892,60.637,60.637,0,0,0-14.429-3.417c-2.7-.338-4.589-.421-4.878-.437a7.382,7.382,0,0,1-1.907.066Z" transform="translate(-588.89 -615.86)" fill="#002346"/>
      </g>
      <g id="Group_85" data-name="Group 85" transform="translate(208.516 469.794)">
        <path id="Path_80" data-name="Path 80" d="M484.172,631.518s-1.816-10.137,11.556-11.944c0,0,11.936-1.453,13.389-3.624l27.108,5.621a33.139,33.139,0,0,1,.4,9.905l-52.449.041Z" transform="translate(-483.676 -615.488)" fill="#fbe493"/>
        <path id="Path_81" data-name="Path 81" d="M483.738,631.833l-.058-.338a10.312,10.312,0,0,1,1.833-7.347c2-2.74,5.382-4.449,10.07-5.085,4.73-.578,12.109-1.965,13.1-3.442l.157-.231,27.644,5.737.05.264a32.9,32.9,0,0,1,.4,10.054l-.058.347-53.143.041Zm25.449-15.527c-2.055,2.13-12.3,3.434-13.5,3.582-4.449.6-7.644,2.2-9.5,4.738a9.6,9.6,0,0,0-1.733,6.381l51.731-.041a32.994,32.994,0,0,0-.4-9.146l-26.6-5.514Z" transform="translate(-483.588 -615.39)" fill="#002346"/>
      </g>
      <g id="Group_86" data-name="Group 86" transform="translate(233.409 211.444)">
        <path id="Path_82" data-name="Path 82" d="M635.992,317.59s-9.476,93.54-11.639,142.745-9.74,98.418-9.74,98.418c-.7,7.735-3.838,8.337-5.96,7.8a6.3,6.3,0,0,1-2-.924,61.332,61.332,0,0,0-14.6-3.533c-2.972-.371-4.953-.437-4.953-.437a7.334,7.334,0,0,1-2.4,0c-7.264-1.189-1.213-16.327-1.213-16.327a15.015,15.015,0,0,0,2.4-9.682c-.14-1.948-.239-3.9-.231-5.852l.049-24.962h0l.272-129.885L564.293,476.638a314.652,314.652,0,0,1-6.075,31.037c-3.525,13.884-6.934,22.089-8.774,25.952a21.974,21.974,0,0,0-1.849,5.795c-1.519,9.055-3.9,9.955-3.9,9.955-4.705,5.423-1.808,13.389-1.808,13.389,1.321,12.588-13.546,6.736-21.808,2.559-3.145-1.577-5.324-2.922-5.324-2.922-1.453-5.06,1.8-14.858,1.8-14.858,2.9-4.705-.718-6.876-.718-6.876-3.987-2.526.718-13.026.718-13.026C520.528,515.706,531,444.784,531,444.784c7.1-36.5,14.033-107.218,15.94-126.979.322-3.36.5-5.242.5-5.242l45.4-9.633L635.992,317.6Z" transform="translate(-513.829 -302.501)" fill="#f69074"/>
        <path id="Path_83" data-name="Path 83" d="M535.723,570.715c-4.639,0-10.879-2.567-15.915-5.118-3.12-1.568-5.332-2.922-5.357-2.939l-.132-.083-.041-.157c-1.469-5.126,1.667-14.7,1.808-15.106l.041-.083a5.406,5.406,0,0,0,.958-4.094,3.8,3.8,0,0,0-1.544-2.212c-4.251-2.691.355-13.108.553-13.546,3.9-11.73,14.313-82.042,14.421-82.752,6.364-32.721,12.72-93.59,15.94-126.954.322-3.36.5-5.242.5-5.242l.025-.305,45.8-9.716.107.033,43.468,14.776-.033.33c-.091.933-9.5,94.093-11.639,142.721-2.138,48.669-9.666,97.973-9.749,98.46-.347,3.863-1.362,6.43-3,7.586a4.123,4.123,0,0,1-3.467.553,6.668,6.668,0,0,1-2.088-.958,60.98,60.98,0,0,0-14.454-3.492c-2.691-.338-4.581-.421-4.878-.437a7.7,7.7,0,0,1-2.5,0,4.119,4.119,0,0,1-3.071-2.1c-2.526-4.474,1.378-14.371,1.544-14.792l.05-.083a14.747,14.747,0,0,0,2.328-9.418c-.165-2.353-.239-4.169-.239-5.885l.314-150.893-20.859,97.824c-1.494,10.376-3.541,20.834-6.075,31.053-3.574,14.082-7.049,22.353-8.807,26.035a21.414,21.414,0,0,0-1.816,5.687c-1.387,8.263-3.5,9.922-4.053,10.219-4.408,5.176-1.7,12.836-1.676,12.91l.025.1c.355,3.36-.4,5.7-2.254,6.983a7.376,7.376,0,0,1-4.243,1.106Zm-20.694-8.675c.528.314,2.5,1.494,5.151,2.823,5.431,2.749,15.172,6.926,19.316,4.069,1.568-1.081,2.212-3.161,1.907-6.166-.264-.751-2.765-8.37,1.9-13.752l.066-.083.1-.033s2.2-1.09,3.64-9.633a22.148,22.148,0,0,1,1.89-5.9c1.742-3.648,5.192-11.87,8.75-25.878a314.247,314.247,0,0,0,6.067-31l22.518-105.583-.33,158.8c0,1.692.066,3.492.231,5.828a15.57,15.57,0,0,1-2.452,9.914c-.281.726-3.83,10.037-1.577,14.033a3.31,3.31,0,0,0,2.485,1.692,6.5,6.5,0,0,0,2.262,0h.082c.017,0,2.031.074,4.994.438a61.707,61.707,0,0,1,14.693,3.558l.091.049a6.012,6.012,0,0,0,1.866.867,3.254,3.254,0,0,0,2.782-.421c1.436-1.015,2.328-3.376,2.658-7.016.083-.52,7.6-49.783,9.74-98.4,2.072-47.2,10.995-136.307,11.606-142.44l-42.734-14.528-45,9.542c-.058.66-.223,2.361-.471,4.944-3.219,33.39-9.575,94.283-15.948,127.021-.1.693-10.525,71.08-14.47,82.908-1.279,2.873-3.913,10.632-.891,12.547a4.654,4.654,0,0,1,1.907,2.708,6.164,6.164,0,0,1-1.032,4.688c-.231.71-3.07,9.666-1.824,14.412Z" transform="translate(-513.745 -302.41)" fill="#002346"/>
      </g>
      <g id="Group_87" data-name="Group 87" transform="translate(191.441 80.808)">
        <path id="Path_84" data-name="Path 84" d="M657.786,261.909c-3.409,3.3-9.765,3.624-9.765,3.624-12.307,1.09-17.731,1.453-17.731,1.453l1.09,14.858c1.453,21.346-61.868,14.487-61.868,14.487-14.478,0-29.312-9.765-29.312-9.765-5.7-2.988-4.078-11.243-2.906-15.188a36.141,36.141,0,0,0,1.255-5.753c2.245-17.731-1.255-30.765-1.255-30.765a72,72,0,0,1-15.2,24.953c-1.8,1.478-4.424,2.1-7.569,2.08-15.362-.074-43.32-15.2-50.443-19.192a1.35,1.35,0,0,1-.512-1.832,1.533,1.533,0,0,1,.272-.338c5.291-4.911,6.926-12.547,7.429-15.915a1.339,1.339,0,0,1,1.51-1.139,1.285,1.285,0,0,1,.305.083l13.207,5.151c10.855-2.9,13.026.355,13.026.355,5.423,4.705,8.321,1.808,8.321,1.808,3.979-17.334,24.953-70.56,24.953-70.56,6.5-18.094,36.9-15.568,36.9-15.568l31.12,2.163a138.354,138.354,0,0,0,15.56,2.526c22.791,2.889,28.594,28.577,28.594,28.577,8.684,19.538,17.334,55.718,17.334,55.718C666.833,255.033,657.786,261.909,657.786,261.909Z" transform="translate(-462.99 -144.233)" fill="#fbe493"/>
        <path id="Path_85" data-name="Path 85" d="M590.961,297.742c-11.292,0-20.727-.991-21.577-1.081h0c-14.388,0-29.337-9.732-29.493-9.831-6.026-3.153-4.16-11.994-3.079-15.651a36.216,36.216,0,0,0,1.247-5.687,91.476,91.476,0,0,0-.933-29.271,71.829,71.829,0,0,1-14.809,23.79c-1.816,1.494-4.433,2.254-7.875,2.212-15.287-.074-42.626-14.751-50.641-19.241a1.748,1.748,0,0,1-.669-2.394,1.653,1.653,0,0,1,.355-.437c5.01-4.647,6.719-11.812,7.3-15.667a1.731,1.731,0,0,1,.677-1.147,1.773,1.773,0,0,1,1.3-.338,1.557,1.557,0,0,1,.4.107l13.083,5.1c10.269-2.716,12.951.058,13.306.5,4.59,3.962,7.157,2.27,7.644,1.874,4.012-17.3,24.731-69.957,24.945-70.494,6.529-18.168,37.013-15.857,37.319-15.832l31.111,2.163a138.307,138.307,0,0,0,15.576,2.526c22.824,2.889,28.891,28.635,28.957,28.9,8.576,19.274,17.244,55.355,17.334,55.71,4.672,21.024-3.847,28.123-4.449,28.585-3.483,3.36-9.749,3.706-10.013,3.723-10.293.908-15.824,1.321-17.31,1.42l1.057,14.445a9.64,9.64,0,0,1-3.137,7.891c-6.876,6.6-23.649,8.122-37.608,8.122Zm-53.7-64.352.347,1.279a89.181,89.181,0,0,1,1.263,30.921,36.719,36.719,0,0,1-1.271,5.819c-1.024,3.459-2.815,11.812,2.7,14.7.182.116,14.941,9.716,29.122,9.716.5.05,46.415,4.878,58.574-6.81a8.869,8.869,0,0,0,2.889-7.239l-1.123-15.271.413-.025c.058,0,5.564-.371,17.722-1.453.074,0,6.257-.355,9.518-3.508l.033-.033c.091-.066,8.775-7.008,4.169-27.76-.083-.355-8.742-36.361-17.31-55.644-.083-.33-6.034-25.515-28.272-28.338a139.248,139.248,0,0,1-15.618-2.534l-31.045-2.146c-.305-.025-30.162-2.287-36.477,15.3-.215.545-21.016,53.407-24.937,70.51l-.025.116-.083.083c-.132.132-3.236,3.112-8.882-1.791l-.074-.083s-2.253-2.939-12.58-.182l-.132.033-13.331-5.2a.915.915,0,0,0-.215-.058.958.958,0,0,0-.685.173.943.943,0,0,0-.363.611c-.594,3.97-2.361,11.333-7.561,16.162a.868.868,0,0,0-.19.239.928.928,0,0,0,.347,1.271c7.974,4.474,35.156,19.068,50.245,19.142h.115c3.162,0,5.58-.669,7.19-1.989a71.246,71.246,0,0,0,15.073-24.772l.446-1.246Z" transform="translate(-462.903 -144.15)" fill="#002346"/>
      </g>
      <g id="Group_88" data-name="Group 88" transform="translate(296.519 486.105)">
        <rect id="Rectangle_68" data-name="Rectangle 68" width="32.927" height="2.171" transform="translate(0.413 0.413)" fill="#fff"/>
        <path id="Path_86" data-name="Path 86" d="M623.953,638.146H590.2v-3h33.753Zm-32.927-.826h32.1v-1.345h-32.1Z" transform="translate(-590.2 -635.15)" fill="#002346"/>
      </g>
      <g id="Group_89" data-name="Group 89" transform="translate(208.6 485.403)">
        <rect id="Rectangle_69" data-name="Rectangle 69" width="52.466" height="2.897" transform="translate(0.413 0.413)" fill="#fff"/>
        <path id="Path_87" data-name="Path 87" d="M536.981,638.023H483.69V634.3h53.291Zm-52.466-.825h51.64v-2.072h-51.64Z" transform="translate(-483.69 -634.3)" fill="#002346"/>
      </g>
      <g id="Group_90" data-name="Group 90" transform="translate(291.877 175.122)">
        <path id="Path_88" data-name="Path 88" d="M626.523,280.028l-14.809,5.514a17.044,17.044,0,0,1-6.1.289,20.575,20.575,0,0,1-8.015-2.823c-5.06-2.171-4.705-4.705-4.705-4.705-2.889-1.445-3.252-5.778-3.252-5.778a11.107,11.107,0,0,1-4.383-4.705,1.587,1.587,0,0,1,.132-1.742c1.453-1.667,5.324,1.379,5.324,1.379a16.278,16.278,0,0,0,8.874,2.608,6.223,6.223,0,0,0,3.351-.908l5.143-3.137c3.979-2.9-.363-2.534-.363-2.534-4.68.611-6.6.19-7.429-.289a1.057,1.057,0,0,1-.38-1.337c1.544-3.3,12.068-3.029,16.039-2.823a7.038,7.038,0,0,1,2.8.759l9.08,4.672c.512,7.627-.314,9.278-1.3,15.568Z" transform="translate(-584.661 -258.497)" fill="#f2b3c1"/>
        <path id="Path_89" data-name="Path 89" d="M607.783,286.31a16.613,16.613,0,0,1-2.3-.157,20.931,20.931,0,0,1-8.172-2.881c-4.292-1.833-4.854-4.02-4.9-4.812-2.518-1.436-3.112-4.87-3.227-5.778a11.46,11.46,0,0,1-4.367-4.779,2,2,0,0,1,.2-2.2c1.659-1.907,5.465.991,5.885,1.329a15.675,15.675,0,0,0,8.626,2.518,5.73,5.73,0,0,0,3.128-.85l5.143-3.137c1.544-1.123,1.478-1.535,1.478-1.535-.058-.157-.817-.3-1.593-.231-3.822.5-6.414.388-7.668-.347a1.485,1.485,0,0,1-.545-1.874c1.552-3.327,10.962-3.343,16.435-3.062a7.409,7.409,0,0,1,2.963.8l9.286,4.779.016.231a39.657,39.657,0,0,1-.7,12.118c-.19,1.032-.4,2.179-.611,3.541l-.041.239-15.031,5.6a17.413,17.413,0,0,1-4,.462Zm-21.264-20.4a1.1,1.1,0,0,0-.891.355,1.175,1.175,0,0,0-.074,1.288,10.666,10.666,0,0,0,4.226,4.532l.182.107.016.215s.38,4.119,3.029,5.44l.264.132-.041.3s-.19,2.27,4.457,4.268a20.1,20.1,0,0,0,7.908,2.79,16.6,16.6,0,0,0,5.952-.281l14.536-5.415c.206-1.271.4-2.344.578-3.327a38.882,38.882,0,0,0,.7-11.68l-8.874-4.565a6.666,6.666,0,0,0-2.633-.718c-8.824-.462-14.668.512-15.642,2.584a.641.641,0,0,0,.231.817c.735.429,2.592.817,7.148.223.5-.041,2.13-.107,2.452.768.248.652-.314,1.428-1.791,2.509l-5.167,3.161a6.53,6.53,0,0,1-3.574.974,16.59,16.59,0,0,1-9.1-2.683c-.735-.578-2.617-1.8-3.88-1.8Z" transform="translate(-584.577 -258.407)" fill="#002346"/>
      </g>
      <g id="Group_91" data-name="Group 91" transform="translate(3.655 293.841)">
        <path id="Path_90" data-name="Path 90" d="M253.752,422.354c-1.948,1.94-1.973,5.167-1.874,6.562a.438.438,0,0,1-.413.446.421.421,0,0,1-.239-.066,6.018,6.018,0,0,1-1.791-3.1.256.256,0,0,0-.5.05c-.487,5.39-1.692,4.788-1.692,4.788-2.534.363-2.9-5.423-2.9-5.423-2.9-1.09-2.9-3.26-2.9-3.26a5.977,5.977,0,0,1-2.9-4.705c-3.616-1.808-2.427-14.3-2.427-14.3v-.124c3.351,2.476,12.927,9.08,20.1,10.112a20.413,20.413,0,0,1-2.468,9.022Z" transform="translate(-235.499 -402.403)" fill="#f2b3c1"/>
        <path id="Path_91" data-name="Path 91" d="M247.255,431.3a.386.386,0,0,1-.14-.017,1.886,1.886,0,0,1-1.4-.437c-1.379-1.123-1.766-4.193-1.857-5.118a4.273,4.273,0,0,1-2.9-3.31,6.4,6.4,0,0,1-2.9-4.7c-3.516-2.2-2.567-13.315-2.443-14.594v-.9l.652.487c2.823,2.088,12.613,8.989,19.91,10.037l.363.05-.017.371a20.9,20.9,0,0,1-2.518,9.2l-.074.1c-1.849,1.841-1.841,4.977-1.75,6.24a.85.85,0,0,1-.817.883.86.86,0,0,1-.462-.124,6.459,6.459,0,0,1-1.75-2.575c-.289,2.485-.776,3.888-1.494,4.284a.878.878,0,0,1-.421.116Zm-10.871-27.479c-.289,3.814-.347,11.986,2.253,13.29l.206.107.017.231a5.575,5.575,0,0,0,2.7,4.383l.2.124v.231c0,.074.058,1.907,2.633,2.873l.248.091.017.264c.066,1.032.479,3.9,1.577,4.8a1.055,1.055,0,0,0,.85.248l.132-.016.05.025c.124-.066.817-.611,1.156-4.424a.649.649,0,0,1,.5-.594.669.669,0,0,1,.5.074.646.646,0,0,1,.305.413,5.6,5.6,0,0,0,1.667,2.889c-.14-1.412-.14-4.8,1.915-6.884a20.206,20.206,0,0,0,2.377-8.42c-6.975-1.172-15.906-7.223-19.316-9.691ZM249.244,426.1v0Z" transform="translate(-235.407 -402.23)" fill="#002346"/>
      </g>
      <g id="Group_92" data-name="Group 92" transform="translate(22.149 467.569)">
        <path id="Path_92" data-name="Path 92" d="M260.638,630.9a2.545,2.545,0,0,1-1.907-.9c-.553-.677-.784-1.733.784-3.1,0,0,1.808-1.09,0-3.3,0,0-2.006-6.257,3.36-9.2a9.3,9.3,0,0,1,8.9-.124,9.576,9.576,0,0,1,4.746,6.785V628.3s2.534,3.252-3.979,2.889Z" transform="translate(-257.9 -612.783)" fill="#f69074"/>
        <path id="Path_93" data-name="Path 93" d="M273.42,631.544c-.314,0-.644-.008-.991-.033l-11.886-.289a2.979,2.979,0,0,1-2.212-1.048c-.528-.652-1.123-1.981.825-3.682a1.462,1.462,0,0,0,.644-.941,2.371,2.371,0,0,0-.693-1.791l-.074-.132c-.025-.066-2.047-6.62,3.558-9.683a9.664,9.664,0,0,1,9.286-.124,9.991,9.991,0,0,1,4.953,7.066v.091l.008,7.107a2.248,2.248,0,0,1,.305,2.171c-.454.867-1.676,1.3-3.731,1.3Zm-13.62-8.23a3.084,3.084,0,0,1,.817,2.4,2.231,2.231,0,0,1-.974,1.453c-1.577,1.387-.9,2.221-.677,2.493a2.14,2.14,0,0,0,1.593.751h0l11.9.289c2.988.165,3.756-.446,3.954-.826.305-.578-.305-1.395-.314-1.4l-.091-.116v-7.338a9.226,9.226,0,0,0-4.532-6.472,8.861,8.861,0,0,0-8.5.124c-4.763,2.608-3.4,7.933-3.194,8.642Z" transform="translate(-257.812 -612.694)" fill="#002346"/>
      </g>
      <g id="Group_93" data-name="Group 93" transform="translate(42.618 468.501)">
        <path id="Path_94" data-name="Path 94" d="M320.983,633.946l-37.269.372-.363-3.615s-.049-.644-.1-1.651c-.2-3.962-.471-13.678,1.544-14.255a4.067,4.067,0,0,1,1.742.982,10.306,10.306,0,0,1,1.907,2.2,5.919,5.919,0,0,0,2.9,2.369c1.651.611,3.805.727,5.027-1.932,0,0,.925-2.939,2.369-3.847a1.533,1.533,0,0,1,1.973.223s5.068,7.966,13.034,11.936c0,0,5.143.776,6.76,4.7A6.607,6.607,0,0,1,320.983,633.946Z" transform="translate(-282.698 -613.908)" fill="#f69074"/>
        <path id="Path_95" data-name="Path 95" d="M283.254,634.655l-.4-3.987s-.049-.66-.1-1.676c-.462-9.253.157-14.19,1.841-14.668l.107-.033.107.033a4.516,4.516,0,0,1,1.915,1.081,10.571,10.571,0,0,1,1.965,2.27,5.633,5.633,0,0,0,2.7,2.212c2.1.776,3.624.206,4.507-1.717.025-.074.966-3.046,2.526-4.02a1.939,1.939,0,0,1,2.493.289c.1.14,5.126,7.941,12.861,11.82.652.107,5.407,1.048,7.016,4.936a7.142,7.142,0,0,1,.512,2.683v.4l-38.053.38Zm1.478-19.505c-.908.52-1.6,4.92-1.156,13.8.05,1,.1,1.634.1,1.643l.322,3.227,36.477-.363a6.457,6.457,0,0,0-.437-1.965c-1.511-3.648-6.389-4.433-6.438-4.441l-.124-.041c-7.974-3.979-13.149-12-13.2-12.085a1.122,1.122,0,0,0-1.395-.1c-1.3.826-2.2,3.6-2.2,3.632-1.081,2.361-3.054,3.12-5.564,2.2a6.412,6.412,0,0,1-3.1-2.534,9.912,9.912,0,0,0-1.833-2.1,3.76,3.76,0,0,0-1.445-.858Z" transform="translate(-282.61 -613.824)" fill="#002346"/>
      </g>
      <g id="Group_94" data-name="Group 94" transform="translate(42.734 482.952)">
        <path id="Path_96" data-name="Path 96" d="M321.011,637.065l-37.269.372-.363-3.615s-.05-.644-.1-1.651A35.379,35.379,0,0,0,296.768,636s17.714,1.238,23.765-1.461A6.607,6.607,0,0,1,321.011,637.065Z" transform="translate(-282.842 -631.477)" fill="#fff"/>
        <path id="Path_97" data-name="Path 97" d="M283.278,637.711l-.4-3.987s-.05-.66-.1-1.676l-.033-.718.636.33a35.053,35.053,0,0,0,13.331,3.789c.173.008,17.681,1.2,23.567-1.428l.4-.173.157.4a7.11,7.11,0,0,1,.512,2.683v.4l-38.053.38Zm.363-4.994c.033.578.058.924.058.933l.322,3.227,36.477-.363a6.348,6.348,0,0,0-.3-1.568c-6.4,2.493-22.84,1.378-23.55,1.329a35.69,35.69,0,0,1-13.009-3.558Z" transform="translate(-282.75 -631.33)" fill="#002346"/>
      </g>
      <g id="Group_95" data-name="Group 95" transform="translate(122.381 152.441)">
        <path id="Path_98" data-name="Path 98" d="M379.77,250.56a49.709,49.709,0,0,0,9.765-11.218l5.431-7.6s2.889,3.3-1.808,10.855c0,0,.726,2.171,6.876-.363l16.377-8.2a1.546,1.546,0,0,1,1.766.289h0a1.534,1.534,0,0,1,0,2.163,1.416,1.416,0,0,1-.305.231l-9.724,5.72a.907.907,0,0,0-.33,1.238.689.689,0,0,0,.066.1h0a.912.912,0,0,0,1.164.256l9.46-5.027a1.737,1.737,0,0,1,2.278.611h0a1.724,1.724,0,0,1-.545,2.377c-.025.017-.041.025-.066.041l-10.236,5.852a1.156,1.156,0,0,0-.5,1.42h0a1.144,1.144,0,0,0,1.3.693l13.372-2.74a1.656,1.656,0,0,1,1.965,1.263h0a1.65,1.65,0,0,1-1.23,1.981.194.194,0,0,0-.066.016l-15.238,3.112a1.035,1.035,0,0,0-.825,1.015h0a1.023,1.023,0,0,0,.966,1.024l8.626.561a1.311,1.311,0,0,1,1.222,1.4.92.92,0,0,1-.041.256h0a1.31,1.31,0,0,1-1.279.949c-3.434,0-14.7,0-17.45,1.832a13.178,13.178,0,0,1-7.239,1.808s-3.615.363-3.979,2.534l-7.941-3.2-1.832-11.251Z" transform="translate(-379.333 -231.071)" fill="#f2b3c1"/>
        <path id="Path_99" data-name="Path 99" d="M389.781,265.45l-8.634-3.483-1.907-11.713.173-.149a49.073,49.073,0,0,0,9.683-11.127l5.745-8.048.347.4c.124.14,2.98,3.549-1.626,11.119.33.338,1.667,1.139,6.232-.743l16.352-8.188a1.971,1.971,0,0,1,2.237.363,1.934,1.934,0,0,1-.388,3.046l-9.724,5.72a.493.493,0,0,0-.182.677.518.518,0,0,0,.677.2l9.46-5.027a2.16,2.16,0,0,1,2.823.759,2.091,2.091,0,0,1,.272,1.61,2.122,2.122,0,0,1-.949,1.337l-.091.05L410.054,248.1a.728.728,0,0,0,.512,1.345l13.372-2.74a2.082,2.082,0,0,1,.916,4.061l-.083.017-15.23,3.112a.62.62,0,0,0-.5.611.609.609,0,0,0,.578.611l8.626.561a1.732,1.732,0,0,1,1.61,1.832,1.212,1.212,0,0,1-.058.338,1.678,1.678,0,0,1-1.684,1.255c-9.666,0-15.461.594-17.219,1.766a13.548,13.548,0,0,1-7.47,1.874c.008,0-3.269.355-3.574,2.187l-.083.5Zm-7.891-4.078,7.3,2.947c.792-2.022,4.061-2.377,4.21-2.394a12.925,12.925,0,0,0,7.041-1.733c2.864-1.907,14.024-1.907,17.689-1.907h.016a.894.894,0,0,0,.867-.652.532.532,0,0,0,.025-.165.9.9,0,0,0-.842-.958l-8.626-.561a1.438,1.438,0,0,1-1.354-1.436,1.457,1.457,0,0,1,1.156-1.42l15.238-3.112a1.259,1.259,0,0,0-.5-2.468l-13.381,2.741a1.551,1.551,0,0,1-1.758-.941,1.571,1.571,0,0,1,.669-1.932l10.236-5.852a1.366,1.366,0,0,0,.636-.85,1.313,1.313,0,0,0-1.9-1.453l-9.46,5.027a1.335,1.335,0,0,1-1.692-.371,1.252,1.252,0,0,1-.091-.132,1.331,1.331,0,0,1,.479-1.808l9.724-5.72a1.151,1.151,0,0,0,.223-.173,1.106,1.106,0,0,0,0-1.577,1.141,1.141,0,0,0-1.3-.206l-16.369,8.2c-3.046,1.255-5.242,1.585-6.554.982a1.623,1.623,0,0,1-.9-.858l-.058-.182.1-.165c3.475-5.588,2.666-8.75,2.13-9.889l-5.068,7.091a50.16,50.16,0,0,1-9.658,11.144l1.758,10.789Z" transform="translate(-379.24 -230.93)" fill="#002346"/>
      </g>
      <g id="Group_96" data-name="Group 96" transform="translate(297.492 54.188)">
        <path id="Path_100" data-name="Path 100" d="M591.9,126.462v12.671s-1.081,14.858,15.2,15.188c0,0,13.026-1.09,15.915-13.026a7.827,7.827,0,0,1-4.705-7.239l-.743-21.346Z" transform="translate(-591.467 -112.041)" fill="#f2b3c1"/>
        <path id="Path_101" data-name="Path 101" d="M607.047,154.592c-5.217-.1-9.212-1.659-11.911-4.631-4.152-4.557-3.756-10.739-3.739-11V126.081L617.869,111.9l.768,22.007a7.407,7.407,0,0,0,4.458,6.876l.322.14-.083.338c-2.922,12.085-16.146,13.331-16.278,13.339Zm-14.825-28.024v12.423c0,.091-.388,6.125,3.525,10.417,2.551,2.79,6.339,4.259,11.276,4.358.083-.008,12.481-1.189,15.419-12.382a8.2,8.2,0,0,1-4.631-7.47l-.718-20.669-24.871,13.323Z" transform="translate(-591.379 -111.9)" fill="#002346"/>
      </g>
      <g id="Group_97" data-name="Group 97" transform="translate(286.638 13.196)">
        <path id="Path_102" data-name="Path 102" d="M596.652,62.74h0a17.917,17.917,0,0,1,17.912,17.912v24.235A17.917,17.917,0,0,1,596.652,122.8h0a17.917,17.917,0,0,1-17.912-17.912V80.652A17.917,17.917,0,0,1,596.652,62.74Z" transform="translate(-578.319 -62.327)" fill="#f2b3c1"/>
        <path id="Path_103" data-name="Path 103" d="M596.555,123.125A18.347,18.347,0,0,1,578.23,104.8V80.565a18.325,18.325,0,0,1,36.65,0V104.8A18.347,18.347,0,0,1,596.555,123.125Zm0-60.06a17.519,17.519,0,0,0-17.5,17.5V104.8a17.5,17.5,0,0,0,35,0V80.565A17.519,17.519,0,0,0,596.555,63.065Z" transform="translate(-578.23 -62.24)" fill="#002346"/>
      </g>
      <g id="Group_98" data-name="Group 98" transform="translate(285.447 5.862)">
        <path id="Path_104" data-name="Path 104" d="M583.536,65.535s-7.239,0-6.15,5.778c0,0,5.431,10.855,30.393,2.526,0,0-2.171,9.41,1.453,14.115,0,0-2.575,6.983,3.6,8.015l7.982,5.01-4.705,6.868s.726,5.778,5.778,2.9c0,0,2.889-2.171,2.163-10.128,0,0,3.624-1.09.726-7.6,0,0,9.765-5.068,2.163-12.662,0,0,1.444-13.026-10.491-10.128,0,0-.363-11.556-11.218-7.594,0,0-3.624-12.671-13.389-7.6,0,0-2.9,1.453-2.171,6.521.017,0-5.415-2.485-6.133,3.987Z" transform="translate(-576.872 -53.439)" fill="#002346"/>
        <path id="Path_105" data-name="Path 105" d="M619.259,111.884a3.1,3.1,0,0,1-1.379-.314c-1.89-.949-2.245-3.632-2.262-3.748l-.017-.157,4.548-6.645L612.6,96.283a5,5,0,0,1-3.682-2.328c-1.288-2.22-.487-5.184-.223-6-2.988-4.127-1.965-11.292-1.535-13.57-24.442,7.933-29.989-2.5-30.22-2.955l-.033-.107a4.7,4.7,0,0,1,.85-4.036c1.51-1.824,4.334-2.154,5.341-2.212.5-3.45,2.369-4.334,3.88-4.457a6.8,6.8,0,0,1,2.138.248c-.421-4.755,2.352-6.207,2.476-6.265,2.691-1.4,5.2-1.618,7.446-.652,3.987,1.717,5.9,6.612,6.4,8.089,3.145-1.065,5.737-.933,7.693.4,2.872,1.948,3.5,5.836,3.632,7.223,3.3-.71,5.894-.256,7.718,1.345,3.153,2.774,2.914,8.032,2.823,9.138,2.212,2.262,3.162,4.548,2.815,6.785-.52,3.376-3.8,5.572-4.878,6.207,1.1,2.584,1.3,4.647.619,6.141a3.238,3.238,0,0,1-1.436,1.544c.644,7.85-2.229,10.1-2.353,10.2a5.731,5.731,0,0,1-2.8.883Zm-2.8-4.02c.1.528.512,2.328,1.791,2.963.867.429,1.989.256,3.351-.52h0s2.65-2.179,1.956-9.732l-.033-.338.322-.1a2.326,2.326,0,0,0,1.255-1.255c.413-.916.6-2.658-.784-5.778l-.157-.355.347-.182c.041-.025,4.235-2.245,4.779-5.795.314-2.014-.6-4.1-2.716-6.207l-.14-.14.025-.2c0-.058.6-5.869-2.534-8.626-1.692-1.486-4.2-1.849-7.446-1.057l-.5.124-.016-.5c0-.05-.2-4.961-3.31-7.058-1.816-1.222-4.292-1.279-7.355-.157l-.413.149-.124-.429c-.016-.058-1.808-6.141-6.067-7.974-2.006-.858-4.276-.652-6.736.627-.107.058-2.625,1.412-1.956,6.1l-.413.058-.19.363a4.567,4.567,0,0,0-3.624-.05c-1.057.578-1.692,1.824-1.9,3.715l-.041.363h-.372s-3.492.025-5.068,1.932a3.889,3.889,0,0,0-.685,3.294c.429.743,6.43,10.1,29.865,2.278l.7-.231-.165.718c-.025.091-2.088,9.278,1.378,13.769l.14.182-.074.215s-1.189,3.31.091,5.522a4.233,4.233,0,0,0,3.186,1.94l.148.058,8.345,5.242-4.854,7.082Z" transform="translate(-576.787 -53.356)" fill="#002346"/>
      </g>
      <g id="Group_99" data-name="Group 99" transform="translate(319.573 46.123)">
        <ellipse id="Ellipse_3" data-name="Ellipse 3" cx="4.705" cy="6.876" rx="4.705" ry="6.876" transform="translate(0.413 0.413)" fill="#f2b3c1"/>
        <path id="Path_106" data-name="Path 106" d="M623.248,116.707c-2.823,0-5.118-3.269-5.118-7.289s2.295-7.289,5.118-7.289,5.118,3.269,5.118,7.289S626.071,116.707,623.248,116.707Zm0-13.752c-2.369,0-4.292,2.9-4.292,6.463s1.923,6.463,4.292,6.463,4.292-2.9,4.292-6.463S625.617,102.955,623.248,102.955Z" transform="translate(-618.13 -102.13)" fill="#002346"/>
      </g>
      <g id="Group_100" data-name="Group 100" transform="translate(332.677 149.514)">
        <path id="Path_107" data-name="Path 107" d="M660.156,281.516c-7.429,1.593-18.6-.908-24-2.353-1.494-.4-1.94-1.973-1.486-3.467,2.171-7.181,2.361-13.405,1.5-17.962a4.127,4.127,0,0,1,3.294-4.821.3.3,0,0,0,.091-.017c5.233-.867,14.008-2.154,19.819-2.163A1.152,1.152,0,0,0,660.5,249.3l-5.365-21.429" transform="translate(-634.091 -227.469)" fill="#fbe493"/>
        <path id="Path_108" data-name="Path 108" d="M654.5,282.364c-6.587,0-14.058-1.684-18.54-2.881a2.49,2.49,0,0,1-1.585-1.213,3.6,3.6,0,0,1-.19-2.773c1.923-6.356,2.451-12.662,1.494-17.764a4.546,4.546,0,0,1,3.615-5.3l.1-.016c4.878-.8,13.942-2.154,19.885-2.171a.755.755,0,0,0,.594-.289.721.721,0,0,0,.132-.627L654.645,227.9a.413.413,0,0,1,.8-.206l5.365,21.429a1.57,1.57,0,0,1-1.527,1.948c-5.885.017-14.9,1.362-19.753,2.163l-.157-.388.074.4a3.721,3.721,0,0,0-2.963,4.342c.982,5.225.446,11.672-1.511,18.16a2.784,2.784,0,0,0,.116,2.13,1.667,1.667,0,0,0,1.073.817c4.647,1.246,16.27,3.962,23.806,2.344a.41.41,0,1,1,.173.8,27.168,27.168,0,0,1-5.646.528Z" transform="translate(-634.004 -227.384)" fill="#002346"/>
      </g>
      <g id="Group_101" data-name="Group 101" transform="translate(247.033 112.588)">
        <path id="Path_109" data-name="Path 109" d="M535.3,190.576l7.966,6.513a3.786,3.786,0,0,0,5.068,0s2.889-3.987,16.278-.371c0,0,55,11.928,66.936,2.476l24.887-15.684.083,1.213,3.021,7.264s-24.763,9.749-26.175,20.24c0,0,.726,6.876-9.765,7.6,0,0-32.564-3.607-59.7-14.1,0,0-16.649-6.868-17.013.726,0,0,1.2,9.831-3.442,7.33a4.756,4.756,0,0,1-2.055-2.278c-1.032-2.336-4.061-7.71-10.475-9.229l4.391-11.7Z" transform="translate(-530.365 -182.8)" fill="#f69074"/>
        <path id="Path_110" data-name="Path 110" d="M623.518,220.092c-.4-.041-33-3.731-59.878-14.123-.124-.05-11.21-4.573-15.139-2.072a2.849,2.849,0,0,0-1.312,2.435c.074.586.71,6.356-1.4,7.8a2.461,2.461,0,0,1-2.65-.124,5.176,5.176,0,0,1-2.237-2.476c-.974-2.2-3.921-7.5-10.194-8.989l-.454-.107L535,189.757l8.411,6.876a3.359,3.359,0,0,0,4.515.016c.437-.512,3.88-3.921,16.674-.471.528.116,54.925,11.771,66.573,2.551l25.506-16.08.124,1.832,3.153,7.586-.388.157c-.248.1-24.483,9.749-25.911,19.869a6.615,6.615,0,0,1-1.585,4.523c-1.709,2.031-4.589,3.2-8.568,3.483ZM551.885,202.32c5.01,0,11.7,2.724,12.06,2.873,26.769,10.351,59.267,14.033,59.589,14.074,3.665-.256,6.348-1.329,7.908-3.178a5.832,5.832,0,0,0,1.4-3.979v-.1c1.345-10,22.749-19.076,26.043-20.413L656,184.59l-.033-.52-24.3,15.312c-11.911,9.443-64.988-1.932-67.241-2.419-12.861-3.475-15.832.173-15.857.215l-.083.083a4.214,4.214,0,0,1-5.6-.041l-7.487-6.125-4.028,10.731c6.323,1.709,9.3,7.082,10.3,9.352a4.408,4.408,0,0,0,1.882,2.088c.759.413,1.345.471,1.783.165,1.445-.991,1.246-5.448,1.048-7.091a3.686,3.686,0,0,1,1.684-3.161,7.214,7.214,0,0,1,3.83-.867Z" transform="translate(-530.25 -182.65)" fill="#002346"/>
      </g>
      <g id="Group_102" data-name="Group 102" transform="translate(153.468 136.485)">
        <path id="Path_111" data-name="Path 111" d="M463.149,236.015s-.627,8.065-5.184,13.868c0,0-.363-1.808-5.068-1.808a11.377,11.377,0,0,1-1.981-.091,42.9,42.9,0,0,1-10.318-2.74,5.466,5.466,0,0,0-2.212-.355c-2.633.107-9.311.2-14.429-1.511,0,0-1.816-2.171,4.334-1.453l3.261-.248a1.145,1.145,0,0,0,1.048-1.23.723.723,0,0,0-.058-.264,1.128,1.128,0,0,0-1.073-.768h0c-2.6,0-10.392,0-10.392-1.832,0,0-1.09-1.808,3.616-1.808h7.974c.066,0,.091-.1.025-.116-2.344-.875-16.559-6.323-15.238-9.65,0,0,.363-2.171,6.513.718,0,0,7.957,2.9,11.218,1.808,0,0-13.752-6.5-12.671-9.4,0,0-.355-2.9,5.778,0,0,0,13.339,8.2,20.075,6.661a.866.866,0,0,0,.644-.809,8.211,8.211,0,0,0-1.9-5.5s-3.979-4.705,0-7.239a78.3,78.3,0,0,0,6.513,7.966,24.672,24.672,0,0,1,5.778,10.128s.52,3.83,3.079,5.349a4.981,4.981,0,0,0,.669.322Z" transform="translate(-416.982 -211.713)" fill="#f2b3c1"/>
        <path id="Path_112" data-name="Path 112" d="M457.661,250.735l-.173-.875s-.454-1.478-4.664-1.478a12.915,12.915,0,0,1-2.031-.091,43.236,43.236,0,0,1-10.417-2.765,5.039,5.039,0,0,0-2.039-.322c-3.335.132-9.641.116-14.577-1.535l-.107-.033-.074-.091a1.3,1.3,0,0,1-.223-1.395c.454-.842,2.014-1.073,4.92-.735l3.178-.248a.736.736,0,0,0,.669-.784.644.644,0,0,0-.033-.173.719.719,0,0,0-.677-.487h0c-7.4,0-10.648-.644-10.8-2.138a1.292,1.292,0,0,1,.041-1.139c.454-.8,1.75-1.189,3.979-1.189h6.084c-4.3-1.692-12.357-5.2-13.628-8.073a1.785,1.785,0,0,1-.083-1.4,1.322,1.322,0,0,1,.7-.809c1.147-.6,3.294-.173,6.381,1.279.041.016,6.191,2.237,9.724,2-3.681-1.816-12.555-6.521-11.771-9.27a1.524,1.524,0,0,1,.627-1.279c.991-.718,2.873-.4,5.745.958.173.1,13.323,8.114,19.811,6.628a.44.44,0,0,0,.322-.429,7.756,7.756,0,0,0-1.816-5.217c-.083-.091-2.187-2.617-1.808-5.093a3.9,3.9,0,0,1,1.915-2.741l.33-.206.231.322a78.179,78.179,0,0,0,6.48,7.924,25.187,25.187,0,0,1,5.877,10.293c.016.091.536,3.715,2.889,5.11a3.366,3.366,0,0,0,.6.289l.289.107-.025.305c-.025.338-.685,8.255-5.266,14.09l-.553.7Zm-4.854-3.178c3.261,0,4.59.842,5.126,1.478,3.632-4.969,4.54-11.416,4.7-12.861a4.43,4.43,0,0,1-.437-.231c-2.7-1.6-3.261-5.481-3.277-5.646a24.367,24.367,0,0,0-5.671-9.9,81.431,81.431,0,0,1-6.315-7.677,2.971,2.971,0,0,0-1.222,1.948c-.322,2.1,1.618,4.433,1.634,4.457a8.62,8.62,0,0,1,2,5.786,1.282,1.282,0,0,1-.966,1.189c-6.81,1.56-19.836-6.372-20.38-6.711-3.426-1.618-4.548-1.246-4.87-1.015a.709.709,0,0,0-.281.619v.1l-.025.091c-.652,1.75,6.893,6.249,12.464,8.882l.925.438-.974.322c-3.36,1.123-11.16-1.692-11.49-1.808-3.681-1.725-5.11-1.568-5.638-1.329a.574.574,0,0,0-.33.305,1.042,1.042,0,0,0,.041.858c1.081,2.435,8.725,6,14.941,8.321l.322.124-.025.4a.478.478,0,0,1-.471.388H424.61c-2.534,0-3.12.528-3.252.759a.425.425,0,0,0,0,.429l.05.091v.116c0,.33.726,1.42,9.98,1.42h0a1.545,1.545,0,0,1,1.461,1.048,1.355,1.355,0,0,1,.074.363,1.552,1.552,0,0,1-1.42,1.667l-3.261.248c-3.6-.413-4.111.182-4.177.305s.016.289.074.388c4.8,1.568,10.912,1.577,14.148,1.445a5.992,5.992,0,0,1,2.377.38,42.25,42.25,0,0,0,10.227,2.716,12.3,12.3,0,0,0,1.915.091Z" transform="translate(-416.9 -211.6)" fill="#002346"/>
      </g>
      <g id="Group_103" data-name="Group 103" transform="translate(31.574 79.124)">
        <path id="Path_113" data-name="Path 113" d="M284.925,190h0a14.965,14.965,0,0,1-15.2-14.726V157.8a15.176,15.176,0,0,1,15.164-15.2h.025a15.2,15.2,0,0,1,15.2,15.188h0V174.8A15.2,15.2,0,0,1,284.925,190Z" transform="translate(-269.315 -142.196)" fill="#f2b3c1"/>
        <path id="Path_114" data-name="Path 114" d="M284.6,190.333A15.394,15.394,0,0,1,269.23,175.2V157.719a15.606,15.606,0,0,1,15.576-15.609h.008a15.638,15.638,0,0,1,15.634,15.6v17.013a15.633,15.633,0,0,1-15.6,15.609H284.6Zm.239-47.4h0a14.789,14.789,0,0,0-14.776,14.784v17.475a14.581,14.581,0,0,0,14.784,14.313h0a14.8,14.8,0,0,0,14.776-14.784V157.711a14.8,14.8,0,0,0-14.784-14.776Z" transform="translate(-269.23 -142.11)" fill="#002346"/>
      </g>
      <g id="Group_104" data-name="Group 104" transform="translate(3.761 67.197)">
        <path id="Path_115" data-name="Path 115" d="M241.1,181.306s3.615,5.423-1.081,11.936c0,0-6.513,8.329-2.9,16.286,0,0,3.624-7.957,21.346-13.034a10.8,10.8,0,0,1,3.492-8.139,1.546,1.546,0,0,1,2.113.083,19.171,19.171,0,0,0,3.805,3.013s2.262-1.255,1.486-7.5a14.4,14.4,0,0,1-5.473-11.68l-.14-7.289a9.892,9.892,0,0,0,5.927-3.929l.363,3.3s8.783,0,9.385-9.691V153.9c-.083-2.13,0-13.752,7.578-9.476,0,0,6.868-.363,7.239,10.855l-.149,8.94s3.4,1.915,5.935-.256c0,0,1.172-35.973-14.478-30.748-1.09.363-15.923-14.858-39.077,6.158,0,0-18.639,15.271-5.374,41.933Z" transform="translate(-235.622 -127.759)" fill="#002346"/>
        <path id="Path_116" data-name="Path 116" d="M237.025,210.42l-.371-.817c-3.673-8.089,2.881-16.625,2.947-16.715,4.457-6.174,1.205-11.243,1.065-11.457l-.025-.041c-13.257-26.654,5.291-42.28,5.481-42.436,19.984-18.135,33.7-9.658,38.21-6.868a8.8,8.8,0,0,0,1.065.611,7.764,7.764,0,0,1,7.421.958c8.213,6.125,7.561,29.237,7.528,30.22v.182l-.14.116c-2.724,2.328-6.257.388-6.406.305l-.215-.124.149-9.187c-.14-4.119-1.172-7.107-3.071-8.865a5.578,5.578,0,0,0-3.731-1.568h-.116l-.107-.05c-1.733-.982-3.161-1.147-4.243-.487-2.386,1.453-2.831,6.711-2.724,9.583v.784c-.619,9.988-9.707,10.1-9.8,10.1h-.371L269.284,162a10.305,10.305,0,0,1-5.209,3.211l.132,6.959a14.083,14.083,0,0,0,5.316,11.366l.132.107.025.165c.8,6.447-1.593,7.85-1.692,7.908l-.206.116-.206-.124a19.7,19.7,0,0,1-3.888-3.079,1.136,1.136,0,0,0-1.552-.058,10.382,10.382,0,0,0-3.351,7.817v.314l-.3.091C241.2,201.744,237.438,209.52,237.4,209.6l-.38.817ZM241.367,181c.264.429,3.533,5.943-1.106,12.382-.066.091-5.91,7.71-3.17,15.106,1.378-2.13,6.4-8.2,20.876-12.407a11.223,11.223,0,0,1,3.624-8.131,1.957,1.957,0,0,1,2.683.1,19.2,19.2,0,0,0,3.475,2.8c.462-.454,1.676-2.13,1.131-6.777a14.9,14.9,0,0,1-5.5-11.911l-.149-7.611.33-.074a9.475,9.475,0,0,0,5.679-3.764l.627-.883.437,4c1.643-.124,8.1-1.114,8.6-9.286v-.743c-.033-.825-.223-8.271,3.12-10.31,1.329-.809,3-.669,4.977.421a6.444,6.444,0,0,1,4.193,1.775c2.08,1.907,3.211,5.1,3.36,9.484l-.14,8.7c.735.338,3.194,1.3,5.11-.2.049-2.237.3-23.756-7.2-29.345a7.011,7.011,0,0,0-6.736-.817c-.347.116-.71-.116-1.692-.718-4.375-2.707-17.7-10.945-37.236,6.793-.2.165-18.234,15.395-5.291,41.421Z" transform="translate(-235.536 -127.66)" fill="#002346"/>
      </g>
      <g id="Group_105" data-name="Group 105" transform="translate(23.236 100.834)">
        <ellipse id="Ellipse_4" data-name="Ellipse 4" cx="5.431" cy="5.605" rx="5.431" ry="5.605" transform="translate(0.413 0.413)" fill="#f2b3c1"/>
        <path id="Path_117" data-name="Path 117" d="M264.974,180.445a6.02,6.02,0,1,1,5.844-6.018A5.941,5.941,0,0,1,264.974,180.445Zm0-11.21a5.2,5.2,0,1,0,5.019,5.192A5.114,5.114,0,0,0,264.974,169.235Z" transform="translate(-259.13 -168.41)" fill="#002346"/>
      </g>
      <g id="Group_106" data-name="Group 106" transform="translate(1.029 126.955)">
        <path id="Path_118" data-name="Path 118" d="M337.1,305.067a11.279,11.279,0,0,1-4.127,3.681c-5.778,2.79-11.391-2.592-11.391-2.592,1.081,4.342,4.705,12.662,4.705,12.662,2.9,4.342,2.171,5.778,2.171,5.778-8.477,7.239-35.007,9.319-50.674,9.905-5.663.215-9.905.239-11.366.239h-.553l-1.8,37.624c-.916,4.953-4.243,6.2-8.354,5.613-7.173-1.015-16.748-7.652-20.1-10.112-.776-.57-1.222-.916-1.222-.916l1.032-23.913c2.171-18.457.355-41.273.355-41.273-1.816-12.307-2.542-31.846-2.542-31.846,1.081-13.026,0-31.838,0-31.838-4.705-22.436,24.6-28.957,24.6-28.957a9.986,9.986,0,0,1,2.476-7.041c1.733-2.7,3.145-1.032,3.145-1.032a21.227,21.227,0,0,0,3.814,3,18.469,18.469,0,0,0,8.8,3.153,16.12,16.12,0,0,0,6.983-.991c5.679-2.08,6.29,2.179,6.29,2.179,3.615,4.705,9.765,3.979,9.765,3.979,24.607,2.163,24.978,47.389,24.978,47.389.726,10.491,5.778,5.778,5.778,5.778,4.7-9.765,23.872-22.8,23.872-22.8,2.9,15.271,13.76,16.682,13.76,16.682,3.252,7.957-30.393,45.639-30.393,45.639Z" transform="translate(-232.312 -200.14)" fill="#f69074"/>
        <path id="Path_119" data-name="Path 119" d="M257.43,378.447a13.52,13.52,0,0,1-1.857-.14c-7.165-1.015-16.575-7.462-20.29-10.186-.784-.578-1.23-.925-1.23-.925l-.165-.132,1.04-24.128c2.146-18.234.371-40.992.355-41.223-1.8-12.159-2.534-31.664-2.542-31.862,1.065-12.894.008-31.64,0-31.829-4.457-21.239,21.4-28.495,24.6-29.3a10.272,10.272,0,0,1,2.567-6.975,3.11,3.11,0,0,1,2.237-1.684,2,2,0,0,1,1.544.652,21.474,21.474,0,0,0,3.715,2.922,18.168,18.168,0,0,0,8.618,3.1,15.681,15.681,0,0,0,6.8-.966c2.138-.784,3.855-.8,5.11-.05a3.829,3.829,0,0,1,1.709,2.443c3.442,4.383,9.27,3.748,9.328,3.739h.083c24.7,2.171,25.35,47.34,25.358,47.794.314,4.565,1.453,5.952,2.344,6.306,1.139.454,2.41-.545,2.683-.784,4.755-9.74,23.187-22.353,23.971-22.882l.52-.355.116.619c2.807,14.776,13.306,16.336,13.405,16.352l.239.033.091.223c3.3,8.073-28.825,44.228-30.451,46.052a11.827,11.827,0,0,1-4.259,3.789c-4.5,2.171-8.9-.388-10.838-1.824,1.337,4.441,4.309,11.284,4.342,11.358,2.914,4.35,2.245,5.96,2.163,6.133l-.1.124c-8.634,7.371-35.61,9.435-50.93,10-5.861.223-10.194.239-11.383.239h-.157l-1.783,37.228c-.751,4.094-3.1,6.141-6.967,6.141Zm-22.7-11.771c.2.149.553.421,1.04.784,3.665,2.691,12.935,9.047,19.91,10.038,4.532.644,7.115-1.081,7.891-5.283l1.808-37.962h.949c1.18,0,5.506-.016,11.35-.239,15.155-.57,41.8-2.584,50.336-9.732.058-.289.19-1.783-2.163-5.308a112.845,112.845,0,0,1-4.763-12.794l-.347-1.387,1.032.982c.058.05,5.481,5.143,10.929,2.518a10.959,10.959,0,0,0,3.962-3.541l.033-.041c11.449-12.828,32.349-38.532,30.393-45-1.659-.338-10.9-2.815-13.736-16.344-3.079,2.154-19.051,13.62-23.22,22.279l-.091.124c-.074.066-1.833,1.692-3.6.991-1.626-.644-2.592-3.013-2.873-7.049,0-.47-.652-44.855-24.565-47-.611.066-6.5.537-10.1-4.144l-.066-.083-.017-.107a3.051,3.051,0,0,0-1.345-1.973c-1.032-.611-2.509-.57-4.391.124a16.506,16.506,0,0,1-7.157,1.015,18.969,18.969,0,0,1-9-3.228,21.522,21.522,0,0,1-3.871-3.054,1.11,1.11,0,0,0-.891-.388c-.52.041-1.073.5-1.618,1.346l-.066.074a9.767,9.767,0,0,0-2.344,6.744v.33l-.322.074c-.289.066-28.85,6.694-24.285,28.47.017.248,1.081,19.051,0,31.953.008.149.751,19.6,2.542,31.755.025.256,1.8,23.1-.355,41.38l-1.024,23.666Z" transform="translate(-232.226 -200.055)" fill="#002346"/>
      </g>
      <path id="Path_120" data-name="Path 120" d="M552.833,249.031a.409.409,0,0,1-.413-.413V223.863a.413.413,0,1,1,.825,0v24.755A.409.409,0,0,1,552.833,249.031Z" transform="translate(-287.087 -77.183)" fill="#002346"/>
      <path id="Path_121" data-name="Path 121" d="M600.752,278.185a23.3,23.3,0,0,1-10.417-2.509.414.414,0,0,1,.4-.726,23.031,23.031,0,0,0,10.021,2.4.413.413,0,0,1,0,.825Z" transform="translate(-293.668 -86.164)" fill="#002346"/>
      <path id="Path_122" data-name="Path 122" d="M602.677,283.947c-5.811,0-8.288-1.205-8.395-1.263a.4.4,0,0,1-.182-.553.413.413,0,0,1,.553-.19c.025.008,2.443,1.172,8.023,1.172a.413.413,0,0,1,0,.825Z" transform="translate(-294.354 -87.386)" fill="#002346"/>
      <path id="Path_123" data-name="Path 123" d="M455.88,235.97a.409.409,0,0,1-.355-.206c-1.593-2.765-.537-7.28-.487-7.47a.411.411,0,0,1,.8.19c-.008.041-1.024,4.383.4,6.868a.415.415,0,0,1-.149.561.456.456,0,0,1-.206.058Z" transform="translate(-270.021 -77.974)" fill="#002346"/>
      <g id="Group_107" data-name="Group 107" transform="translate(305.148 243.566)">
        <line id="Line_1" data-name="Line 1" y1="39.911" x2="6.339" transform="translate(0.409 0.409)" fill="#fbe493"/>
        <path id="Path_124" data-name="Path 124" d="M601.072,382.057h-.066a.417.417,0,0,1-.347-.471l6.331-39.911a.422.422,0,0,1,.471-.347.417.417,0,0,1,.347.47l-6.331,39.911A.408.408,0,0,1,601.072,382.057Z" transform="translate(-600.655 -341.325)" fill="#002346"/>
      </g>
      <g id="Group_108" data-name="Group 108" transform="translate(236.438 454.667)">
        <path id="Path_125" data-name="Path 125" d="M517.91,597.55s3.376,2.336,13.281,3.987" transform="translate(-517.501 -597.149)" fill="#fbe493"/>
        <path id="Path_126" data-name="Path 126" d="M531.105,601.865h-.066c-9.881-1.651-13.306-3.954-13.447-4.053a.412.412,0,0,1-.107-.57.421.421,0,0,1,.578-.107c.033.025,3.45,2.311,13.116,3.921a.416.416,0,0,1-.066.825Z" transform="translate(-517.415 -597.065)" fill="#002346"/>
      </g>
      <path id="Path_127" data-name="Path 127" d="M391.912,249.749a.431.431,0,0,1-.347-.182.411.411,0,0,1,.116-.57,8.684,8.684,0,0,0,3.137-4.3.407.407,0,0,1,.512-.281.413.413,0,0,1,.281.512,9.309,9.309,0,0,1-3.467,4.755.379.379,0,0,1-.231.066Z" transform="translate(-258.998 -80.84)" fill="#002346"/>
      <path id="Path_128" data-name="Path 128" d="M284.029,218.744c-14.148,0-21.2-7.528-21.272-7.611a.415.415,0,0,1,.611-.561c.083.091,8.4,8.94,25.217,7.082a.411.411,0,1,1,.091.817,41.751,41.751,0,0,1-4.639.264Z" transform="translate(-236.508 -74.912)" fill="#002346"/>
      <path id="Path_129" data-name="Path 129" d="M271.655,346.795a.415.415,0,0,1-.413-.388,212.71,212.71,0,0,0-4.6-30.36c-.066-.182-1.866-5.514.413-13.843a69.344,69.344,0,0,0,2.518-14.957,124.945,124.945,0,0,0-.537-19.563.411.411,0,1,1,.817-.091,126.626,126.626,0,0,1,.545,19.7,69.913,69.913,0,0,1-2.542,15.131c-2.2,8.065-.437,13.339-.413,13.4a212.83,212.83,0,0,1,4.631,30.533.408.408,0,0,1-.38.438h-.033Z" transform="translate(-237.076 -84.825)" fill="#002346"/>
      <path id="Path_130" data-name="Path 130" d="M338.684,317.166a.414.414,0,0,1-.4-.33l-5.621-28.321a89.277,89.277,0,0,1-1.733-15.164c-.149-5.894.4-9.823,1.618-11.68a.4.4,0,0,1,.57-.116.411.411,0,0,1,.116.57c-1.114,1.692-1.626,5.572-1.486,11.21a89.3,89.3,0,0,0,1.717,15.023l5.621,28.321a.419.419,0,0,1-.322.487h-.083Z" transform="translate(-248.421 -83.822)" fill="#002346"/>
      <path id="Path_131" data-name="Path 131" d="M295.542,300.531a.414.414,0,0,1-.091-.817c13.273-2.972,15.221-15.807,15.238-15.939a.426.426,0,0,1,.462-.355.421.421,0,0,1,.355.462c-.017.132-2.031,13.529-15.882,16.633-.033,0-.058.008-.091.008Z" transform="translate(-242.177 -87.65)" fill="#002346"/>
      <path id="Path_132" data-name="Path 132" d="M286,565.181h-.033a.407.407,0,0,1-.38-.438l7.875-113.9a.414.414,0,0,1,.438-.38.407.407,0,0,1,.38.438l-7.875,113.9a.421.421,0,0,1-.413.388Z" transform="translate(-240.512 -116.808)" fill="#002346"/>
      <path id="Path_133" data-name="Path 133" d="M239.013,419.746a.409.409,0,0,1-.413-.413v-6.051a.413.413,0,0,1,.825,0v6.051A.409.409,0,0,1,239.013,419.746Z" transform="translate(-232.31 -110.246)" fill="#002346"/>
      <path id="Path_134" data-name="Path 134" d="M242.533,424.94a.409.409,0,0,1-.413-.413v-8.444a.413.413,0,0,1,.825,0v8.444A.409.409,0,0,1,242.533,424.94Z" transform="translate(-232.924 -110.735)" fill="#002346"/>
      <path id="Path_135" data-name="Path 135" d="M246.043,428.883a.409.409,0,0,1-.413-.413v-8.477a.413.413,0,0,1,.825,0v8.477A.409.409,0,0,1,246.043,428.883Z" transform="translate(-233.537 -111.418)" fill="#002346"/>
      <g id="Group_109" data-name="Group 109" transform="translate(287.059 8.325)">
        <ellipse id="Ellipse_5" data-name="Ellipse 5" cx="11.556" cy="9.08" rx="11.556" ry="9.08" transform="translate(0.413 0.413)" fill="#002346"/>
        <path id="Path_136" data-name="Path 136" d="M590.709,75.325c-6.6,0-11.969-4.259-11.969-9.493s5.366-9.493,11.969-9.493,11.969,4.259,11.969,9.493S597.313,75.325,590.709,75.325Zm0-18.16c-6.141,0-11.144,3.888-11.144,8.667s5,8.667,11.144,8.667,11.144-3.888,11.144-8.667S596.85,57.165,590.709,57.165Z" transform="translate(-578.74 -56.34)" fill="#002346"/>
      </g>
      <g id="Group_110" data-name="Group 110" transform="translate(301.095 0)">
        <ellipse id="Ellipse_6" data-name="Ellipse 6" cx="8.659" cy="16.113" rx="8.659" ry="16.113" transform="translate(0 14.998) rotate(-60)" fill="#002346"/>
        <path id="Path_137" data-name="Path 137" d="M622,74.076h-.479a27.219,27.219,0,0,1-20.034-11.565c-1.89-3.062-2.262-5.91-1.032-8.04,2.485-4.309,10.912-4.119,18.787.421a24.877,24.877,0,0,1,8.725,8.015c1.89,3.062,2.262,5.91,1.032,8.04-1.172,2.031-3.648,3.137-7,3.137ZM607.442,52.053c-2.947,0-5.275.916-6.348,2.774-1.081,1.882-.726,4.466,1.024,7.28a24.149,24.149,0,0,0,8.469,7.767,24.134,24.134,0,0,0,10.962,3.45c3.318.1,5.729-.875,6.818-2.757h0c1.081-1.882.726-4.466-1.024-7.28a24.149,24.149,0,0,0-8.469-7.767,23.838,23.838,0,0,0-11.424-3.467Z" transform="translate(-596.442 -47.145)" fill="#002346"/>
      </g>
    </g>
  </g>
</svg>
