<svg xmlns="http://www.w3.org/2000/svg" viewBox="0 0 64 64" id="hide"><path fill="#222" d="M44 45a2 2 0 0 0-.24-.26l-.7-.82-2.63-3-13.08-15a1.48 1.48 0 0 1-.24-.26l-2.78-3.18-2.63-3-1.35-1.58-.07-.09-.16-.18-8.2-9.41a2 2 0 1 0-3 2.62l6.68 7.66c-5.69 3.38-9.85 7.9-12.71 11-.34.37-.65.72-1 1l-.09.09-.09.11a1.09 1.09 0 0 0-.13.17 1.82 1.82 0 0 0-.16.31 2.78 2.78 0 0 0-.12.38 2 2 0 0 0 0 .8 2.78 2.78 0 0 0 .12.38 1.82 1.82 0 0 0 .16.31 1.09 1.09 0 0 0 .13.17l.09.11.09.09c.3.32.62.66 1 1C7.91 40 17.29 50.16 32 50.16a30.94 30.94 0 0 0 9.79-1.59l6.29 7.21a2 2 0 1 0 3-2.62Zm-12 3.27a16.25 16.25 0 0 1-13.07-25.93l2.71 3.11A12.25 12.25 0 0 0 32 44.27a12 12 0 0 0 5.07-1.12l1.83 2.1.89 1A16.27 16.27 0 0 1 32 48.27Zm13.58-7.43-.12.16a.6.6 0 0 0 .12-.16ZM40.65 29.1a2 2 0 0 0 .2-2.31 10.15 10.15 0 0 0-6.34-4.72 10.42 10.42 0 0 0-5.26 0l-1.43-1.64a11.94 11.94 0 0 1 4.18-.7 4 4 0 0 1 .49 0A12.26 12.26 0 0 1 44.27 32a11.51 11.51 0 0 1-.06 1.18 11.69 11.69 0 0 1-1.36 4.53L32.43 25.76a6.33 6.33 0 0 1 5 3.07 2 2 0 0 0 2.74.7 1.75 1.75 0 0 0 .48-.43ZM62.71 32a1.87 1.87 0 0 1 0 .4 2.78 2.78 0 0 1-.12.38 1.82 1.82 0 0 1-.16.31 1.09 1.09 0 0 1-.13.17l-.09.11-.09.09-.91 1a69.77 69.77 0 0 1-8.65 8.25A37.11 37.11 0 0 1 49.22 45l-2.67-3-.93-1.06A16 16 0 0 0 47.5 37a16.28 16.28 0 0 0-18.3-21 15.26 15.26 0 0 0-4.15 1.34l-1.84-2.12a25.3 25.3 0 0 1 4.41-1 29.9 29.9 0 0 1 4.38-.38c14.71 0 24.09 10.16 29.13 15.66.33.38.65.72.95 1a1.12 1.12 0 0 1 .18.2 1.09 1.09 0 0 1 .13.17v.05a2.1 2.1 0 0 1 .13.26 2.4 2.4 0 0 1 .12.38 1.81 1.81 0 0 1 .07.44Z" data-name="Hide"></path></svg>