<svg xmlns="http://www.w3.org/2000/svg" xmlns:xlink="http://www.w3.org/1999/xlink" width="161.65" height="122.248" viewBox="0 0 161.65 122.248">
  <defs>
    <linearGradient id="linear-gradient" y1="0.501" x2="1" y2="0.501" gradientUnits="objectBoundingBox">
      <stop offset="0" stop-color="#ff8e00"/>
      <stop offset="0" stop-color="#fba000"/>
      <stop offset="1" stop-color="#b87500"/>
    </linearGradient>
    <linearGradient id="linear-gradient-2" y1="0.5" x2="1" y2="0.5" gradientUnits="objectBoundingBox">
      <stop offset="0" stop-color="#f19d0e"/>
      <stop offset="1" stop-color="#f8930d"/>
    </linearGradient>
  </defs>
  <g id="id-card" transform="translate(0 -3.9)">
    <path id="Path_203" data-name="Path 203" d="M123.622,48.966H73.612a2.526,2.526,0,0,0,0,5.052h50.01a2.526,2.526,0,1,0,0-5.052Zm-16.67,13.639H74.117a2.526,2.526,0,0,0,0,5.052h32.835a2.526,2.526,0,0,0,0-5.052ZM71.086,21.688V32.8a2.386,2.386,0,0,0,2.526,2.526h50.01a2.386,2.386,0,0,0,2.526-2.526V21.688a2.386,2.386,0,0,0-2.526-2.526H73.612A3.245,3.245,0,0,0,71.086,21.688Zm5.052,2.526H121.1v6.062H76.137ZM59.972,13.1H6.426A2.386,2.386,0,0,0,3.9,15.626V70.183a2.386,2.386,0,0,0,2.526,2.526H59.972A2.386,2.386,0,0,0,62.5,70.183V15.626A2.706,2.706,0,0,0,59.972,13.1ZM33.2,48.461a9.093,9.093,0,1,1,9.093-9.093A9.055,9.055,0,0,1,33.2,48.461Zm16.165,19.2H17.034c1.01-7.577,8.083-13.639,16.165-13.639A16.752,16.752,0,0,1,49.364,67.657Zm8.083,0H54.416a21.1,21.1,0,0,0-12.124-16.67,14.37,14.37,0,0,0,5.557-11.619,14.144,14.144,0,0,0-28.289,0,15.1,15.1,0,0,0,5.557,11.619c-6.567,3.031-11.619,9.6-12.124,16.67H8.952V18.152h48.5Z" transform="translate(15.801 37.274)" fill="url(#linear-gradient)"/>
    <path id="Path_204" data-name="Path 204" d="M159.124,30.673H106.083V6.426A2.386,2.386,0,0,0,103.557,3.9H58.093a2.386,2.386,0,0,0-2.526,2.526V30.168H2.526A3.2,3.2,0,0,0,0,33.2v90.423a2.386,2.386,0,0,0,2.526,2.526h156.6a2.386,2.386,0,0,0,2.526-2.526V33.2A2.386,2.386,0,0,0,159.124,30.673ZM60.619,8.952h40.413V30.168H96.99V15.519a2.386,2.386,0,0,0-2.526-2.526H67.186a2.386,2.386,0,0,0-2.526,2.526v14.65H60.619ZM91.938,33.2v6.062H69.712V18.044H91.938Zm64.66,87.9H5.052V35.725H64.66v6.062a2.386,2.386,0,0,0,2.526,2.526H94.464a2.386,2.386,0,0,0,2.526-2.526V35.725H156.6Z" transform="translate(0 0)" fill="url(#linear-gradient-2)"/>
  </g>
</svg>
