<svg xmlns="http://www.w3.org/2000/svg" width="32" height="32" id="id-card"><path d="M27.61 20.181h-9.866a.5.5 0 0 0 0 1h9.866a.5.5 0 0 0 0-1zm-3.327 2.674h-6.539a.5.5 0 0 0 0 1h6.539a.5.5 0 0 0 0-1zm-7.039-8.026v2.249a.5.5 0 0 0 .5.5h9.866a.5.5 0 0 0 .5-.5v-2.249a.5.5 0 0 0-.5-.5h-9.866a.5.5 0 0 0-.5.5zm1 .5h8.866v1.249h-8.866v-1.249zm-3.231-2.194H4.39a.5.5 0 0 0-.5.5v10.753a.5.5 0 0 0 .5.5h10.623a.5.5 0 0 0 .5-.5V13.635c0-.277-.223-.5-.5-.5zm-5.312 7.002a1.843 1.843 0 0 1-1.841-1.842c0-1.015.826-1.841 1.841-1.841s1.841.826 1.841 1.841a1.843 1.843 0 0 1-1.841 1.842zm3.163 3.751H6.538c.242-1.534 1.563-2.715 3.163-2.715s2.921 1.181 3.163 2.715zm1.649 0h-.649a4.207 4.207 0 0 0-2.448-3.342 2.83 2.83 0 0 0 1.126-2.251 2.844 2.844 0 0 0-2.841-2.841 2.844 2.844 0 0 0-2.841 2.841c0 .92.446 1.731 1.126 2.251a4.206 4.206 0 0 0-2.449 3.342H4.89v-9.753h9.623v9.753z"></path><path d="M31.5 9.177H20.985V4.443a.5.5 0 0 0-.5-.5h-8.97a.5.5 0 0 0-.5.5v4.733H.5a.501.501 0 0 0-.5.501v17.88a.5.5 0 0 0 .5.5h31a.5.5 0 0 0 .5-.5V9.677a.5.5 0 0 0-.5-.5zM12.015 4.943h7.97v4.233h-.801V6.232a.5.5 0 0 0-.5-.5h-5.367a.5.5 0 0 0-.5.5v2.944h-.802V4.943zm6.169 4.731v1.157h-4.367v-4.1h4.367v2.943zM31 27.057H1v-16.88h11.816v1.155a.5.5 0 0 0 .5.5h5.367a.5.5 0 0 0 .5-.5v-1.155H31v16.88z"></path></svg>