<svg xmlns="http://www.w3.org/2000/svg" width="743.735" height="598.367" viewBox="0 0 743.735 598.367">
  <g id="User-Account-Sign-up" transform="translate(-43.213 -28.03)">
    <g id="Group_112" data-name="Group 112" transform="translate(43.92 28.53)">
      <path id="Path_138" data-name="Path 138" d="M55.76,102.76V447.012H314.23V106" transform="translate(-44.459 -31.907)" fill="none" stroke="#002346" stroke-linecap="round" stroke-linejoin="round" stroke-width="1"/>
      <path id="Path_139" data-name="Path 139" d="M43.92,28.53v65.1s28.96,24.283,82.3,3.2c0,0,47.4,25.819,112.412,3.8,0,0,53.08,19.749,89.113-5.908V28.53s-282.868.955-283.822,0Z" transform="translate(-43.92 -28.53)" fill="none" stroke="#002346" stroke-linecap="round" stroke-linejoin="round" stroke-width="1"/>
      <path id="Path_140" data-name="Path 140" d="M43.92,75.05s24.187,25.886,82.3,3.856c0,0,51.247,24.741,112.431,2.787,0,0,44.48,24.159,88.149-5.1" transform="translate(-43.92 -30.646)" fill="none" stroke="#002346" stroke-linecap="round" stroke-linejoin="round" stroke-width="1"/>
      <path id="Path_141" data-name="Path 141" d="M43.92,84.05s24.187,25.886,82.3,3.856c0,0,51.247,24.741,112.431,2.787,0,0,44.48,24.159,88.149-5.1" transform="translate(-43.92 -31.056)" fill="none" stroke="#002346" stroke-linecap="round" stroke-linejoin="round" stroke-width="1"/>
      <line id="Line_2" data-name="Line 2" y2="303.218" transform="translate(35.04 76.943)" fill="none" stroke="#002346" stroke-linecap="round" stroke-linejoin="round" stroke-width="1"/>
      <line id="Line_3" data-name="Line 3" y2="302.263" transform="translate(105.673 77.897)" fill="none" stroke="#002346" stroke-linecap="round" stroke-linejoin="round" stroke-width="1"/>
      <line id="Line_4" data-name="Line 4" y2="299.4" transform="translate(245.986 79.806)" fill="none" stroke="#002346" stroke-linecap="round" stroke-linejoin="round" stroke-width="1"/>
      <line id="Line_5" data-name="Line 5" y2="303.218" transform="translate(179.17 76.943)" fill="none" stroke="#002346" stroke-linecap="round" stroke-linejoin="round" stroke-width="1"/>
      <line id="Line_6" data-name="Line 6" x2="210.277" transform="translate(35.517 96.949)" fill="none" stroke="#002346" stroke-linecap="round" stroke-linejoin="round" stroke-width="1"/>
      <line id="Line_7" data-name="Line 7" x2="210.277" transform="translate(35.517 185.718)" fill="none" stroke="#002346" stroke-linecap="round" stroke-linejoin="round" stroke-width="1"/>
      <line id="Line_8" data-name="Line 8" x2="210.277" transform="translate(35.517 285.941)" fill="none" stroke="#002346" stroke-linecap="round" stroke-linejoin="round" stroke-width="1"/>
      <path id="Path_142" data-name="Path 142" d="M55.76,461.763,79.871,426.99H290.816l23.414,34.773" transform="translate(-44.459 -46.658)" fill="none" stroke="#002346" stroke-linecap="round" stroke-linejoin="round" stroke-width="1"/>
    </g>
    <g id="Group_118" data-name="Group 118" transform="translate(170.783 141.477)">
      <rect id="Rectangle_70" data-name="Rectangle 70" width="308.305" height="217.627" rx="16.79" transform="translate(307.36 0)" fill="#fff" stroke="#002346" stroke-miterlimit="10" stroke-width="1"/>
      <path id="Path_143" data-name="Path 143" d="M807.145,162.886v29.79H498.84v-29.79a16.03,16.03,0,0,1,16.026-16.026H791.119A16.03,16.03,0,0,1,807.145,162.886Z" transform="translate(-191.48 -146.86)" fill="#f69074" stroke="#002346" stroke-miterlimit="10" stroke-width="1"/>
      <g id="Group_113" data-name="Group 113" transform="translate(548.85 16.704)">
        <circle id="Ellipse_7" data-name="Ellipse 7" cx="6.204" cy="6.204" r="6.204" fill="#fff" stroke="#002346" stroke-miterlimit="10" stroke-width="1"/>
        <circle id="Ellipse_8" data-name="Ellipse 8" cx="6.204" cy="6.204" r="6.204" transform="translate(19.09)" fill="#fff" stroke="#002346" stroke-miterlimit="10" stroke-width="1"/>
        <circle id="Ellipse_9" data-name="Ellipse 9" cx="6.204" cy="6.204" r="6.204" transform="translate(38.18)" fill="#fff" stroke="#002346" stroke-miterlimit="10" stroke-width="1"/>
      </g>
      <g id="Group_116" data-name="Group 116" transform="translate(327.405 73.497)">
        <g id="Group_114" data-name="Group 114" transform="translate(0 20.045)">
          <path id="Path_144" data-name="Path 144" d="M586.655,278.268a33.408,33.408,0,1,1-33.408-33.408A33.276,33.276,0,0,1,586.655,278.268Z" transform="translate(-519.84 -244.86)" fill="#fff" stroke="#002346" stroke-miterlimit="10" stroke-width="1"/>
          <path id="Path_145" data-name="Path 145" d="M580.265,299.67a33.408,33.408,0,0,1-53.4,0,26.713,26.713,0,0,1,53.4,0Z" transform="translate(-520.16 -246.179)" fill="#fbe493" stroke="#002346" stroke-miterlimit="10" stroke-width="1"/>
          <circle id="Ellipse_10" data-name="Ellipse 10" cx="12.886" cy="12.886" r="12.886" transform="translate(20.999 7.636)" fill="#fbe493" stroke="#002346" stroke-miterlimit="10" stroke-width="1"/>
        </g>
        <g id="Group_115" data-name="Group 115" transform="translate(88.769)">
          <rect id="Rectangle_71" data-name="Rectangle 71" width="170.856" height="18.136" rx="9.068" fill="#e6e7e8" stroke="#002346" stroke-miterlimit="10" stroke-width="1"/>
          <rect id="Rectangle_72" data-name="Rectangle 72" width="170.856" height="18.136" rx="9.068" transform="translate(0 27.681)" fill="#e6e7e8" stroke="#002346" stroke-miterlimit="10" stroke-width="1"/>
          <rect id="Rectangle_73" data-name="Rectangle 73" width="170.856" height="18.136" rx="9.068" transform="translate(0 58.225)" fill="#e6e7e8" stroke="#002346" stroke-miterlimit="10" stroke-width="1"/>
          <rect id="Rectangle_74" data-name="Rectangle 74" width="170.856" height="18.136" rx="9.068" transform="translate(0 88.769)" fill="#fbe493" stroke="#002346" stroke-miterlimit="10" stroke-width="1"/>
        </g>
        <text id="Email" transform="translate(100.166 12.372)" fill="#002346" font-size="11" font-family="SegoeUI, Segoe UI"><tspan x="0" y="0">Email</tspan></text>
        <text id="C_re_a_t_e_P_a_s_s_w_o_r_d" data-name="C re a t e P a s s w o r d" transform="translate(101.12 40.053)" fill="#002346" font-size="11" font-family="SegoeUI, Segoe UI"><tspan x="0" y="0">C re a </tspan><tspan y="0" letter-spacing="-0.01em">t </tspan><tspan y="0">e P a </tspan><tspan y="0" letter-spacing="-0.01em">s </tspan><tspan y="0" letter-spacing="-0.03em">s </tspan><tspan y="0" letter-spacing="-0.02em">w </tspan><tspan y="0">o r d</tspan></text>
        <text id="C_onfirm_P_a_s_s_w_o_r_d" data-name="C onfirm P a s s w o r d" transform="translate(101.12 70.597)" fill="#002346" font-size="11" font-family="SegoeUI, Segoe UI"><tspan x="0" y="0">C onfirm P a </tspan><tspan y="0" letter-spacing="-0.01em">s </tspan><tspan y="0" letter-spacing="-0.03em">s </tspan><tspan y="0" letter-spacing="-0.02em">w </tspan><tspan y="0">o r d</tspan></text>
        <text id="Signup" transform="translate(157.083 101.141)" fill="#002346" font-size="11" font-family="SegoeUI, Segoe UI"><tspan x="0" y="0">Signup</tspan></text>
      </g>
      <path id="Path_146" data-name="Path 146" d="M669.058,592.44l6.443,5.307a4.727,4.727,0,0,1,1.374,5.46c-2.864,6.891-11.779,22.669-35.4,30.869l-.153-13.134,27.728-28.5Z" transform="translate(-197.962 -167.132)" fill="#fff" stroke="#002346" stroke-miterlimit="10" stroke-width="1"/>
      <path id="Path_147" data-name="Path 147" d="M337.734,578.82,322.09,633.236h11.559l25.17-54.416Z" transform="translate(-183.439 -166.512)" fill="#e6e7e8" stroke="#002346" stroke-miterlimit="10" stroke-width="1"/>
      <path id="Path_148" data-name="Path 148" d="M511.345,574.55l8.848,54.416H508.625L490.26,574.55Z" transform="translate(-191.09 -166.318)" fill="#e6e7e8" stroke="#002346" stroke-miterlimit="10" stroke-width="1"/>
      <path id="Path_149" data-name="Path 149" d="M247.234,572.41,231.59,626.826h11.559l25.17-54.416Z" transform="translate(-179.321 -166.22)" fill="#e6e7e8" stroke="#002346" stroke-miterlimit="10" stroke-width="1"/>
      <path id="Path_150" data-name="Path 150" d="M619.35,590.195s2.043-2.043,7.483.678l11.13,3.894a8.123,8.123,0,0,0,4.906.153c4.83-1.365,15.74-4.143,22.4-3.493a4.158,4.158,0,0,1,3.551,5.441c-1.842,5.546-7.6,16.055-25.552,25.953L611.2,614l-3.4-4.085s-2.72-6.806.678-9.526l10.881-10.2Z" transform="translate(-196.39 -166.996)" fill="#f69074" stroke="#002346" stroke-miterlimit="10" stroke-width="1"/>
      <path id="Path_151" data-name="Path 151" d="M610.02,608.112c5.173-2.329,13.163-5.173,17.515-2.988,0,0-9.526.678-24.483,12.246a54.39,54.39,0,0,1-32.644,10.881s-19.042,1.365-23.128,9.526l.678-17.687,12.237-3.293a29.192,29.192,0,0,0,9.956-4.849l3.656-2.739,3.6-4.62a2.149,2.149,0,0,1,2.8-.534l13.334,7.875s5.966,2.711,10.146-.1a43.58,43.58,0,0,1,6.347-3.713Z" transform="translate(-193.684 -167.646)" fill="#f69074" stroke="#002346" stroke-miterlimit="10" stroke-width="1"/>
      <path id="Path_152" data-name="Path 152" d="M558.879,586.86l14.528,21.572s-2.043,17.687-25.848,10.881l-8.839-18.365,20.159-14.089Z" transform="translate(-193.294 -166.878)" fill="#f1b2c0" stroke="#002346" stroke-miterlimit="10" stroke-width="1"/>
      <path id="Path_153" data-name="Path 153" d="M552.94,453.323l-6.853,118.712H507.315l-190.367-3.589-72.991-1.374a31.128,31.128,0,0,1-30.086-25.829l-36.08-209.5a27.088,27.088,0,0,1,22.66-31.384,23.173,23.173,0,0,1,2.329-.248l77.706-4.916,105.587.535a39.275,39.275,0,0,1,38.486,32.482l12.695,72.428,100.767,8.094a18.081,18.081,0,0,1,16.6,19.224l-1.68,25.361Z" transform="translate(-176.856 -153.608)" fill="#e6e7e8" stroke="#002346" stroke-miterlimit="10" stroke-width="1"/>
      <path id="Path_154" data-name="Path 154" d="M520.409,427.2l44.155,130.443-43.535,25.17L463.95,433.9Z" transform="translate(-189.893 -159.614)" fill="#fbe493" stroke="#002346" stroke-miterlimit="10" stroke-width="1"/>
      <path id="Path_155" data-name="Path 155" d="M528.413,421.794,442.031,432,371.97,423.15l.678-4.076,66.663,8.839L477.4,347.648l89.1-6.118Z" transform="translate(-185.708 -155.716)" fill="#fff" stroke="#002346" stroke-miterlimit="10" stroke-width="1"/>
      <path id="Path_156" data-name="Path 156" d="M372.78,422.093l50.245-13.583,19.73,4.763,4.085,2.043-7.483,15.644-66.567-8.829s-.019-.029,0-.038Z" transform="translate(-185.745 -158.764)" fill="#e6e7e8" stroke="#002346" stroke-miterlimit="10" stroke-width="1"/>
      <path id="Path_157" data-name="Path 157" d="M538.946,575.86,520.19,590.254l10.2,18.365,18.47-14.069Z" transform="translate(-192.451 -166.377)" fill="#fff" stroke="#002346" stroke-miterlimit="10" stroke-width="1"/>
      <path id="Path_158" data-name="Path 158" d="M572.21,599.172l4.763,6.118,1.537-2.214a2.166,2.166,0,0,1,2.625-.334l13.525,7.989s6.806,3.4,11.559-1.365c0,0-2.72-5.441.678-9.526l10.881-10.2L599.986,577.61,572.21,599.163Z" transform="translate(-194.818 -166.457)" fill="#f1b2c0" stroke="#002346" stroke-miterlimit="10" stroke-width="1"/>
      <path id="Path_159" data-name="Path 159" d="M547.264,637.844s-.783,5.889,1.651,9.068l85.419-21.992,4.849,4.143s8.075-21.82-11.655-23.863c0,0-9.526.678-24.483,12.246,0,0-14.279,11.559-32.644,10.881,0,0-18.365.678-23.128,9.526Z" transform="translate(-193.677 -167.712)" fill="#002346" stroke="#002346" stroke-miterlimit="10" stroke-width="1"/>
      <path id="Path_160" data-name="Path 160" d="M246.786,410.333s42.17.678,51.7,60.535l18.451,97.76-72.991-1.375a31.128,31.128,0,0,1-30.086-25.829L177.24,332.179a27.058,27.058,0,0,1,24.693-31.651L223,299l23.8,111.333Z" transform="translate(-176.83 -153.782)" fill="#fff" stroke="#002346" stroke-miterlimit="10" stroke-width="1"/>
      <path id="Path_161" data-name="Path 161" d="M376.246,422.132l25.924,3.331s6.052.3,8.085-3.1l6.118.678s4.763,1.365,5.441-2.72l5.66,4.114a5,5,0,0,0,5.784.162,3.562,3.562,0,0,0,1.479-2.234s5.441,2.043,7.483-.678l1.451.277,3.312-7.082-4.085-3.4h.678s4.763.678,4.085-3.4L431.34,400.6s-5.154-4.066-15.167.344A60.7,60.7,0,0,1,395.68,404.8l-15.358-.8s-4.763,8.39-4.085,18.136Z" transform="translate(-185.899 -158.326)" fill="#f1b2c0" stroke="#002346" stroke-miterlimit="10" stroke-width="1"/>
      <path id="Path_162" data-name="Path 162" d="M442.046,408.865l6.806-13.6L426.4,376.9s1.46-9.717-2.606-16.007a22.119,22.119,0,0,1-3.551-9.526L416.2,314.331s-2.72-19.042-21.085-28.568l-19.949-13.974-20.188,3.77-19.042-8.839L309.408,277.6s-25.848,9.526-36.052,31.966c0,0-10.2,19.73-3.4,53.739,0,0,2.72,11.559-1.365,23.128,0,0-2.72,12.246,2.72,17.687l27.891-2.043s34.009-4.085,48.976,20.407l23.805-.678s-2.72-12.924,3.4-23.805l17.687.678s9.526-.678,17-3.4c0,0,9.526-4.763,16.322-.678l16.322,7.483s1.193,3.608-4.763,3.4l4.085,3.4Z" transform="translate(-180.96 -152.313)" fill="#f69074" stroke="#002346" stroke-miterlimit="10" stroke-width="1"/>
      <path id="Path_163" data-name="Path 163" d="M352.114,228.713s4.763,19.73-12.924,36.052l20.923,24.1a37.363,37.363,0,0,1,2.806,3.675l10.958,16.437s7.722-21.83,4.543-39.144L363,238.917,361.63,223.95l-9.526,4.763Z" transform="translate(-184.217 -150.367)" fill="#f1b2c0" stroke="#002346" stroke-miterlimit="10" stroke-width="1"/>
      <rect id="Rectangle_75" data-name="Rectangle 75" width="42.323" height="67.579" rx="21.161" transform="translate(183.53 40.923) rotate(10.07)" fill="#f1b2c0" stroke="#002346" stroke-miterlimit="10" stroke-width="1"/>
      <path id="Path_164" data-name="Path 164" d="M352.839,239.848V226.484l.573-16.255s-2.72-17,10.881-22.45c0,0,25.848-23.128,39.45-2.72,0,0,8.571-2.52,13.124,2.854a9.244,9.244,0,0,1,2.071,5.717c.134,4.1-.783,12.132-9.717,14.117a14.736,14.736,0,0,1-10.776-1.623,11.569,11.569,0,0,1-2.386-1.871,7.838,7.838,0,0,0-5.593-2.539,19.839,19.839,0,0,1-3.723-.344,11.321,11.321,0,0,0-8.543,1.68l-4.524,3.093a11.04,11.04,0,0,0-4.477,6.233,12.93,12.93,0,0,1-1.747,3.971,11.451,11.451,0,0,0-1.938,5.622c-.372,5.689-6.548,16.007-12.695,17.849Z" transform="translate(-184.837 -148.215)" fill="#002346" stroke="#002346" stroke-miterlimit="10" stroke-width="1"/>
      <ellipse id="Ellipse_11" data-name="Ellipse 11" cx="4.333" cy="5.784" rx="4.333" ry="5.784" transform="translate(175.085 70.261)" fill="#f1b2c0" stroke="#002346" stroke-miterlimit="10" stroke-width="1"/>
      <path id="Path_165" data-name="Path 165" d="M352.019,429.768s2.692,16.2,5.555,37.2l61.212,14.909a27.729,27.729,0,0,1,13.344,8.543c16.313,18.9,81.973,74.871,107.6,100.557l36.052-32.644L458.838,433.911,441.1,435.906l-65.345-8.7.048,1.9L352,429.787Z" transform="translate(-184.799 -159.614)" fill="#fbe493" stroke="#002346" stroke-miterlimit="10" stroke-width="1"/>
      <path id="Path_166" data-name="Path 166" d="M544.42,598.417l14.719,13.993,41.731-37.8-14.279-13.6Z" transform="translate(-193.554 -165.702)" fill="#fff" stroke="#002346" stroke-miterlimit="10" stroke-width="1"/>
      <path id="Path_167" data-name="Path 167" d="M639.163,619.88s-3.4-12.246-23.805-1.365c0,0-22.45,15.644-38.094,15.644,0,0-24.865-.563-28.234,10.156a4.875,4.875,0,0,0,2.281,5.679c2.167,1.241,5.966,2.539,12.351,2.539,0,0,31.289-.678,31.966-.678s50.331-1.365,43.535-31.966Z" transform="translate(-193.753 -168.113)" fill="#fff" stroke="#002346" stroke-miterlimit="10" stroke-width="1"/>
      <ellipse id="Ellipse_12" data-name="Ellipse 12" cx="14.318" cy="7.159" rx="14.318" ry="7.159" transform="translate(185.183 46.771)" fill="#002346" stroke="#002346" stroke-miterlimit="10" stroke-width="1"/>
      <path id="Path_168" data-name="Path 168" d="M332.12,270.43,345.9,306.5l14.451-14.041" transform="translate(-183.895 -152.482)" fill="none" stroke="#002346" stroke-linecap="round" stroke-linejoin="round" stroke-width="1"/>
      <path id="Path_169" data-name="Path 169" d="M380.88,293.337l10.614,10.948L386.12,276.28" transform="translate(-186.113 -152.748)" fill="none" stroke="#002346" stroke-linecap="round" stroke-linejoin="round" stroke-width="1"/>
      <line id="Line_9" data-name="Line 9" y2="76.761" transform="translate(190.281 162.209)" fill="none" stroke="#002346" stroke-linecap="round" stroke-linejoin="round" stroke-width="1"/>
      <path id="Path_170" data-name="Path 170" d="M376.781,403.649l-54.435-11.664a33.229,33.229,0,0,0-11.817-.382l-12.189,1.8" transform="translate(-182.358 -157.978)" fill="none" stroke="#002346" stroke-linecap="round" stroke-linejoin="round" stroke-width="1"/>
      <path id="Path_171" data-name="Path 171" d="M282.23,298.8s27.814-2.367,30.43,23.185" transform="translate(-181.625 -153.77)" fill="none" stroke="#002346" stroke-linecap="round" stroke-linejoin="round" stroke-width="1"/>
      <line id="Line_10" data-name="Line 10" x1="2.472" y2="55.533" transform="translate(128.562 175.486)" fill="none" stroke="#002346" stroke-linecap="round" stroke-linejoin="round" stroke-width="1"/>
      <line id="Line_11" data-name="Line 11" x1="9.049" y1="7.655" transform="translate(236.393 216.93)" fill="none" stroke="#002346" stroke-linecap="round" stroke-linejoin="round" stroke-width="1"/>
      <path id="Path_172" data-name="Path 172" d="M398.618,401.93s7.522-4.6.716-18.031c0,0-5.364-5.87-.83-14.9l7.789-17.219,1.976,28.979s-.076,14.633,7.846,17.916" transform="translate(-186.832 -156.183)" fill="none" stroke="#002346" stroke-linecap="round" stroke-linejoin="round" stroke-width="1"/>
      <path id="Path_173" data-name="Path 173" d="M411.88,423.242s3.589-9.7,11.559-2.043" transform="translate(-187.524 -159.207)" fill="none" stroke="#002346" stroke-linecap="round" stroke-linejoin="round" stroke-width="1"/>
      <line id="Line_12" data-name="Line 12" x1="11.788" y1="10.185" transform="translate(237.051 253.851)" fill="none" stroke="#002346" stroke-linecap="round" stroke-linejoin="round" stroke-width="1"/>
      <line id="Line_13" data-name="Line 13" x1="13.382" y1="13.611" transform="translate(242.941 249.746)" fill="none" stroke="#002346" stroke-linecap="round" stroke-linejoin="round" stroke-width="1"/>
      <line id="Line_14" data-name="Line 14" x1="9.774" y1="5.937" transform="translate(247.226 247.217)" fill="none" stroke="#002346" stroke-linecap="round" stroke-linejoin="round" stroke-width="1"/>
      <line id="Line_15" data-name="Line 15" y1="76.589" x2="36.004" transform="translate(259.158 195.607)" fill="none" stroke="#002346" stroke-linecap="round" stroke-linejoin="round" stroke-width="1"/>
      <path id="Path_174" data-name="Path 174" d="M259.79,406.96l69.3-2.5a17.533,17.533,0,0,1,17.983,14.976l17.009,115.581a25.554,25.554,0,0,0,21.667,21.572l27.165,3.875" transform="translate(-180.604 -158.579)" fill="#e6e7e8" stroke="#002346" stroke-miterlimit="10" stroke-width="1"/>
      <line id="Line_16" data-name="Line 16" x1="4.477" y2="26.659" transform="translate(220.529 164.795)" fill="none" stroke="#002346" stroke-linecap="round" stroke-linejoin="round" stroke-width="1"/>
      <g id="Group_117" data-name="Group 117" transform="translate(66.271 303.088)">
        <path id="Path_175" data-name="Path 175" d="M246.4,568.6c.191,2.234.487,4.753.916,7.321,0,0,9.049-29.609,38.791-25.791l-5.842-12.867-4.83-4.83c-9.7,5.04-19.09,3.522-25.5,16.532a37.036,37.036,0,0,0-3.522,19.644Z" transform="translate(-246.26 -467.489)" fill="#7cd295" stroke="#002346" stroke-miterlimit="10" stroke-width="1"/>
        <path id="Path_176" data-name="Path 176" d="M333.2,537.154c-26.841.029-30.85-39.526-3.732-72.447a.141.141,0,0,1,.248.1c-1.069,11.225,31.88,51.448,10.29,69.86a10.477,10.477,0,0,1-6.8,2.482Z" transform="translate(-249.205 -464.406)" fill="#7cd295" stroke="#002346" stroke-miterlimit="10" stroke-width="1"/>
        <path id="Path_177" data-name="Path 177" d="M332.128,522.367c-16.933-10.051-13.115-40.185,37.063-57.967.1-.029.191.057.153.143-.573,1.632-3.894,12.294-5.641,42.38-.468,8.018-11.922,27.108-31.575,15.434Z" transform="translate(-249.754 -464.394)" fill="#7cd295" stroke="#002346" stroke-miterlimit="10" stroke-width="1"/>
        <path id="Path_178" data-name="Path 178" d="M349.077,594.108c.764,5.927-39.421,5.927-38.657,0C309.656,588.181,349.841,588.181,349.077,594.108Z" transform="translate(-249.178 -470.093)" fill="#002346" stroke="#002346" stroke-miterlimit="10" stroke-width="1"/>
        <path id="Path_179" data-name="Path 179" d="M349.946,646.818c-1.737-.258-45.988.754-46.093-.821-8.715-4.133-9.087-17.63-9.087-17.63C293.449,610.356,309.7,600.7,309.7,600.7V594.33c-.764,5.927,39.421,5.927,38.657,0v6.806c21.276,13.964,16.962,44.27,1.584,45.683Z" transform="translate(-248.463 -470.306)" fill="#f69074" stroke="#002346" stroke-miterlimit="10" stroke-width="1"/>
        <path id="Path_180" data-name="Path 180" d="M352.049,609.618c.048,3.417-5.326,3.417-5.269,0C346.732,606.2,352.106,606.2,352.049,609.618Z" transform="translate(-250.833 -470.884)" fill="#fff"/>
        <path id="Path_181" data-name="Path 181" d="M360.329,617.908c.048,3.417-5.326,3.417-5.269,0C355.012,614.491,360.386,614.491,360.329,617.908Z" transform="translate(-251.21 -471.262)" fill="#fff"/>
        <path id="Path_182" data-name="Path 182" d="M361.709,631.248c.048,3.417-5.326,3.417-5.269,0C356.392,627.831,361.766,627.831,361.709,631.248Z" transform="translate(-251.272 -471.868)" fill="#fff"/>
        <path id="Path_183" data-name="Path 183" d="M354.349,641.378c.048,3.417-5.326,3.417-5.269,0C349.032,637.961,354.406,637.961,354.349,641.378Z" transform="translate(-250.938 -472.329)" fill="#fff"/>
        <path id="Path_184" data-name="Path 184" d="M331.8,644.138c.048,3.417-5.326,3.417-5.269,0C326.482,640.721,331.856,640.721,331.8,644.138Z" transform="translate(-249.912 -472.455)" fill="#fff"/>
        <path id="Path_185" data-name="Path 185" d="M314.309,641.378c.048,3.417-5.326,3.417-5.269,0C308.992,637.961,314.366,637.961,314.309,641.378Z" transform="translate(-249.116 -472.329)" fill="#fff"/>
        <path id="Path_186" data-name="Path 186" d="M304.649,633.548c.048,3.417-5.326,3.417-5.269,0C299.332,630.131,304.706,630.131,304.649,633.548Z" transform="translate(-248.677 -471.973)" fill="#fff"/>
        <path id="Path_187" data-name="Path 187" d="M306.029,617.908c.048,3.417-5.326,3.417-5.269,0C300.712,614.491,306.086,614.491,306.029,617.908Z" transform="translate(-248.739 -471.262)" fill="#fff"/>
        <path id="Path_188" data-name="Path 188" d="M316.149,608.7c.048,3.417-5.326,3.417-5.269,0C310.832,605.281,316.206,605.281,316.149,608.7Z" transform="translate(-249.2 -470.843)" fill="#fff"/>
        <path id="Path_189" data-name="Path 189" d="M325.359,616.988c.048,3.417-5.326,3.417-5.269,0C320.042,613.571,325.416,613.571,325.359,616.988Z" transform="translate(-249.619 -471.22)" fill="#fff"/>
        <path id="Path_190" data-name="Path 190" d="M314.769,624.348c.048,3.417-5.326,3.417-5.269,0C309.452,620.931,314.826,620.931,314.769,624.348Z" transform="translate(-249.137 -471.555)" fill="#fff"/>
        <path id="Path_191" data-name="Path 191" d="M323.979,633.548c.048,3.417-5.326,3.417-5.269,0C318.662,630.131,324.036,630.131,323.979,633.548Z" transform="translate(-249.556 -471.973)" fill="#fff"/>
        <path id="Path_192" data-name="Path 192" d="M334.1,625.728c.048,3.417-5.326,3.417-5.269,0C328.782,622.311,334.156,622.311,334.1,625.728Z" transform="translate(-250.016 -471.617)" fill="#fff"/>
        <path id="Path_193" data-name="Path 193" d="M335.939,610.078c.048,3.417-5.326,3.417-5.269,0C330.622,606.661,336,606.661,335.939,610.078Z" transform="translate(-250.1 -470.905)" fill="#fff"/>
        <path id="Path_194" data-name="Path 194" d="M344.229,619.748c.048,3.417-5.326,3.417-5.269,0C338.912,616.331,344.286,616.331,344.229,619.748Z" transform="translate(-250.477 -471.345)" fill="#fff"/>
        <path id="Path_195" data-name="Path 195" d="M350.669,626.188c.048,3.417-5.326,3.417-5.269,0C345.352,622.771,350.726,622.771,350.669,626.188Z" transform="translate(-250.77 -471.638)" fill="#fff"/>
        <path id="Path_196" data-name="Path 196" d="M341.459,635.388c.048,3.417-5.326,3.417-5.269,0C336.142,631.971,341.516,631.971,341.459,635.388Z" transform="translate(-250.351 -472.057)" fill="#fff"/>
        <path id="Path_197" data-name="Path 197" d="M374.665,563.07c-14.489-11.8-35.088,4.4-14.5,24.6,0,0,10.547,9.66,14.938,19.768,0,0,20.207-14.5,20.646-34.267,0,0,0-20.207-21.085-10.108Z" transform="translate(-251.047 -468.702)" fill="#7cd295" stroke="#002346" stroke-miterlimit="10" stroke-width="1"/>
        <path id="Path_198" data-name="Path 198" d="M246.93,558.883c22.765-40.127,32.482,1.136,66.749-4.582C314.194,508.17,247.436,510.107,246.93,558.883Z" transform="translate(-246.29 -466.968)" fill="#7cd295" stroke="#002346" stroke-miterlimit="10" stroke-width="1"/>
        <path id="Path_199" data-name="Path 199" d="M310.42,601s16.217,8.323,38.657.439" transform="translate(-249.179 -470.609)" fill="none" stroke="#002346" stroke-linecap="round" stroke-linejoin="round" stroke-width="1"/>
        <path id="Path_200" data-name="Path 200" d="M334.93,577.452s9.545-40.089,33.837-20.646a20,20,0,0,1,6.6,11.005c1.613,6.586,3.656,18.575,1.088,30.162" transform="translate(-250.294 -468.356)" fill="none" stroke="#002346" stroke-linecap="round" stroke-linejoin="round" stroke-width="1"/>
        <path id="Path_201" data-name="Path 201" d="M365.869,468.19s-44.862,32.453-29.59,120.268" transform="translate(-250.211 -464.567)" fill="none" stroke="#002346" stroke-linecap="round" stroke-linejoin="round" stroke-width="1"/>
        <path id="Path_202" data-name="Path 202" d="M265.43,533.19s59.179-.954,61.088,57.27" transform="translate(-247.132 -467.524)" fill="none" stroke="#002346" stroke-linecap="round" stroke-linejoin="round" stroke-width="1"/>
      </g>
    </g>
  </g>
</svg>
