<svg xmlns="http://www.w3.org/2000/svg" width="645.514" height="635.245" viewBox="0 0 645.514 635.245">
  <g id="Enter_OTP-bro" data-name="Enter OTP-bro" transform="translate(-12.784 -16.36)">
    <g id="freepik--background-simple--inject-49" transform="translate(14.491 24.3)">
      <path id="Path_1468" data-name="Path 1468" d="M642.831,369.246c-18.37,55.682-57.956,116.73-116.226,136.6-88.024,30.04-95.922,102.227-255.642,101.737a322.6,322.6,0,0,1-69.368-7.449A268.68,268.68,0,0,1,168.75,590.6C74.108,556.46,22.293,475.272,14.872,388.515,5.135,274.4,82.782,216.839,133.344,182.89S241.645,22.952,398.709,22.2A311.472,311.472,0,0,1,470,29.816c53.326,12.256,108.2,41.765,141.173,86.744,2.465,3.377,4.834,6.809,7.122,10.377C662.808,196.154,667.887,293.315,642.831,369.246Z" transform="translate(-14.037 -22.191)" fill="#ff725e"/>
      <path id="Path_1469" data-name="Path 1469" d="M642.831,369.246c-18.37,55.682-57.956,116.73-116.226,136.6-88.024,30.04-95.922,102.227-255.642,101.737a322.6,322.6,0,0,1-69.368-7.449A268.68,268.68,0,0,1,168.75,590.6C74.108,556.46,22.293,475.272,14.872,388.515,5.135,274.4,82.782,216.839,133.344,182.89S241.645,22.952,398.709,22.2A311.472,311.472,0,0,1,470,29.816c53.326,12.256,108.2,41.765,141.173,86.744,2.465,3.377,4.834,6.809,7.122,10.377C662.808,196.154,667.887,293.315,642.831,369.246Z" transform="translate(-14.037 -22.191)" fill="#fff" opacity="0.7"/>
    </g>
    <g id="freepik--Window--inject-49" transform="translate(23.291 16.36)">
      <path id="Path_1470" data-name="Path 1470" d="M199.04,41.709H21.372a.681.681,0,0,1-.626-.395.7.7,0,0,1,.109-.735l9.927-11.507A.694.694,0,0,1,31.749,29a.667.667,0,0,1,.068.953l-8.96,10.417h175.5V29.481a.681.681,0,0,1,1.362,0V41.015a.681.681,0,0,1-.681.694Z" transform="translate(-20.433 -11.86)" fill="#263238"/>
      <path id="Path_1471" data-name="Path 1471" d="M199.04,53.947H21.372a.681.681,0,0,1-.626-.395.667.667,0,0,1,.109-.722L30.782,41.3a.681.681,0,1,1,1.035.885l-8.96,10.4h175.5V41.691a.681.681,0,1,1,1.362,0V53.252a.681.681,0,0,1-.681.694Z" transform="translate(-20.433 -7.443)" fill="#263238"/>
      <path id="Path_1472" data-name="Path 1472" d="M199.04,66.187H21.372a.679.679,0,0,1-.517-1.13l9.927-11.534a.694.694,0,0,1,.967-.068.667.667,0,0,1,.068.953l-8.96,10.417h175.5V53.931a.681.681,0,0,1,1.362,0V65.465a.681.681,0,0,1-.681.722Z" transform="translate(-20.433 -3.015)" fill="#263238"/>
      <path id="Path_1473" data-name="Path 1473" d="M199.04,78.437H21.372a.681.681,0,0,1-.626-.395.7.7,0,0,1,.109-.735l9.927-11.52a.681.681,0,0,1,1.035.885l-8.96,10.4h175.5V66.181a.681.681,0,1,1,1.362,0V77.715a.681.681,0,0,1-.681.722Z" transform="translate(-20.433 1.417)" fill="#263238"/>
      <path id="Path_1474" data-name="Path 1474" d="M199.04,90.639H21.372a.694.694,0,0,1-.626-.409.667.667,0,0,1,.109-.722l9.927-11.534a.694.694,0,0,1,.967,0,.667.667,0,0,1,.068.953l-8.96,10.417h175.5V78.451a.681.681,0,0,1,1.362,0V89.985A.681.681,0,0,1,199.04,90.639Z" transform="translate(-20.433 5.855)" fill="#263238"/>
      <path id="Path_1475" data-name="Path 1475" d="M199.04,102.887H21.372a.681.681,0,0,1-.626-.395.7.7,0,0,1,.109-.735l9.927-11.534a.685.685,0,0,1,1.035.9l-8.96,10.4h175.5V90.631a.681.681,0,1,1,1.362,0v11.643A.681.681,0,0,1,199.04,102.887Z" transform="translate(-20.433 10.261)" fill="#263238"/>
      <path id="Path_1476" data-name="Path 1476" d="M199.04,115.117H21.372a.681.681,0,0,1-.626-.395.667.667,0,0,1,.109-.722l9.927-11.534a.708.708,0,0,1,.967-.082.7.7,0,0,1,.068.967l-8.96,10.4h175.5V102.861a.681.681,0,0,1,1.362,0v11.534a.681.681,0,0,1-.681.722Z" transform="translate(-20.433 14.686)" fill="#263238"/>
      <path id="Path_1477" data-name="Path 1477" d="M199.04,127.357H21.372a.679.679,0,0,1-.517-1.13l9.927-11.534a.694.694,0,0,1,.967-.068.667.667,0,0,1,.068.953l-8.96,10.417h175.5V115.1a.681.681,0,1,1,1.362,0v11.534a.681.681,0,0,1-.681.722Z" transform="translate(-20.433 19.114)" fill="#263238"/>
      <path id="Path_1478" data-name="Path 1478" d="M199.04,139.587H21.372a.681.681,0,0,1-.626-.395.667.667,0,0,1,.109-.722l9.927-11.534a.681.681,0,0,1,1.035.885l-8.96,10.4h175.5V127.331a.681.681,0,0,1,1.362,0v11.534a.681.681,0,0,1-.681.722Z" transform="translate(-20.433 23.538)" fill="#263238"/>
      <path id="Path_1479" data-name="Path 1479" d="M199.04,151.827H21.372a.7.7,0,0,1-.626-.409.667.667,0,0,1,.109-.722l9.927-11.534a.694.694,0,0,1,.967-.068.667.667,0,0,1,.068.953l-8.96,10.417h175.5V139.571a.681.681,0,0,1,1.362,0V151.1a.681.681,0,0,1-.681.722Z" transform="translate(-20.433 27.966)" fill="#263238"/>
      <path id="Path_1480" data-name="Path 1480" d="M199.04,164.057H21.372a.681.681,0,0,1-.626-.395.694.694,0,0,1,.109-.735l9.927-11.534a.685.685,0,0,1,1.035.9l-8.96,10.4h175.5V151.8a.681.681,0,0,1,1.362,0v11.534a.681.681,0,0,1-.681.722Z" transform="translate(-20.433 32.39)" fill="#263238"/>
      <path id="Path_1481" data-name="Path 1481" d="M199.04,176.287H21.372a.681.681,0,0,1-.626-.395.667.667,0,0,1,.109-.722l9.927-11.534a.694.694,0,0,1,.967-.068.667.667,0,0,1,.068.953l-8.96,10.4h175.5V164.031a.681.681,0,0,1,1.362,0v11.534a.681.681,0,0,1-.681.722Z" transform="translate(-20.433 36.814)" fill="#263238"/>
      <path id="Path_1482" data-name="Path 1482" d="M199.04,188.509H21.372a.679.679,0,0,1-.517-1.13l9.927-11.534a.694.694,0,0,1,.967,0,.667.667,0,0,1,.068.953l-8.96,10.417h175.5V176.321a.681.681,0,0,1,1.362,0v11.534a.681.681,0,0,1-.681.654Z" transform="translate(-20.433 41.26)" fill="#263238"/>
      <path id="Path_1483" data-name="Path 1483" d="M199.04,200.768H21.372a.681.681,0,0,1-.626-.395.667.667,0,0,1,.109-.722l9.927-11.575a.681.681,0,1,1,1.035.885l-8.96,10.4h175.5V188.471a.681.681,0,0,1,1.362,0V200a.681.681,0,0,1-.681.763Z" transform="translate(-20.433 45.655)" fill="#263238"/>
      <path id="Path_1484" data-name="Path 1484" d="M199.04,212.979H21.372a.679.679,0,0,1-.517-1.13l9.927-11.534a.694.694,0,0,1,.967,0,.667.667,0,0,1,.068.953l-8.96,10.417h175.5V200.791a.681.681,0,0,1,1.362,0v11.534A.681.681,0,0,1,199.04,212.979Z" transform="translate(-20.433 50.112)" fill="#263238"/>
      <path id="Path_1485" data-name="Path 1485" d="M199.04,225.227H21.372a.681.681,0,0,1-.626-.395.7.7,0,0,1,.109-.735l9.927-11.534a.685.685,0,0,1,1.035.9l-8.96,10.4h175.5V212.971a.681.681,0,0,1,1.362,0V224.5a.681.681,0,0,1-.681.722Z" transform="translate(-20.433 54.518)" fill="#263238"/>
      <path id="Path_1486" data-name="Path 1486" d="M199.042,237.437H21.374a.667.667,0,0,1-.517-1.117l9.927-11.534a.694.694,0,0,1,.967,0,.667.667,0,0,1,.068.953l-8.96,10.336h175.5V225.181a.681.681,0,0,1,1.362,0V236.7a.681.681,0,0,1-.681.735Z" transform="translate(-20.434 58.935)" fill="#263238"/>
      <path id="Path_1487" data-name="Path 1487" d="M207.578,34.839H21.181a.681.681,0,0,1-.681-.681V17.041a.681.681,0,0,1,.681-.681h186.4a.681.681,0,0,1,.681.681V34.158A.681.681,0,0,1,207.578,34.839ZM21.848,33.477H206.9V17.722H21.848Z" transform="translate(-20.5 -16.36)" fill="#263238"/>
      <path id="Path_1488" data-name="Path 1488" d="M154.971,200.141a.681.681,0,0,1-.681-.681V30.181a.681.681,0,0,1,1.362,0V199.447a.681.681,0,0,1-.681.694Z" transform="translate(27.899 -11.607)" fill="#263238"/>
      <path id="Path_1489" data-name="Path 1489" d="M158.984,167.531h-6.073a.681.681,0,0,1-.681-.681V154.921a.681.681,0,0,1,.681-.681h6.073a.681.681,0,0,1,.681.681V166.85A.681.681,0,0,1,158.984,167.531Zm-5.447-1.362h4.712V155.6h-4.712Z" transform="translate(27.154 33.519)" fill="#263238"/>
    </g>
    <g id="freepik--Plant--inject-49" transform="translate(12.784 289.778)">
      <path id="Path_1490" data-name="Path 1490" d="M74.389,278.929h0a.106.106,0,1,0-.163-.109,170.488,170.488,0,0,0-9,28.216,264.722,264.722,0,0,0-5.038,29.25l-.694,7.394c-.109,1.239-.245,2.465-.34,3.7l-.191,3.7c-.109,2.478-.259,4.943-.34,7.422l.068,7.422.082,3.718c.068,1.239.15,2.478.231,3.7.191,2.478.34,4.943.572,7.408.463,4.916,1.212,9.818,1.975,14.693a.109.109,0,0,0,.123.109.136.136,0,0,0,.136-.123h0c0-2.478-.123-4.943-.177-7.394s-.286-4.916-.245-7.381,0-4.916-.082-7.367l-.068-3.69V358.564l.2-7.353.068-3.677c0-1.226.136-2.451.2-3.677l.449-7.353a263.843,263.843,0,0,1,4.167-29.169,170.834,170.834,0,0,1,8.062-28.406Z" transform="translate(3.798 -194.859)" fill="#263238"/>
      <path id="Path_1491" data-name="Path 1491" d="M73.682,307.2a.15.15,0,0,0-.082-.163.123.123,0,0,0-.163.082,170.463,170.463,0,0,0-8.334,37.9c-.654,6.441-1.362,12.9-1.471,19.364a162.389,162.389,0,0,0,.695,19.419.13.13,0,0,0,.259,0c.749-6.441,1.2-12.882,1.648-19.31s.517-12.869.94-19.3a170.532,170.532,0,0,1,2.261-19.133,175.4,175.4,0,0,1,4.249-18.86Z" transform="translate(5.594 -184.629)" fill="#263238"/>
      <path id="Path_1492" data-name="Path 1492" d="M93.741,317.1a.136.136,0,0,0-.191,0,64.971,64.971,0,0,0-14.312,12.392,56.376,56.376,0,0,0-5.583,7.762l-1.144,2.165-.9,2.247a23.68,23.68,0,0,0-.79,2.274c-.231.763-.477,1.539-.694,2.3a92.231,92.231,0,0,0-2.941,18.819,107.5,107.5,0,0,0,.708,18.956.136.136,0,0,0,.109.123.15.15,0,0,0,.15-.123l1.62-18.765a167.253,167.253,0,0,1,2.383-18.506c.163-.749.381-1.5.572-2.233a19.87,19.87,0,0,1,.654-2.22l.817-2.165.98-2.043a53.828,53.828,0,0,1,5.12-7.762,64,64,0,0,1,13.386-13.046h0a.15.15,0,0,0,.054-.177Z" transform="translate(6.846 -180.998)" fill="#263238"/>
      <path id="Path_1493" data-name="Path 1493" d="M82.249,334.79a20.848,20.848,0,0,0-6.482,7.8,45.347,45.347,0,0,0-3.636,9.532,25.44,25.44,0,0,0-.64,2.478l-.586,2.492a42.216,42.216,0,0,0-.626,5.066c0,1.7-.082,3.4,0,5.093a42.213,42.213,0,0,0,.667,5.066.15.15,0,0,0,.109.109.123.123,0,0,0,.15-.109,45.606,45.606,0,0,0,.9-4.984c.259-1.648.517-3.3.722-4.93s.449-3.268.586-4.916a34.851,34.851,0,0,1,.708-4.9,43.916,43.916,0,0,1,2.724-9.464,20.848,20.848,0,0,1,5.447-8.171h0a.109.109,0,0,0,0-.163.139.139,0,0,0-.041,0Z" transform="translate(8.003 -174.585)" fill="#263238"/>
      <path id="Path_1494" data-name="Path 1494" d="M60.5,368.273c-.708-8.32-2.083-16.573-3.377-24.811S54.4,327,52.876,318.786s-3.187-16.341-4.957-24.512a.136.136,0,0,0-.259,0c1.43,8.171,2.724,16.45,3.935,24.689s2.424,16.491,3.472,24.743,1.811,16.559,2.846,24.8l3.05,24.838a.123.123,0,0,0,.123.123.15.15,0,0,0,.136-.123c.1-2.1.1-4.181.15-6.278s-.1-4.181-.123-6.264C61.169,376.607,60.815,372.453,60.5,368.273Z" transform="translate(-0.167 -189.275)" fill="#263238"/>
      <path id="Path_1495" data-name="Path 1495" d="M59.044,363.243c-.449-3.309-1.049-6.591-1.689-9.859L56.2,348.523c-.395-1.62-.749-3.241-1.226-4.848A136.991,136.991,0,0,0,48.6,324.733l-1.021-2.288L46.462,320.2c-.694-1.512-1.552-2.941-2.369-4.4a36.51,36.51,0,0,0-6.005-7.98.125.125,0,1,0-.177.177h0a36.155,36.155,0,0,1,5.447,8.171c.735,1.471,1.5,2.928,2.111,4.467l.98,2.26.872,2.315a136.177,136.177,0,0,1,5.542,18.956c.763,3.2,1.266,6.468,1.893,9.7l.776,4.889c.286,1.62.626,3.227.858,4.861.517,3.255,1.117,6.509,1.689,9.764s1.1,6.536,1.784,9.791a.136.136,0,0,0,.136.109.123.123,0,0,0,.123-.123q0-5-.231-9.982C59.834,369.862,59.385,366.552,59.044,363.243Z" transform="translate(-3.708 -184.354)" fill="#263238"/>
      <path id="Path_1496" data-name="Path 1496" d="M51.581,355.473c-1.552-4.371-3.336-8.647-5.284-12.841a114.39,114.39,0,0,0-6.632-12.174.15.15,0,0,0-.177,0,.136.136,0,0,0,0,.177,115.334,115.334,0,0,1,5.665,12.555c1.689,4.249,3.214,8.579,4.48,12.964s2.247,8.865,3.4,13.277,2.22,8.851,3.581,13.3a.132.132,0,0,0,.259-.027,66.726,66.726,0,0,0-1.294-13.863A87.63,87.63,0,0,0,51.581,355.473Z" transform="translate(-3.135 -176.162)" fill="#263238"/>
      <path id="Path_1497" data-name="Path 1497" d="M52.532,364.459a29.835,29.835,0,0,0-3.677-7.694,31.7,31.7,0,0,0-5.338-6.618,24.871,24.871,0,0,0-3.445-2.574,14.081,14.081,0,0,0-3.854-1.743.136.136,0,0,0-.15.082.123.123,0,0,0,0,.163h0a18.942,18.942,0,0,1,6.387,4.957,29.959,29.959,0,0,1,4.453,6.741c1.266,2.4,1.92,5.039,3.023,7.5.477,1.266.967,2.533,1.525,3.8a32.5,32.5,0,0,0,1.675,3.84h0a.136.136,0,0,0,.109.068.15.15,0,0,0,.15-.123,31.782,31.782,0,0,0-.163-4.262A23.064,23.064,0,0,0,52.532,364.459Z" transform="translate(-4.372 -170.591)" fill="#263238"/>
      <path id="Path_1498" data-name="Path 1498" d="M55.275,326.448a23.681,23.681,0,0,1-16.79-17.839c-3.159-14.707,7-8.4-2.1-31.511s-7-28.338-3.854-35,4.9-4.548,7.694,4.208,12.978,22.4,16.8,47.947S55.275,326.448,55.275,326.448Z" transform="translate(-6.611 -209.532)" fill="#ff725e"/>
      <path id="Path_1499" data-name="Path 1499" d="M70.834,309.221s-9.11-3.159-9.451-20.3,6.645-13.618,7.694-35,2.451-36.4,6.3-36.767,14,10.5,17.5,34.3S88.332,290.946,81.333,298,70.834,309.221,70.834,309.221Z" transform="translate(4.793 -217.143)" fill="#ff725e"/>
      <path id="Path_1500" data-name="Path 1500" d="M54.979,332.058s-2.111-12.6-6.3-18.547S35.37,302.3,29.419,290.756s-12.6-17.144-12.256-.695,7.694,24.838,16.8,30.449S54.979,332.058,54.979,332.058Z" transform="translate(-11.204 -194.484)" fill="#ff725e"/>
      <path id="Path_1501" data-name="Path 1501" d="M52.705,345.32s-8.4-16.1-20.644-28S10,299.469,13.5,305.42s7.708,5.61,13.618,16.11,4.194,18.193,12.6,24.144S52.705,345.32,52.705,345.32Z" transform="translate(-12.784 -186.053)" fill="#ff725e"/>
      <path id="Path_1502" data-name="Path 1502" d="M50.476,354.284c-.354-1.049-.708-8.756-12.6-14.979s-23.15-3.854-21.706-.708,8.756,8.4,16.1,11.548S50.476,354.284,50.476,354.284Z" transform="translate(-11.603 -174.36)" fill="#ff725e"/>
      <path id="Path_1503" data-name="Path 1503" d="M68.662,335.788s-5.175-6.645-2.451-20.644,9.1-10.5,16.11-17.853,5.6-8.4,12.6-16.1,13.291-11.9,16.1-8.756-1.362,12.95-5.6,18.547-10.894,8.4-14,15.4-1.757,18.207-9.8,23.449S68.662,335.788,68.662,335.788Z" transform="translate(6.257 -197.52)" fill="#ff725e"/>
      <path id="Path_1504" data-name="Path 1504" d="M80.65,331.88s12.61-14.312,21.706-24.852,12.6-18.547,12.95-11.548,3.146,12.6-4.208,21.693S80.65,331.88,80.65,331.88Z" transform="translate(11.767 -189.758)" fill="#ff725e"/>
      <path id="Path_1505" data-name="Path 1505" d="M75.77,346.779s-.354-5.6,19.6-18.547,28.352-15.4,26.255-10.145-10.894,10.5-20.3,19.95S75.77,346.779,75.77,346.779Z" transform="translate(10.002 -181.562)" fill="#ff725e"/>
      <path id="Path_1506" data-name="Path 1506" d="M54,321.807a.694.694,0,0,1-.681-.558c0-.245-4.725-25.288-9.532-42.9s-8.021-28.6-8.048-28.692a.667.667,0,0,1,.463-.844.681.681,0,0,1,.844.463c0,.109,3.2,11.057,8.048,28.706s9.532,42.759,9.6,43.018a.681.681,0,0,1-.545.79Z" transform="translate(-4.491 -205.695)" fill="#263238"/>
      <path id="Path_1507" data-name="Path 1507" d="M67.9,306.983h-.2a.681.681,0,0,1-.436-.858c.082-.272,8.525-27.358,11.275-43.576,2.506-14.666.231-25.955-1.266-33.417-.177-.844-.34-1.648-.477-2.383a.693.693,0,1,1,1.362-.259c.15.735.3,1.525.477,2.369,1.512,7.571,3.813,19.065,1.28,33.921-2.724,16.341-11.248,43.481-11.33,43.753A.681.681,0,0,1,67.9,306.983Z" transform="translate(6.911 -213.966)" fill="#263238"/>
      <path id="Path_1508" data-name="Path 1508" d="M52.284,329.565a.681.681,0,0,1-.6-.34A132.5,132.5,0,0,0,38.857,310.95c-1.961-2.329-3.786-4.344-5.556-6.291-5.052-5.6-9.056-10.022-11.7-16.641a.667.667,0,0,1,.381-.885.681.681,0,0,1,.885.381c2.546,6.387,6.482,10.731,11.452,16.232,1.77,1.961,3.6,3.976,5.583,6.319A134.119,134.119,0,0,1,52.87,328.557a.681.681,0,0,1-.259.926.722.722,0,0,1-.327.082Z" transform="translate(-9.612 -191.842)" fill="#263238"/>
      <path id="Path_1509" data-name="Path 1509" d="M67.98,334.627h-.109a.667.667,0,0,1-.558-.776c.109-.694,2.9-17.063,9.532-25.873,2.587-3.4,6.142-7.5,9.9-11.834,5.937-6.809,12.079-13.944,15.265-19.255a.681.681,0,1,1,1.157.694c-3.241,5.447-9.423,12.555-15.4,19.446-3.745,4.317-7.272,8.4-9.832,11.766-6.468,8.511-9.287,25.084-9.328,25.247a.667.667,0,0,1-.626.586Z" transform="translate(6.939 -195.679)" fill="#263238"/>
      <path id="Path_1510" data-name="Path 1510" d="M46.258,353.007a.763.763,0,0,1-.368-.109c-.109-.082-11.834-7.707-20.113-11.834a.694.694,0,0,1-.3-.912.681.681,0,0,1,.912-.313c8.334,4.181,20.127,11.834,20.249,11.915a.681.681,0,0,1,.191.94.654.654,0,0,1-.572.313Z" transform="translate(-8.216 -172.783)" fill="#263238"/>
      <path id="Path_1511" data-name="Path 1511" d="M112.821,410.2c-.79-21.23-24.389-35.406-24.389-35.406H52.263s-23.6,14.162-24.389,35.406S54.619,509.3,54.619,509.3H86.076S113.6,431.439,112.821,410.2Z" transform="translate(-7.331 -160.114)" fill="#263238"/>
      <path id="Path_1512" data-name="Path 1512" d="M86.257,510.173H54.8a.681.681,0,0,1-.64-.449c-1.13-3.187-27.562-78.233-26.786-99.408.79-21.352,24.512-35.814,24.716-35.95a.654.654,0,0,1,.354-.1H88.613a.654.654,0,0,1,.354.1c.231.136,23.912,14.6,24.7,35.95h0c.79,21.134-25.655,96.181-26.772,99.408a.681.681,0,0,1-.64.449ZM55.29,508.811H85.766c2.261-6.414,27.235-78.369,26.554-98.4-.735-19.718-21.788-33.458-23.9-34.738H52.635c-2.043,1.28-23.15,14.979-23.9,34.738C28,430.442,53.03,502.4,55.29,508.811Z" transform="translate(-7.512 -160.302)" fill="#263238"/>
      <path id="Path_1513" data-name="Path 1513" d="M88.02,359.46H41.87l5.324,20.889H82.7Z" transform="translate(-2.262 -165.66)" fill="#263238"/>
      <path id="Path_1514" data-name="Path 1514" d="M82.877,381.211h-35.5a.7.7,0,0,1-.667-.518l-5.324-20.876a.735.735,0,0,1,.123-.586.667.667,0,0,1,.545-.272H88.2a.695.695,0,0,1,.654.858l-5.324,20.876A.667.667,0,0,1,82.877,381.211Zm-34.97-1.362H82.346l4.97-19.473H42.923Z" transform="translate(-2.443 -165.841)" fill="#263238"/>
    </g>
    <g id="freepik--Device--inject-49" transform="translate(18.975 41.307)">
      <path id="Path_1515" data-name="Path 1515" d="M650.791,474.432H18.011a.681.681,0,1,1,0-1.362h632.78a.681.681,0,0,1,0,1.362Z" transform="translate(-17.33 123.909)" fill="#263238"/>
      <path id="Path_1516" data-name="Path 1516" d="M370.251,64.642V532.568a23.259,23.259,0,0,1-23.259,23.259H144.8a23.259,23.259,0,0,1-23.259-23.259V64.629a23.245,23.245,0,0,1,23.245-23.245H231.57l.082.259c2.179,7.789,7.136,12.841,12.664,12.841h3.132c5.529,0,10.5-5.066,12.664-12.855l.1-.259h86.785A23.259,23.259,0,0,1,370.251,64.642Z" transform="translate(20.368 -32.26)" fill="#fff"/>
      <path id="Path_1517" data-name="Path 1517" d="M347.187,556.685H144.994A23.967,23.967,0,0,1,121,532.745V64.806A23.953,23.953,0,0,1,144.926,40.88h87.3l.218.763c2.083,7.5,6.809,12.351,12.011,12.351h3.186c5.216,0,9.927-4.848,12.011-12.351l.245-.763h87.288a23.967,23.967,0,0,1,23.94,23.94V532.745a23.967,23.967,0,0,1-23.94,23.94ZM144.98,42.242a22.592,22.592,0,0,0-22.619,22.564V532.745a22.605,22.605,0,0,0,22.578,22.578H347.187a22.605,22.605,0,0,0,22.578-22.578V64.82a22.605,22.605,0,0,0-22.578-22.578H260.934c-2.288,7.966-7.476,13.114-13.263,13.114h-3.159c-5.787,0-10.976-5.147-13.263-13.114Z" transform="translate(20.173 -32.437)" fill="#263238"/>
      <rect id="Rectangle_90" data-name="Rectangle 90" width="85.314" height="26.581" rx="4.84" transform="translate(225.724 314.797)" fill="#263238"/>
      <path id="Path_1518" data-name="Path 1518" d="M261.995,293.293H189.822a7.285,7.285,0,0,1-7.272-7.272v-13.4a7.272,7.272,0,0,1,7.272-7.272h72.173a7.285,7.285,0,0,1,7.285,7.272v13.4A7.285,7.285,0,0,1,261.995,293.293Zm-72.173-26.581a5.91,5.91,0,0,0-5.91,5.91v13.4a5.924,5.924,0,0,0,5.91,5.91h72.173a5.924,5.924,0,0,0,5.924-5.91v-13.4a5.91,5.91,0,0,0-5.924-5.91Z" transform="translate(42.439 48.766)" fill="#263238"/>
      <path id="Path_1519" data-name="Path 1519" d="M121.54,312.26V434.573A23.259,23.259,0,0,0,144.8,457.831H346.992a23.259,23.259,0,0,0,23.259-23.259V312.26Z" transform="translate(20.368 65.736)" fill="#dbdbdb"/>
      <path id="Path_1520" data-name="Path 1520" d="M347.187,458.693H144.994A23.967,23.967,0,0,1,121,434.754V312.441a.681.681,0,0,1,.681-.681H370.446a.681.681,0,0,1,.681.681V434.754a23.967,23.967,0,0,1-23.94,23.94ZM122.362,313.122V434.754a22.605,22.605,0,0,0,22.578,22.578H347.187a22.605,22.605,0,0,0,22.578-22.578V313.122Z" transform="translate(20.173 65.555)" fill="#263238"/>
      <rect id="Rectangle_91" data-name="Rectangle 91" width="68.183" height="22.905" rx="2.27" transform="translate(152.557 392.757)" fill="#fff"/>
      <rect id="Rectangle_92" data-name="Rectangle 92" width="68.183" height="22.905" rx="2.27" transform="translate(228.87 392.757)" fill="#fff"/>
      <rect id="Rectangle_93" data-name="Rectangle 93" width="68.183" height="22.905" rx="2.27" transform="translate(305.169 392.757)" fill="#fff"/>
      <rect id="Rectangle_94" data-name="Rectangle 94" width="68.183" height="22.905" rx="2.27" transform="translate(152.557 422.035)" fill="#fff"/>
      <rect id="Rectangle_95" data-name="Rectangle 95" width="68.183" height="22.905" rx="2.27" transform="translate(228.87 422.035)" fill="#fff"/>
      <rect id="Rectangle_96" data-name="Rectangle 96" width="68.183" height="22.905" rx="2.27" transform="translate(305.169 422.035)" fill="#fff"/>
      <rect id="Rectangle_97" data-name="Rectangle 97" width="68.183" height="22.905" rx="2.27" transform="translate(152.557 451.299)" fill="#fff"/>
      <rect id="Rectangle_98" data-name="Rectangle 98" width="68.183" height="22.905" rx="2.27" transform="translate(228.87 451.299)" fill="#fff"/>
      <rect id="Rectangle_99" data-name="Rectangle 99" width="68.183" height="22.905" rx="2.27" transform="translate(305.169 451.299)" fill="#fff"/>
      <rect id="Rectangle_100" data-name="Rectangle 100" width="68.183" height="22.905" rx="2.27" transform="translate(228.87 480.577)" fill="#fff"/>
      <path id="Path_1521" data-name="Path 1521" d="M299.2,410.495H256.658l-9.178-10.663,9.178-12.242H299.2Z" transform="translate(65.928 92.987)" fill="#fff"/>
      <path id="Path_1522" data-name="Path 1522" d="M227.268,119.323l-.613-.463-.613.463s-31.32,17.825-45.483,24.593c0,0,6.809,38.129,11.67,55.314s23.98,26.432,34.425,32.573c10.458-6.142,29.509-15.361,34.425-32.573s11.684-55.314,11.684-55.314C258.616,137.148,227.268,119.323,227.268,119.323Z" transform="translate(41.719 -4.228)" fill="#ff725e"/>
      <path id="Path_1523" data-name="Path 1523" d="M218.014,184.344l-20.78-17.812a4.766,4.766,0,1,1,6.2-7.245l13.618,11.684,23.34-26.541a4.767,4.767,0,0,1,7.163,6.291Z" transform="translate(47.147 4.436)" fill="#fff"/>
      <rect id="Rectangle_101" data-name="Rectangle 101" width="28.27" height="28.27" transform="translate(158.958 248.86)" fill="#fff"/>
      <path id="Path_1524" data-name="Path 1524" d="M163.205,246.562H133.56V216.93h29.645ZM134.922,245.2h26.922V218.292H134.922Z" transform="translate(24.717 31.25)" fill="#263238"/>
      <rect id="Rectangle_102" data-name="Rectangle 102" width="28.27" height="28.27" transform="translate(197.073 248.86)" fill="#fff"/>
      <path id="Path_1525" data-name="Path 1525" d="M191.182,246.562H161.55V216.93h29.632Zm-28.27-1.362H189.82V218.292H162.912Z" transform="translate(34.842 31.25)" fill="#263238"/>
      <rect id="Rectangle_103" data-name="Rectangle 103" width="28.27" height="28.27" transform="translate(235.188 248.86)" fill="#fff"/>
      <path id="Path_1526" data-name="Path 1526" d="M219.172,246.562H189.54V216.93h29.632ZM190.9,245.2H217.81V218.292H190.9Z" transform="translate(44.968 31.25)" fill="#263238"/>
      <rect id="Rectangle_104" data-name="Rectangle 104" width="28.27" height="28.27" transform="translate(273.29 248.86)" fill="#fff"/>
      <path id="Path_1527" data-name="Path 1527" d="M247.165,246.562H217.52V216.93h29.645ZM218.882,245.2H245.8V218.292H218.882Z" transform="translate(55.089 31.25)" fill="#263238"/>
      <rect id="Rectangle_105" data-name="Rectangle 105" width="28.27" height="28.27" transform="translate(311.406 248.86)" fill="#fff"/>
      <path id="Path_1528" data-name="Path 1528" d="M275.142,246.562H245.51V216.93h29.632Zm-28.27-1.362H273.78V218.292H246.872Z" transform="translate(65.215 31.25)" fill="#263238"/>
      <rect id="Rectangle_106" data-name="Rectangle 106" width="28.27" height="28.27" transform="translate(349.521 248.86)" fill="#fff"/>
      <path id="Path_1529" data-name="Path 1529" d="M303.132,246.562H273.5V216.93h29.632Zm-28.27-1.362H301.77V218.292H274.862Z" transform="translate(75.34 31.25)" fill="#263238"/>
      <path id="Path_1530" data-name="Path 1530" d="M370.251,86.4V64.615a23.259,23.259,0,0,0-23.259-23.232H260.221l-.082.259c-2.165,7.789-7.136,12.841-12.692,12.841h-3.132c-5.529,0-10.513-5.066-12.664-12.855l-.082-.259H144.785A23.245,23.245,0,0,0,121.54,64.615V86.4Z" transform="translate(20.368 -32.26)" fill="#dbdbdb"/>
      <path id="Path_1531" data-name="Path 1531" d="M370.418,87.265h-248.7a.681.681,0,0,1-.681-.681V64.8A23.953,23.953,0,0,1,144.966,40.87h86.785a.667.667,0,0,1,.654.5l.082.259c2.083,7.5,6.809,12.351,12.011,12.351h3.132c5.216,0,9.927-4.848,12.011-12.351l.1-.286a.667.667,0,0,1,.64-.477h86.8A23.953,23.953,0,0,1,371.1,64.81V86.6A.681.681,0,0,1,370.418,87.265ZM122.347,85.9h247.39V64.823a22.592,22.592,0,0,0-22.564-22.578H260.919c-2.288,7.966-7.476,13.114-13.263,13.114H244.5c-5.787,0-10.976-5.147-13.263-13.114H144.966A22.591,22.591,0,0,0,122.347,64.81Z" transform="translate(20.187 -32.441)" fill="#263238"/>
      <path id="Path_1532" data-name="Path 1532" d="M389.15,178.641V131.905h-4.235V72.07a36.876,36.876,0,0,0-36.876-36.89H149.931A36.89,36.89,0,0,0,113,72.07V547.526A36.876,36.876,0,0,0,149.89,584.4H348.039a36.863,36.863,0,0,0,36.876-36.876V218.472h4.235V190.856h-4.235V178.6ZM373.34,521.176a36.89,36.89,0,0,1-36.89,36.89H161.519a36.89,36.89,0,0,1-36.89-36.89V80.5a36.89,36.89,0,0,1,36.89-36.876h73.14l.082.259c2.179,7.789,7.136,12.841,12.664,12.841h3.132c5.529,0,10.5-5.066,12.664-12.855l.1-.259h73.126a36.89,36.89,0,0,1,36.89,36.876Z" transform="translate(17.279 -34.499)" fill="#ff725e"/>
      <path id="Path_1533" data-name="Path 1533" d="M348.209,585.264H150.1a37.612,37.612,0,0,1-37.571-37.557V72.251A37.625,37.625,0,0,1,150.1,34.68H348.209a37.612,37.612,0,0,1,37.557,37.571v59.155h3.554a.681.681,0,0,1,.681.681v46.735a.681.681,0,0,1-.681.681h-3.554V190.4h3.554a.681.681,0,0,1,.681.681v27.616a.681.681,0,0,1-.681.681h-3.554V547.707a37.6,37.6,0,0,1-37.557,37.557ZM150.1,36.042a36.25,36.25,0,0,0-36.209,36.209V547.707A36.236,36.236,0,0,0,150.1,583.9H348.209a36.236,36.236,0,0,0,36.2-36.2V218.653a.681.681,0,0,1,.681-.681h3.554V191.717h-3.554a.7.7,0,0,1-.681-.681V178.781a.681.681,0,0,1,.681-.681h3.554V132.767h-3.554a.7.7,0,0,1-.681-.681V72.251a36.236,36.236,0,0,0-36.2-36.209Zm186.56,522.913H161.689a37.625,37.625,0,0,1-37.625-37.6V80.68a37.612,37.612,0,0,1,37.571-37.557h73.14a.654.654,0,0,1,.654.5l.082.259c2.083,7.5,6.809,12.351,12.011,12.351h3.187c5.216,0,9.927-4.848,12.011-12.351l.1-.286a.667.667,0,0,1,.64-.477h73.14A37.612,37.612,0,0,1,374.164,80.68V521.357a37.625,37.625,0,0,1-37.544,37.571ZM161.689,44.485a36.236,36.236,0,0,0-36.264,36.2V521.357a36.25,36.25,0,0,0,36.209,36.209H336.62a36.25,36.25,0,0,0,36.209-36.209V80.68a36.236,36.236,0,0,0-36.209-36.2H264C261.71,52.451,256.522,57.6,250.734,57.6h-3.159c-5.787,0-10.976-5.147-13.263-13.114Z" transform="translate(17.109 -34.68)" fill="#263238"/>
      <path id="Path_1534" data-name="Path 1534" d="M343.937,38.91h-192.2A35.583,35.583,0,0,0,116.17,74.438V542.4a35.569,35.569,0,0,0,35.569,35.569h192.2A35.569,35.569,0,0,0,379.506,542.4V74.438A35.583,35.583,0,0,0,343.937,38.91Zm28.256,482.183a35.583,35.583,0,0,1-35.583,35.569H159.065a35.583,35.583,0,0,1-35.583-35.569V77.829a35.555,35.555,0,0,1,35.569-35.555h74.461l.082.259c2.179,7.789,7.136,12.841,12.664,12.841h3.132c5.529,0,10.5-5.066,12.664-12.855l.1-.259h74.433a35.569,35.569,0,0,1,35.61,35.583Z" transform="translate(18.426 -33.15)" fill="#263238"/>
      <path id="Path_1535" data-name="Path 1535" d="M344.118,578.846H151.92a36.291,36.291,0,0,1-36.25-36.25V74.63a36.291,36.291,0,0,1,36.25-36.25h192.2a36.291,36.291,0,0,1,36.25,36.25V542.6a36.291,36.291,0,0,1-36.25,36.25ZM151.92,39.8A34.929,34.929,0,0,0,117.032,74.63V542.6a34.929,34.929,0,0,0,34.888,34.888h192.2A34.929,34.929,0,0,0,379.006,542.6V74.63a34.929,34.929,0,0,0-34.888-34.888ZM336.792,557.589H159.246a36.3,36.3,0,0,1-36.318-36.3V78.021a36.291,36.291,0,0,1,36.25-36.236h74.461a.654.654,0,0,1,.654.5l.082.259c2.083,7.5,6.809,12.351,12.011,12.351h3.187c5.216,0,9.927-4.848,12.011-12.351l.1-.286a.667.667,0,0,1,.64-.477h74.447a36.3,36.3,0,0,1,36.291,36.25V521.285a36.3,36.3,0,0,1-36.264,36.3ZM159.232,43.146A34.915,34.915,0,0,0,124.29,78.021V521.285a34.943,34.943,0,0,0,34.9,34.888h177.6a34.943,34.943,0,0,0,34.9-34.888V78.034a34.929,34.929,0,0,0-34.9-34.888h-73.93c-2.288,7.966-7.476,13.114-13.263,13.114h-3.159c-5.787,0-10.976-5.147-13.263-13.114Z" transform="translate(18.245 -33.342)" fill="#263238"/>
      <path id="Path_1536" data-name="Path 1536" d="M216.678,43.585a3.459,3.459,0,1,0-1.008,2.455,3.459,3.459,0,0,0,1.008-2.455Z" transform="translate(52.282 -32.705)" fill="#fff"/>
      <path id="Path_1537" data-name="Path 1537" d="M139.169,53.205c0,3.5-3.935,4.766-3.963,7.435V60.8h3.827v1.185H133.94v-.994c0-3.758,3.935-4.48,3.935-7.762,0-1.185-.409-1.825-1.362-1.825s-1.362.681-1.362,1.716v1.021H133.94v-.94c0-1.784.8-2.955,2.6-2.955S139.169,51.421,139.169,53.205Z" transform="translate(24.854 -29.047)" fill="#263238"/>
      <path id="Path_1538" data-name="Path 1538" d="M143.85,53.174v.3a2.329,2.329,0,0,1-1.362,2.4,2.315,2.315,0,0,1,1.362,2.41v.9c0,1.77-.831,2.928-2.628,2.928s-2.6-1.157-2.6-2.928v-.8h1.212v.885c0,1.035.422,1.675,1.362,1.675s1.362-.613,1.362-1.8v-.9c0-1.144-.49-1.689-1.471-1.716h-.694V55.353h.763a1.362,1.362,0,0,0,1.362-1.593v-.531c0-1.2-.422-1.811-1.362-1.811s-1.362.654-1.362,1.7v.586H138.58v-.531c0-1.77.831-2.914,2.6-2.914S143.85,51.4,143.85,53.174Z" transform="translate(26.533 -29.044)" fill="#263238"/>
      <path id="Path_1539" data-name="Path 1539" d="M144.623,53.05v1.607H143.37V53.05Zm0,6.332v1.607H143.37V59.382Z" transform="translate(28.265 -28.035)" fill="#263238"/>
      <path id="Path_1540" data-name="Path 1540" d="M146.578,55.079a1.852,1.852,0,0,1,1.716-.967c1.5,0,2.165,1.1,2.165,2.724V59.11c0,1.77-.844,2.928-2.628,2.928s-2.6-1.157-2.6-2.928v-.79h1.212v.872c0,1.035.436,1.675,1.362,1.675s1.362-.64,1.362-1.675v-2.22c0-1.049-.436-1.675-1.362-1.675a1.253,1.253,0,0,0-1.362,1.239v.272h-1.2l.313-6.468h4.575v1.171h-3.418Z" transform="translate(28.938 -29.015)" fill="#263238"/>
      <path id="Path_1541" data-name="Path 1541" d="M155.228,53.161v.218h-1.212v-.3c0-1.049-.422-1.661-1.362-1.661s-1.362.64-1.362,1.879v2.6a1.893,1.893,0,0,1,1.879-1.239c1.5,0,2.165,1.076,2.165,2.724v1.77c0,1.77-.885,2.928-2.724,2.928s-2.723-1.157-2.723-2.928v-5.91c0-1.838.831-2.982,2.723-2.982S155.228,51.39,155.228,53.161Zm-4,4.358v1.743c0,1.035.436,1.675,1.362,1.675s1.362-.64,1.362-1.675V57.518c0-1.049-.449-1.675-1.362-1.675S151.225,56.47,151.225,57.518Z" transform="translate(30.624 -29.044)" fill="#263238"/>
      <rect id="Rectangle_107" data-name="Rectangle 107" width="3.282" height="8.198" transform="translate(309.445 24.634)" fill="#263238"/>
      <rect id="Rectangle_108" data-name="Rectangle 108" width="3.282" height="9.845" transform="translate(313.816 22.986)" fill="#263238"/>
      <rect id="Rectangle_109" data-name="Rectangle 109" width="3.282" height="11.017" transform="translate(318.187 21.815)" fill="#263238"/>
      <rect id="Rectangle_110" data-name="Rectangle 110" width="3.282" height="13.046" transform="translate(322.572 19.786)" fill="#263238"/>
      <path id="Path_1542" data-name="Path 1542" d="M291.65,61.828H272V49.79h19.677Zm-18.588-1.1h17.5V50.879h-17.5Z" transform="translate(74.798 -29.214)" fill="#263238"/>
      <rect id="Rectangle_111" data-name="Rectangle 111" width="10.39" height="7.462" transform="translate(349.494 22.864)" fill="#263238"/>
      <rect id="Rectangle_112" data-name="Rectangle 112" width="2.478" height="2.832" transform="translate(365.767 25.179)" fill="#263238"/>
      <path id="Path_1543" data-name="Path 1543" d="M268.912,57.393a.749.749,0,0,1-.381-.1c-4-2.383-6.659-.177-6.809-.082a.735.735,0,0,1-1.035,0,.749.749,0,0,1,.068-1.035c.136-.123,3.527-3.023,8.484-.082a.735.735,0,0,1,.259,1.008.722.722,0,0,1-.586.286Z" transform="translate(70.642 -27.407)" fill="#263238"/>
      <path id="Path_1544" data-name="Path 1544" d="M270.766,55.7a.613.613,0,0,1-.368-.109c-5.8-3.445-9.7-.109-9.737-.082a.735.735,0,0,1-1.035,0,.763.763,0,0,1,.068-1.049s4.753-4.085,11.452,0a.735.735,0,0,1-.381,1.362Z" transform="translate(70.258 -28.18)" fill="#263238"/>
      <path id="Path_1545" data-name="Path 1545" d="M272.472,53.714a.722.722,0,0,1-.368-.109c-7.34-4.358-12.256-.259-12.419-.082a.735.735,0,0,1-1.049,0,.749.749,0,0,1,.068-1.035c.068,0,5.856-5.011,14.149-.082a.749.749,0,0,1,.259,1.008A.763.763,0,0,1,272.472,53.714Z" transform="translate(69.9 -29.052)" fill="#263238"/>
      <path id="Path_1546" data-name="Path 1546" d="M266.034,58.1a1.838,1.838,0,1,1-.534-1.309A1.852,1.852,0,0,1,266.034,58.1Z" transform="translate(71.3 -26.877)" fill="#263238"/>
      <path id="Path_1547" data-name="Path 1547" d="M274.737,399.089l6.632-6.632a2.043,2.043,0,0,0-2.887-2.887L271.85,396.2l-6.632-6.632a2.046,2.046,0,1,0-2.9,2.887l6.6,6.632-6.645,6.632a2.046,2.046,0,1,0,2.9,2.887l6.632-6.632,6.632,6.632a2,2,0,0,0,1.443.6,1.975,1.975,0,0,0,1.443-.6,2.029,2.029,0,0,0,0-2.887Z" transform="translate(71.066 93.485)" fill="#263238"/>
      <path id="Path_1548" data-name="Path 1548" d="M152.456,341.675V328.262l-.477.191-.79.232-.79.218a2.847,2.847,0,0,0-.49.163v-2.111l.708-.286.912-.422a7.327,7.327,0,0,0,.9-.517,3.743,3.743,0,0,0,.681-.6h2.165v16.545Z" transform="translate(30.631 70.391)" fill="#263238"/>
      <path id="Path_1549" data-name="Path 1549" d="M207.8,341.726v-1.988l4.085-6.319c.3-.463.586-.9.844-1.362a6.17,6.17,0,0,0,.654-1.362,4.2,4.2,0,0,0,.259-1.512,2.547,2.547,0,0,0-.327-1.362,1.144,1.144,0,0,0-1.021-.49,1.362,1.362,0,0,0-1.021.368,1.947,1.947,0,0,0-.5.953,6.426,6.426,0,0,0-.136,1.362v.708h-2.723v-.735a6.81,6.81,0,0,1,.449-2.587,3.637,3.637,0,0,1,1.362-1.757,4.63,4.63,0,0,1,2.438-.64,4.085,4.085,0,0,1,3.187,1.144,4.508,4.508,0,0,1,1.062,3.187,5.68,5.68,0,0,1-.286,1.852,8.033,8.033,0,0,1-.763,1.58q-.463.763-1.021,1.552l-3.391,5.147h5.025v2.261Z" transform="translate(51.573 70.341)" fill="#263238"/>
      <path id="Path_1550" data-name="Path 1550" d="M267.46,341.972a4.848,4.848,0,0,1-2.506-.572,3.377,3.377,0,0,1-1.362-1.661,6.632,6.632,0,0,1-.422-2.492v-.572h2.724v.477a6.955,6.955,0,0,0,.15,1.362,1.58,1.58,0,0,0,.449.844,1.43,1.43,0,0,0,.94.286,1.28,1.28,0,0,0,.94-.313,1.648,1.648,0,0,0,.436-.9,8.44,8.44,0,0,0,.109-1.362,4.29,4.29,0,0,0-.395-1.988,1.689,1.689,0,0,0-1.539-.776h-.477v-2.356h.517a1.879,1.879,0,0,0,1.552-.6,3.254,3.254,0,0,0,.422-1.879,3.635,3.635,0,0,0-.313-1.634,1.253,1.253,0,0,0-1.212-.586,1.185,1.185,0,0,0-1.185.654,4.441,4.441,0,0,0-.313,1.689v.613h-2.724v-.79a5.339,5.339,0,0,1,.49-2.4,3.432,3.432,0,0,1,1.471-1.511,4.752,4.752,0,0,1,2.329-.518,5,5,0,0,1,2.369.5,3.4,3.4,0,0,1,1.457,1.484,5.173,5.173,0,0,1,.5,2.369,4.331,4.331,0,0,1-.763,2.465,2.723,2.723,0,0,1-1.58,1.226,2.723,2.723,0,0,1,1.144.708,3.419,3.419,0,0,1,.763,1.362,5.9,5.9,0,0,1,.286,1.961,7.681,7.681,0,0,1-.422,2.615,3.527,3.527,0,0,1-1.362,1.77,4.453,4.453,0,0,1-2.478.517Z" transform="translate(71.603 70.34)" fill="#263238"/>
      <path id="Path_1551" data-name="Path 1551" d="M154.1,363.223v-4.085H149.16v-2.41l4.3-10.077h3.3v10.24h1.716v2.247h-1.689v4.085Zm-2.574-6.3H154.1v-7.19Z" transform="translate(30.36 78.176)" fill="#263238"/>
      <path id="Path_1552" data-name="Path 1552" d="M212.108,363.46a4.535,4.535,0,0,1-2.56-.613,3.078,3.078,0,0,1-1.253-1.729,8.553,8.553,0,0,1-.354-2.642h2.724a8.171,8.171,0,0,0,.109,1.484,1.784,1.784,0,0,0,.449.994,1.185,1.185,0,0,0,.98.34,1.117,1.117,0,0,0,1.021-.463,2.982,2.982,0,0,0,.368-1.28c0-.558.082-1.2.082-1.934a10.159,10.159,0,0,0-.109-1.675,2.261,2.261,0,0,0-.436-1.117,1.266,1.266,0,0,0-1.021-.395,1.362,1.362,0,0,0-.98.395,2.491,2.491,0,0,0-.572,1.062h-2.438l.163-9.219h7.435V349.2h-5.052l-.163,3.99a1.989,1.989,0,0,1,.885-.6,4.193,4.193,0,0,1,1.362-.259,3.186,3.186,0,0,1,2.124.545,3.554,3.554,0,0,1,1.2,1.784,8.81,8.81,0,0,1,.395,2.724,14.736,14.736,0,0,1-.177,2.41,5.338,5.338,0,0,1-.64,1.906,3.255,3.255,0,0,1-1.362,1.253A4.644,4.644,0,0,1,212.108,363.46Z" transform="translate(51.623 78.184)" fill="#263238"/>
      <path id="Path_1553" data-name="Path 1553" d="M267.53,363.5a3.734,3.734,0,0,1-3.854-2.669,8.416,8.416,0,0,1-.436-2.724v-5.8a10.663,10.663,0,0,1,.368-2.914,3.908,3.908,0,0,1,1.362-2.056,4.085,4.085,0,0,1,2.628-.749,5.025,5.025,0,0,1,2.369.477,2.968,2.968,0,0,1,1.362,1.362,5.324,5.324,0,0,1,.422,2.261s0,.082,0,.136a.463.463,0,0,1,0,.136h-2.724a4.085,4.085,0,0,0-.259-1.661,1.13,1.13,0,0,0-1.144-.545,1.158,1.158,0,0,0-.858.327,2.029,2.029,0,0,0-.477,1.062,9.833,9.833,0,0,0-.163,2v1.975a2.069,2.069,0,0,1,.872-.749,3.854,3.854,0,0,1,3.486.327,3.391,3.391,0,0,1,1.117,1.689,8.606,8.606,0,0,1,.327,2.478,9.529,9.529,0,0,1-.409,2.887,3.745,3.745,0,0,1-3.99,2.751Zm0-2.192a1.1,1.1,0,0,0,.9-.368,2.207,2.207,0,0,0,.436-1.021,8.33,8.33,0,0,0,.122-1.525,11.659,11.659,0,0,0-.068-1.607,2.356,2.356,0,0,0-.381-1.13,1.2,1.2,0,0,0-1.021-.409,1.621,1.621,0,0,0-.64.123,2,2,0,0,0-.517.34,2.261,2.261,0,0,0-.34.409v2.6a6.253,6.253,0,0,0,.136,1.28,2.029,2.029,0,0,0,.477.953,1.185,1.185,0,0,0,.912.34Z" transform="translate(71.629 78.149)" fill="#263238"/>
      <path id="Path_1554" data-name="Path 1554" d="M150.84,384.755l3.35-14.38h-4.48V368.21h7.2v1.729l-3.336,14.816Z" transform="translate(30.559 85.976)" fill="#263238"/>
      <path id="Path_1555" data-name="Path 1555" d="M212.054,385.028a4.535,4.535,0,0,1-2.533-.626,3.431,3.431,0,0,1-1.362-1.77A7.721,7.721,0,0,1,207.75,380a6.468,6.468,0,0,1,.123-1.362,4.4,4.4,0,0,1,.395-1.1,3.309,3.309,0,0,1,.626-.858,3.1,3.1,0,0,1,.831-.626,4.168,4.168,0,0,1-1.239-1.362,4.78,4.78,0,0,1-.517-2.26,5.774,5.774,0,0,1,.436-2.329,3.145,3.145,0,0,1,1.362-1.511,4.508,4.508,0,0,1,2.288-.531,4.44,4.44,0,0,1,2.288.531A3.213,3.213,0,0,1,215.7,370.1a5.352,5.352,0,0,1,.422,2.329,4.807,4.807,0,0,1-.5,2.274,3.894,3.894,0,0,1-1.212,1.362,3.173,3.173,0,0,1,.844.626,3.268,3.268,0,0,1,.613.858,4.4,4.4,0,0,1,.395,1.1,6.429,6.429,0,0,1,.136,1.362,7.108,7.108,0,0,1-.409,2.628,3.5,3.5,0,0,1-1.362,1.77,4.549,4.549,0,0,1-2.574.613Zm0-2.138a1.212,1.212,0,0,0,1.008-.409,2.056,2.056,0,0,0,.449-1.035,7.863,7.863,0,0,0,.1-1.28,6.17,6.17,0,0,0-.1-1.362,2.4,2.4,0,0,0-.463-1.049,1.226,1.226,0,0,0-.994-.409,1.171,1.171,0,0,0-.967.409,2.356,2.356,0,0,0-.477,1.035,7.1,7.1,0,0,0-.123,1.362,6.81,6.81,0,0,0,.109,1.294,2.07,2.07,0,0,0,.463,1.035,1.266,1.266,0,0,0,.994.477Zm0-7.912a1.035,1.035,0,0,0,.8-.354,1.893,1.893,0,0,0,.422-.926,6.685,6.685,0,0,0,.123-1.362,3.364,3.364,0,0,0-.3-1.539,1.089,1.089,0,0,0-1.049-.586A1.1,1.1,0,0,0,211,370.8a2.955,2.955,0,0,0-.34,1.512,5.911,5.911,0,0,0,.136,1.362,1.893,1.893,0,0,0,.436.94,1.089,1.089,0,0,0,.817.368Z" transform="translate(51.555 85.921)" fill="#263238"/>
      <path id="Path_1556" data-name="Path 1556" d="M212.054,406.141a4.317,4.317,0,0,1-2.4-.6,3.8,3.8,0,0,1-1.43-1.7,5.978,5.978,0,0,1-.477-2.492v-7.34a6.373,6.373,0,0,1,.463-2.533,3.541,3.541,0,0,1,1.362-1.7,5.161,5.161,0,0,1,4.875,0,3.636,3.636,0,0,1,1.362,1.7,6.617,6.617,0,0,1,.463,2.533v7.34a5.977,5.977,0,0,1-.49,2.492,3.8,3.8,0,0,1-1.43,1.7A4.317,4.317,0,0,1,212.054,406.141Zm0-2.424a1.158,1.158,0,0,0,.94-.381,2.166,2.166,0,0,0,.409-.953,5.756,5.756,0,0,0,.109-1.076v-7.258a8.077,8.077,0,0,0-.1-1.13,2.152,2.152,0,0,0-.395-.953,1.157,1.157,0,0,0-.967-.381,1.13,1.13,0,0,0-.953.381,2.165,2.165,0,0,0-.409.953,8.04,8.04,0,0,0-.082,1.13v7.258a4.807,4.807,0,0,0,.109,1.076,2.179,2.179,0,0,0,.422.953A1.117,1.117,0,0,0,212.054,403.717Z" transform="translate(51.555 93.555)" fill="#263238"/>
      <path id="Path_1557" data-name="Path 1557" d="M267.324,385.025a5,5,0,0,1-2.356-.49,2.982,2.982,0,0,1-1.362-1.43,5.447,5.447,0,0,1-.422-2.288V380.6h2.724a3.922,3.922,0,0,0,.272,1.648,1.185,1.185,0,0,0,1.171.558,1.117,1.117,0,0,0,.858-.327,2.206,2.206,0,0,0,.449-1.089,10.886,10.886,0,0,0,.15-1.974v-1.988a1.907,1.907,0,0,1-.858.735,3.474,3.474,0,0,1-1.362.286,3.2,3.2,0,0,1-2.111-.613,3.568,3.568,0,0,1-1.117-1.757,8.292,8.292,0,0,1-.34-2.492,8.661,8.661,0,0,1,.422-2.86,3.949,3.949,0,0,1,1.362-1.947,4.208,4.208,0,0,1,2.519-.708,4.086,4.086,0,0,1,2.492.695,3.867,3.867,0,0,1,1.362,1.879,8.17,8.17,0,0,1,.436,2.724v5.855a10.31,10.31,0,0,1-.381,2.928,3.949,3.949,0,0,1-1.362,2.07A3.99,3.99,0,0,1,267.324,385.025Zm0-8.715a1.361,1.361,0,0,0,.912-.286,2.521,2.521,0,0,0,.545-.613v-2.574a6.235,6.235,0,0,0-.123-1.294,2.015,2.015,0,0,0-.436-.94,1.157,1.157,0,0,0-.912-.368,1.089,1.089,0,0,0-.885.368,2.083,2.083,0,0,0-.449,1.021,8.482,8.482,0,0,0-.123,1.539,14.111,14.111,0,0,0,.082,1.593,2.179,2.179,0,0,0,.368,1.13,1.171,1.171,0,0,0,1.035.422Z" transform="translate(71.549 85.924)" fill="#263238"/>
      <path id="Path_1558" data-name="Path 1558" d="M197.21,285.835V269.29h6.945v2.124h-3.922v4.753h3.091v2.111h-3.091v5.447H204.2v2.083Z" transform="translate(47.742 50.191)" fill="#ff725e"/>
      <path id="Path_1559" data-name="Path 1559" d="M203.63,285.835V269.29h2.111l4.017,9.437V269.29H212.3v16.545h-2l-4.085-9.886v9.886Z" transform="translate(50.065 50.191)" fill="#ff725e"/>
      <path id="Path_1560" data-name="Path 1560" d="M213.7,285.835V271.51H211.07v-2.22h8.252v2.22h-2.6v14.326Z" transform="translate(52.756 50.191)" fill="#ff725e"/>
      <path id="Path_1561" data-name="Path 1561" d="M218.26,285.835V269.29H225.2v2.124h-3.922v4.753h3.078v2.111h-3.078v5.447h3.963v2.083Z" transform="translate(55.357 50.191)" fill="#ff725e"/>
      <path id="Path_1562" data-name="Path 1562" d="M224.68,285.836V269.291h3.963a8.621,8.621,0,0,1,2.832.395,3.268,3.268,0,0,1,1.757,1.362,4.957,4.957,0,0,1,.6,2.615,7.993,7.993,0,0,1-.191,1.8,3.418,3.418,0,0,1-.613,1.362,2.833,2.833,0,0,1-1.226.872l2.315,8.171h-3.023l-2-7.585H227.73v7.585ZM227.7,276.3h.94a3.352,3.352,0,0,0,1.362-.259,1.553,1.553,0,0,0,.735-.817,3.949,3.949,0,0,0,.232-1.443,3.064,3.064,0,0,0-.463-1.866,2.015,2.015,0,0,0-1.743-.626h-1.1Z" transform="translate(57.68 50.19)" fill="#ff725e"/>
      <path id="Path_1563" data-name="Path 1563" d="M168.007,110.089,165.12,95.75h2.315l1.893,10.145L171.1,95.75h2.369l-2.887,14.339Z" transform="translate(36.134 -12.588)" fill="#263238"/>
      <path id="Path_1564" data-name="Path 1564" d="M172.33,110.089V95.75h6.019v1.838h-3.391v4.085h2.724V103.5h-2.724v4.848h3.432v1.8Z" transform="translate(38.742 -12.588)" fill="#263238"/>
      <path id="Path_1565" data-name="Path 1565" d="M177.89,110.09V95.75h3.445a7.516,7.516,0,0,1,2.451.354,2.819,2.819,0,0,1,1.525,1.171,4.3,4.3,0,0,1,.518,2.261,6.808,6.808,0,0,1-.163,1.566,3,3,0,0,1-.531,1.171,2.492,2.492,0,0,1-1.062.763l2,7.054h-2.587l-1.743-6.564h-1.2v6.564Zm2.628-8.171h.817a2.723,2.723,0,0,0,1.212-.218,1.266,1.266,0,0,0,.64-.708,3.322,3.322,0,0,0,.191-1.253,2.724,2.724,0,0,0-.395-1.62,1.77,1.77,0,0,0-1.512-.531h-.953Z" transform="translate(40.753 -12.588)" fill="#263238"/>
      <path id="Path_1566" data-name="Path 1566" d="M185.21,110.089V95.75H187.8v14.339Z" transform="translate(43.401 -12.588)" fill="#263238"/>
      <path id="Path_1567" data-name="Path 1567" d="M188.74,110.089V95.75h5.9v1.811h-3.282v4.181h2.724v1.825h-2.724v6.523Z" transform="translate(44.678 -12.588)" fill="#263238"/>
      <path id="Path_1568" data-name="Path 1568" d="M194.12,110.089V95.75h2.56v14.339Z" transform="translate(46.624 -12.588)" fill="#263238"/>
      <path id="Path_1569" data-name="Path 1569" d="M201.562,110.335a4.331,4.331,0,0,1-2.478-.626,3.173,3.173,0,0,1-1.239-1.689,7.585,7.585,0,0,1-.354-2.465v-5.12a7.939,7.939,0,0,1,.354-2.546,2.968,2.968,0,0,1,1.239-1.661,4.453,4.453,0,0,1,2.478-.586,4.548,4.548,0,0,1,2.329.5,2.724,2.724,0,0,1,1.185,1.443,5.924,5.924,0,0,1,.354,2.165v1.212h-2.506V99.727a9.036,9.036,0,0,0,0-1.1,1.362,1.362,0,0,0-.34-.79,1.253,1.253,0,0,0-.94-.286,1.362,1.362,0,0,0-.98.313,1.553,1.553,0,0,0-.409.831,7.516,7.516,0,0,0-.082,1.171V106.1a5.585,5.585,0,0,0,.123,1.28,1.23,1.23,0,0,0,1.348,1.021,1.185,1.185,0,0,0,.926-.313,1.362,1.362,0,0,0,.34-.817,7.466,7.466,0,0,0,.082-1.158v-1.362H205.5v1.158a7.245,7.245,0,0,1-.327,2.261,3.037,3.037,0,0,1-1.185,1.539A4.276,4.276,0,0,1,201.562,110.335Z" transform="translate(47.843 -12.629)" fill="#263238"/>
      <path id="Path_1570" data-name="Path 1570" d="M204.13,110.089l2.86-14.339h2.805l2.86,14.339h-2.424l-.558-3.309h-2.506l-.572,3.309Zm3.309-4.97H209.4l-.98-6.019Z" transform="translate(50.246 -12.588)" fill="#263238"/>
      <path id="Path_1571" data-name="Path 1571" d="M212.608,110.089V97.684H210.32V95.75h7.149v1.934h-2.247v12.406Z" transform="translate(52.485 -12.588)" fill="#263238"/>
      <path id="Path_1572" data-name="Path 1572" d="M216.59,110.089V95.75h2.587v14.339Z" transform="translate(54.753 -12.588)" fill="#263238"/>
      <path id="Path_1573" data-name="Path 1573" d="M224.086,110.35a4.466,4.466,0,0,1-2.424-.572,3.173,3.173,0,0,1-1.294-1.634,7.272,7.272,0,0,1-.368-2.465v-5.447a7.136,7.136,0,0,1,.395-2.492,3.091,3.091,0,0,1,1.239-1.593,4.6,4.6,0,0,1,2.424-.545,4.671,4.671,0,0,1,2.451.545,3.159,3.159,0,0,1,1.294,1.58,7.135,7.135,0,0,1,.368,2.506v5.447a7.245,7.245,0,0,1-.395,2.492,3.268,3.268,0,0,1-1.294,1.62,4.535,4.535,0,0,1-2.4.558Zm0-1.934a1.213,1.213,0,0,0,1.375-1.062,5.325,5.325,0,0,0,.109-1.076v-6.6a5.272,5.272,0,0,0-.109-1.089,1.362,1.362,0,0,0-.409-.749,1.457,1.457,0,0,0-.967-.327,1.43,1.43,0,0,0-.94.272,1.362,1.362,0,0,0-.422.749,4.479,4.479,0,0,0-.109,1.089v6.6a5.364,5.364,0,0,0,.1,1.076,1.3,1.3,0,0,0,1.375,1.1Z" transform="translate(55.986 -12.644)" fill="#263238"/>
      <path id="Path_1574" data-name="Path 1574" d="M227.44,110.089V95.75h1.825l3.486,8.171V95.75H234.9v14.339h-1.729l-3.5-8.552V110.1Z" transform="translate(58.678 -12.588)" fill="#263238"/>
      <path id="Path_1575" data-name="Path 1575" d="M241.592,110.335a4.317,4.317,0,0,1-2.465-.626,3.173,3.173,0,0,1-1.239-1.689,7.571,7.571,0,0,1-.368-2.465v-5.12a7.912,7.912,0,0,1,.368-2.546,2.969,2.969,0,0,1,1.239-1.661,4.426,4.426,0,0,1,2.465-.586,4.48,4.48,0,0,1,2.329.5,2.723,2.723,0,0,1,1.2,1.443,5.923,5.923,0,0,1,.354,2.165v1.212h-2.506V99.727a9.035,9.035,0,0,0-.068-1.1,1.362,1.362,0,0,0-.34-.79,1.253,1.253,0,0,0-.94-.286,1.362,1.362,0,0,0-.98.313,1.457,1.457,0,0,0-.409.831,7.516,7.516,0,0,0-.082,1.171V106.1a5.583,5.583,0,0,0,.123,1.28,1.23,1.23,0,0,0,1.348,1.021,1.185,1.185,0,0,0,.926-.313,1.5,1.5,0,0,0,.34-.817,7.466,7.466,0,0,0,.082-1.158v-1.362h2.506v1.158a6.809,6.809,0,0,1-.34,2.261,2.941,2.941,0,0,1-1.171,1.539,4.29,4.29,0,0,1-2.369.626Z" transform="translate(62.324 -12.629)" fill="#263238"/>
      <path id="Path_1576" data-name="Path 1576" d="M248.649,110.344a4.494,4.494,0,0,1-2.424-.572,3.173,3.173,0,0,1-1.294-1.634,7.285,7.285,0,0,1-.381-2.506v-5.406a7.164,7.164,0,0,1,.381-2.492,3.091,3.091,0,0,1,1.294-1.58,5.733,5.733,0,0,1,4.875,0,3.091,3.091,0,0,1,1.294,1.58,6.809,6.809,0,0,1,.395,2.492v5.447a6.931,6.931,0,0,1-.395,2.492,3.187,3.187,0,0,1-1.294,1.62,4.535,4.535,0,0,1-2.451.558Zm0-1.934a1.362,1.362,0,0,0,.967-.286,1.539,1.539,0,0,0,.422-.776,5.364,5.364,0,0,0,.1-1.076v-6.6a5.323,5.323,0,0,0-.1-1.089,1.512,1.512,0,0,0-.422-.749,1.8,1.8,0,0,0-1.906,0,1.362,1.362,0,0,0-.422.749,5.27,5.27,0,0,0-.109,1.089v6.6a6.586,6.586,0,0,0,.1,1.076,1.212,1.212,0,0,0,1.375,1.049Z" transform="translate(64.867 -12.638)" fill="#263238"/>
      <path id="Path_1577" data-name="Path 1577" d="M252,110.091V95.752h3.377a6.454,6.454,0,0,1,2.724.477,2.887,2.887,0,0,1,1.362,1.471,6.673,6.673,0,0,1,.409,2.519v5.243a7.11,7.11,0,0,1-.409,2.587,2.86,2.86,0,0,1-1.362,1.539,5.706,5.706,0,0,1-2.642.5Zm2.615-1.825h.8a2.029,2.029,0,0,0,1.294-.313,1.362,1.362,0,0,0,.477-.926,11.645,11.645,0,0,0,.082-1.5v-5.447a6.442,6.442,0,0,0-.123-1.362,1.171,1.171,0,0,0-.5-.776,2.506,2.506,0,0,0-1.266-.245h-.763Z" transform="translate(67.563 -12.589)" fill="#263238"/>
      <path id="Path_1578" data-name="Path 1578" d="M259.26,110.089V95.75h6.019v1.838h-3.4v4.085H264.6V103.5h-2.724v4.848h3.445v1.8Z" transform="translate(70.189 -12.588)" fill="#263238"/>
    </g>
    <g id="freepik--Arrow--inject-49" transform="translate(425.431 25.307)">
      <path id="Path_1579" data-name="Path 1579" d="M401.971,85.571a.681.681,0,0,1-.681-.681V78.081a.681.681,0,1,1,1.362,0V84.89A.681.681,0,0,1,401.971,85.571Zm0-13.618a.681.681,0,0,1-.681-.681V64.463a.681.681,0,1,1,1.362,0v6.809A.681.681,0,0,1,401.971,71.953Zm0-13.618a.681.681,0,0,1-.681-.681V50.846a.681.681,0,1,1,1.362,0v6.809A.681.681,0,0,1,401.971,58.336Zm0-13.618a.681.681,0,0,1-.681-.681V37.228a.681.681,0,1,1,1.362,0v6.809A.681.681,0,0,1,401.971,44.718Zm0-13.618a.681.681,0,0,1-.681-.681V23.611a.681.681,0,0,1,1.362,0V30.42A.681.681,0,0,1,401.971,31.1Z" transform="translate(-284.887 -22.93)" fill="#263238"/>
      <path id="Path_1580" data-name="Path 1580" d="M396.061,247.8h-6.169a.681.681,0,0,1-.681-.681.7.7,0,0,1,.681-.681H396.7a.681.681,0,0,1,0,1.362Zm-12.978,0h-6.809a.681.681,0,0,1-.681-.681.694.694,0,0,1,.681-.681h6.809a.681.681,0,1,1-.041,1.362Zm-13.618,0h-6.809a.681.681,0,0,1-.681-.681.694.694,0,0,1,.681-.681h6.809a.681.681,0,1,1-.041,1.362Zm-13.618,0h-6.809a.681.681,0,0,1-.681-.681.694.694,0,0,1,.681-.681h6.809a.681.681,0,1,1-.041,1.362Zm-13.618,0h-6.809a.681.681,0,0,1-.681-.681.694.694,0,0,1,.681-.681h6.809a.681.681,0,1,1-.041,1.362Zm-13.618,0h-3.622a.681.681,0,0,1-.681-.681.7.7,0,0,1,.681-.681h3.622a.681.681,0,1,1-.041,1.362Zm74.9-.8a.685.685,0,0,1-.15-1.362,32.45,32.45,0,0,0,6.319-2.1.667.667,0,0,1,.9.34.681.681,0,0,1-.34.9,34.218,34.218,0,0,1-6.577,2.192Zm12.337-5.542a.681.681,0,0,1-.409-1.226,34.291,34.291,0,0,0,5-4.412.681.681,0,0,1,.994.912,34.749,34.749,0,0,1-5.188,4.6.708.708,0,0,1-.49.123Zm9.178-9.927a.653.653,0,0,1-.354-.1.7.7,0,0,1-.232-.94,33.287,33.287,0,0,0,2.873-6.005.667.667,0,0,1,.872-.409.681.681,0,0,1,.409.872,34.61,34.61,0,0,1-2.982,6.25.681.681,0,0,1-.681.327Zm4.562-12.732h-.109a.7.7,0,0,1-.572-.776,33.906,33.906,0,0,0,.327-4.7v-1.988a.681.681,0,1,1,1.362,0v1.988a34.421,34.421,0,0,1-.34,4.889.681.681,0,0,1-.763.586Zm.327-13.618a.7.7,0,0,1-.681-.681v-6.809a.681.681,0,1,1,1.362,0v6.809a.681.681,0,0,1-.776.708Zm0-13.618a.7.7,0,0,1-.681-.681v-6.809a.681.681,0,1,1,1.362,0v6.809a.681.681,0,0,1-.776.708Zm0-13.618a.7.7,0,0,1-.681-.681v-6.809a.681.681,0,1,1,1.362,0v6.809a.681.681,0,0,1-.776.708Zm0-13.618a.694.694,0,0,1-.681-.681v-6.809a.681.681,0,1,1,1.362,0v6.809a.681.681,0,0,1-.776.708Z" transform="translate(-312.735 25.263)" fill="#263238"/>
      <path id="Path_1581" data-name="Path 1581" d="M330.517,216.72,315.81,225.2l14.707,8.5Z" transform="translate(-315.81 47.174)" fill="#263238"/>
    </g>
    <g id="freepik--Envelope--inject-49" transform="translate(472.18 89.336)">
      <rect id="Rectangle_113" data-name="Rectangle 113" width="123.375" height="88.323" transform="matrix(0.979, 0.202, -0.202, 0.979, 24.859, 8.847)" fill="#263238"/>
      <rect id="Rectangle_114" data-name="Rectangle 114" width="123.375" height="88.323" transform="matrix(0.979, 0.202, -0.202, 0.979, 18.603, 0.794)" fill="#fff"/>
      <path id="Path_1582" data-name="Path 1582" d="M472.317,182.907,350.14,157.77l.136-.667L368.224,69.95,490.4,95.074l-.136.667Zm-120.57-26.2L471.254,181.3l17.594-85.164L369.273,71.543Z" transform="translate(-350.14 -69.95)" fill="#263238"/>
      <path id="Path_1583" data-name="Path 1583" d="M415.524,127.094a.708.708,0,0,1-.5-.218l-51.515-55.7a.681.681,0,1,1,.994-.912L415.688,125.6,484.565,94.97a.681.681,0,0,1,.9.34.667.667,0,0,1-.34.9L415.8,127.039a.613.613,0,0,1-.272.054Z" transform="translate(-345.394 -69.941)" fill="#263238"/>
    </g>
    <g id="freepik--Character--inject-49" transform="translate(234.183 345.13)">
      <path id="Path_1584" data-name="Path 1584" d="M464.511,450.026S440.9,418.488,411.43,396.7s-54.743-30.776-61.687-28.692-13.032,8.783-13.032,8.783l-82.345,82.686S227.2,480.924,224.2,482.8s-17.022,10.622-25.615,13.318-22.66,2.274-22.728,4.889,1.825,4.63,6.019,6.4a78.04,78.04,0,0,0,24.4,5.311,82.423,82.423,0,0,1,18.915,2.533c2.928.735,11.33,4.589,13.386,1.362s4.9-21.788,5.61-23.735,26.813-20.808,45.088-29.754,40.648-23.667,47.089-30.68,15.919-17.853,15.919-17.853,29.291,27.712,39.382,40.785,26.3,29.264,55.682,42.909,40.2,2.519,42.214-8.565S464.511,450.026,464.511,450.026Z" transform="translate(-175.19 -218.026)" fill="#fff"/>
      <path id="Path_1585" data-name="Path 1585" d="M235.7,518.753a28.4,28.4,0,0,1-8.171-1.92c-.94-.313-1.743-.586-2.3-.735a83.063,83.063,0,0,0-18.765-2.506,77.852,77.852,0,0,1-24.648-5.365c-4.48-1.879-6.536-4.085-6.441-7.054,0-1.947,3.391-2.437,10.336-3.255a74.905,74.905,0,0,0,12.869-2.26c5.447-1.716,14.53-6.414,25.451-13.236,2.941-1.838,29.836-23.082,30.108-23.286l82.277-82.672c.232-.259,6.278-6.809,13.318-8.96S382.235,374.311,412,396.29c28.815,21.352,52.332,52.264,53.2,53.422,1.443,1.525,27.153,29.06,25.165,40.267a17.825,17.825,0,0,1-9.178,13.154c-7.857,4.085-19.269,2.724-33.949-4.085C423.482,488,405.18,473.91,391.3,455.935c-9.205-11.929-34.847-36.468-38.8-40.226-1.988,2.274-9.914,11.289-15.469,17.335-6.686,7.3-29.223,21.992-47.28,30.844-18.4,9-43.685,27.385-44.747,29.4-.2.558-.694,3.078-1.253,5.992-1.253,6.577-2.969,15.578-4.426,17.853a4.085,4.085,0,0,1-3.636,1.621Zm116.73-150.174a8.077,8.077,0,0,0-2.315.286c-6.673,2-12.651,8.525-12.719,8.579l-82.372,82.7c-1.171.926-27.235,21.557-30.285,23.422-11.017,6.89-20.168,11.643-25.764,13.4a76.355,76.355,0,0,1-13.114,2.3c-3.418.409-9.11,1.089-9.137,1.947-.068,2.3,1.716,4.085,5.61,5.76a76.6,76.6,0,0,0,24.158,5.256,83.652,83.652,0,0,1,19.065,2.547c.626.163,1.457.436,2.41.763,3.323,1.13,8.879,3.023,10.24.912s3.078-11.275,4.235-17.376a51.692,51.692,0,0,1,1.362-6.223c.926-2.506,27.766-21.488,45.428-30.136s40.4-23.477,46.885-30.531,15.81-17.7,15.905-17.853a.667.667,0,0,1,.477-.232.626.626,0,0,1,.5.177c.3.286,29.455,27.916,39.491,40.853,13.74,17.8,31.879,31.77,55.451,42.7,14.053,6.536,25.383,7.953,32.682,4.085a16.763,16.763,0,0,0,8.47-12.188c1.879-10.622-24.512-38.837-24.838-39.123h0c-.232-.327-23.9-31.661-52.945-53.108C384.577,377.661,361.427,368.578,352.426,368.578Z" transform="translate(-175.368 -218.215)" fill="#263238"/>
      <path id="Path_1586" data-name="Path 1586" d="M390.318,396.7c-29.482-21.788-54.742-30.776-61.687-28.692s-13.032,8.783-13.032,8.783L234.22,458.5c1.77,4.943,5.787,11.316,14.979,15.5a209.727,209.727,0,0,1,19-10.894c18.275-8.96,40.648-23.681,47.089-30.694S331.2,414.553,331.2,414.553s29.291,27.712,39.382,40.784,37.435,49.663,68.769,57.9c57.67,15.184,55.709-14.217,57.67-25.3s-53.6-37.952-53.6-37.952S419.786,418.488,390.318,396.7Z" transform="translate(-154.078 -218.026)" fill="#263238"/>
      <path id="Path_1587" data-name="Path 1587" d="M467.167,518.4a111.666,111.666,0,0,1-27.848-4.262c-30.558-8.034-56.88-42.214-68.088-56.826l-1.008-1.362c-9.205-11.929-34.847-36.468-38.8-40.226-1.988,2.274-9.914,11.289-15.469,17.335-6.686,7.3-29.223,21.992-47.28,30.844a209.208,209.208,0,0,0-18.942,10.812.667.667,0,0,1-.64,0c-9.532-4.33-13.618-11.03-15.306-15.878a.681.681,0,0,1,.163-.708l81.378-81.705c.232-.259,6.278-6.809,13.318-8.96s32.505,6.809,62.273,28.788h0c28.243,20.93,51.406,51.066,53.108,53.326,6.387,3.091,55.832,27.453,53.83,38.619-.177.967-.313,2.07-.463,3.255-.831,6.482-2.083,16.246-10.649,22.033C481.929,516.738,475.433,518.4,467.167,518.4ZM331.346,414.116a.722.722,0,0,1,.463.177c.3.286,29.455,27.916,39.491,40.853l1.021,1.362c11.153,14.489,37.271,48.424,67.38,56.349,21.788,5.747,37.421,5.624,46.3-.368,8.048-5.447,9.205-14.475,10.05-21.066.163-1.226.3-2.342.477-3.323,1.539-8.674-37.9-29.822-53.231-37.23a.886.886,0,0,1-.245-.2c-.232-.327-23.9-31.661-52.945-53.108h0c-29.414-21.788-54.375-30.6-61.088-28.6s-12.651,8.525-12.719,8.579l-81.12,81.338a26.268,26.268,0,0,0,14.108,14.543,208.793,208.793,0,0,1,18.751-10.69c17.621-8.634,40.4-23.477,46.885-30.531s15.81-17.7,15.905-17.853a.667.667,0,0,1,.477-.232Z" transform="translate(-154.247 -218.229)" fill="#263238"/>
      <path id="Path_1588" data-name="Path 1588" d="M175.861,470.433c-.082,2.615,1.825,4.63,6.019,6.4a78.04,78.04,0,0,0,24.4,5.311,82.422,82.422,0,0,1,18.915,2.533c2.928.735,11.33,4.589,13.386,1.362,1.77-2.724,4.085-16.872,5.2-22.006-8.974.286-19.173-3.622-19.173-3.622s.722-2.274-.409-8.171c-3.009,1.879-17.022,10.622-25.615,13.318S175.929,467.818,175.861,470.433Z" transform="translate(-175.19 -187.448)" fill="#fff"/>
      <path id="Path_1589" data-name="Path 1589" d="M235.7,488.162a28.4,28.4,0,0,1-8.171-1.92c-.94-.313-1.743-.586-2.3-.735A83.063,83.063,0,0,0,206.46,483a77.852,77.852,0,0,1-24.648-5.365c-4.48-1.879-6.536-4.085-6.441-7.054h0c0-1.947,3.391-2.437,10.336-3.255a74.905,74.905,0,0,0,12.869-2.26c5.447-1.716,14.53-6.414,25.451-13.236a.708.708,0,0,1,.64,0,.681.681,0,0,1,.395.5,24.267,24.267,0,0,1,.517,7.885c2.206.776,10.812,3.636,18.37,3.377a.681.681,0,0,1,.545.232.654.654,0,0,1,.136.586c-.232,1.117-.518,2.642-.858,4.385-1.253,6.577-2.969,15.578-4.426,17.853a4.085,4.085,0,0,1-3.649,1.512Zm-58.978-17.539c-.068,2.3,1.716,4.085,5.61,5.76a76.694,76.694,0,0,0,24.158,5.256,83.652,83.652,0,0,1,19.065,2.547c.626.163,1.457.436,2.41.763,3.323,1.13,8.879,3.023,10.24.912s3.078-11.275,4.235-17.362c.259-1.362.49-2.587.694-3.581a59.728,59.728,0,0,1-18.574-3.677.681.681,0,0,1-.409-.844s.572-1.988-.245-6.89c-10.635,6.6-19.459,11.153-24.92,12.869a76.349,76.349,0,0,1-13.114,2.3c-3.418.409-9.11,1.089-9.137,1.947Z" transform="translate(-175.368 -187.624)" fill="#263238"/>
      <path id="Path_1590" data-name="Path 1590" d="M500.7,368.591c-7.8-6.972-25.342-23.667-37.6-44.557s-8.906-27.562-18.1-44-22.551-24.512-40.662-20.889c-14.693,2.941-22.237,11.766-24.512,14.979-.531.722-1.062,1.362-1.634,2.1-2.642,3.091-11,14.557-17.253,41.411-7.531,32.3-7.245,48.165,4.167,55.682s19.5,4.181,22.837,7.8,4.453,8.075,1.675,8.075a5.583,5.583,0,0,1-4.181-1.675s6.4,9.75,12.528,6.959,13.086-12.8,8.634-26.173-16.423-27-18.384-29.509-5.842-31.47-5.842-31.47.286-9.75,11.139-6.4,25.615,9.464,30.354,19.214,22.278,31.742,37.584,38.415,21.448,12.814,27.017,29.25,5.57,21.706,5.57,21.706,11.411-5.284,13.618-17.253S508.486,375.55,500.7,368.591Zm-134.5.545c-5.284-5.842-1.947-16.423-1.947-16.423-1.675,14.979,15.592,23.395,15.592,23.395S371.493,375,366.2,369.136Z" transform="translate(-110.088 -257.61)" fill="#263238"/>
      <path id="Path_1591" data-name="Path 1591" d="M494.2,410.374a.654.654,0,0,1-.681-.667s-.1-5.447-5.542-21.5-11.1-22.06-26.636-28.842-33.281-29.114-37.925-38.755-18.792-15.429-29.959-18.86c-3.268-1.008-5.828-.872-7.6.395a7.572,7.572,0,0,0-2.655,5.379c1.5,11.017,4.371,29.319,5.706,31.034l.98,1.226c3.69,4.507,13.509,16.491,17.512,28.488,4.576,13.74-2.519,24.062-9,27.017s-13.114-6.809-13.386-7.217a.681.681,0,0,1,1.089-.8,4.943,4.943,0,0,0,3.663,1.43c.531,0,.708-.218.79-.409.477-1.089-.6-3.963-2.969-6.523-1.239-1.362-3.323-1.62-6.21-1.988a35.406,35.406,0,0,1-16.491-5.706c-11.262-7.422-12.433-22.183-4.467-56.417,6.319-27.153,14.979-38.783,17.4-41.7.5-.586,1.008-1.239,1.593-2.043,2.587-3.609,10.213-12.256,24.975-15.252,17.607-3.513,31.538,3.622,41.384,21.23a79.388,79.388,0,0,1,7.5,18.888,95.228,95.228,0,0,0,10.554,25.1c11.779,19.991,28.6,36.332,37.5,44.38,7.966,7.122,9.437,12.12,7.176,24.307s-13.549,17.539-14.026,17.7A.71.71,0,0,1,494.2,410.374Zm.681-.681ZM389.551,299.718a14.718,14.718,0,0,1,4.33.735c11.4,3.513,26,9.75,30.762,19.568,4.562,9.41,21.788,31.32,37.244,38.129,15.973,6.959,21.856,13.332,27.385,29.645,4.235,12.487,5.27,18.574,5.529,20.835,2.724-1.512,10.594-6.809,12.378-16.341,2.179-11.738.858-16.259-6.809-23.041-9.015-8.048-25.873-24.512-37.721-44.72a96.237,96.237,0,0,1-10.731-25.41,77.617,77.617,0,0,0-7.381-18.6c-9.532-17.022-22.959-23.94-39.927-20.535-14.271,2.846-21.625,11.221-24.13,14.693-.6.844-1.13,1.525-1.661,2.138-2.438,2.86-10.894,14.258-17.117,41.125-7.8,33.554-6.809,47.934,3.895,54.96a34.193,34.193,0,0,0,15.919,5.447c3.05.395,5.447.708,7.04,2.41,2.628,2.86,3.976,6.21,3.2,7.993a2.056,2.056,0,0,1-2.029,1.226,7.122,7.122,0,0,1-1.593-.177c2.26,2.519,6.073,5.787,9.655,4.167,6.033-2.724,12.583-12.419,8.279-25.342-3.922-11.766-13.618-23.613-17.267-28.066-.449-.545-.79-.967-1.008-1.253-2-2.574-5.583-28.8-5.978-31.783a8.783,8.783,0,0,1,3.2-6.564,7.544,7.544,0,0,1,4.535-1.239Zm-9.532,77.252h-.1c-.34,0-8.661-1.212-14.053-7.176h0c-5.447-6.06-2.233-16.641-2.1-17.09a.681.681,0,0,1,.79-.463.708.708,0,0,1,.545.749c-1.607,14.367,14.979,22.619,15.211,22.7a.673.673,0,0,1-.286,1.28Zm-13.141-8.1a21.679,21.679,0,0,0,8.879,5.61c-4.085-2.832-9.968-8.089-11.657-15.442-.15,3.227.313,7.108,2.724,9.832Z" transform="translate(-110.28 -257.791)" fill="#263238"/>
      <path id="Path_1592" data-name="Path 1592" d="M425.868,431.113s-36.972-6.55-46.136-3.268-33.05,42.541-37.312,47.117-8.838,6.55-12.76,6.55-18-2.615-26.187-.98-18.329,6.877-17.335,11.779,5.556,7.2,20.617,9.532,31.089-3.268,35.338-5.57,9.165-5.556,10.472-6.21,13.086-3.282,19.637-7.53a113.477,113.477,0,0,0,13.74-11.126s27.821,12.76,38.293,18.329,26.84,9.165,36,9.165,29.128-2.628,34.044-4.916,14.067-11.126,14.067-21.257,1.089-24.307-2.247-24.92-6.264.708-9.532.381-21.284-10.472-25.873-12.446S425.868,431.113,425.868,431.113Z" transform="translate(-135.321 -196.607)" fill="#263238"/>
      <path id="Path_1593" data-name="Path 1593" d="M314.437,503.262a49.246,49.246,0,0,1-7.612-.558c-15.156-2.3-20.1-4.644-21.175-10.023s9.859-10.976,17.866-12.583c5.9-1.185,14.83-.191,20.74.463,2.492.286,4.467.5,5.583.5,4.085,0,8.47-2.247,12.256-6.332a127.5,127.5,0,0,0,7.68-10.894c9.219-13.618,23.15-34.044,29.891-36.454,9.165-3.282,44.475,2.887,46.449,3.227,2.124.136,40.417,2.724,45.033,4.63,1.648.722,4.957,2.438,8.8,4.439,6.278,3.268,14.884,7.748,16.859,7.953a17.7,17.7,0,0,0,4.221-.245,16.345,16.345,0,0,1,5.365-.122c3.037.545,3.118,7.667,2.887,19.31,0,2.152-.082,4.29-.082,6.278,0,10.567-9.532,19.609-14.475,21.883s-24.975,4.984-34.316,4.984c-9.1,0-25.574-3.541-36.318-9.246-9.641-5.12-34.33-16.5-37.843-18.125a111.081,111.081,0,0,1-13.509,10.894c-4.957,3.227-12.814,5.447-17.036,6.727-1.28.381-2.383.694-2.655.844-.5.245-1.607.926-3.009,1.8-2.07,1.28-4.889,3.023-7.449,4.4C338.431,499.381,326.72,503.262,314.437,503.262Zm-4.167-22.346a33.8,33.8,0,0,0-6.482.517c-8.456,1.689-17.635,6.809-16.8,10.976.926,4.671,5.61,6.809,20.045,8.96,14.707,2.233,30.748-3.241,34.915-5.447,2.533-1.362,5.338-3.091,7.381-4.358,1.484-.926,2.56-1.593,3.118-1.866a25.866,25.866,0,0,1,2.887-.926c4.153-1.2,11.888-3.445,16.681-6.564a114.447,114.447,0,0,0,13.618-11.044.694.694,0,0,1,.749-.136c.286.136,27.957,12.841,38.333,18.356s26.745,9.083,35.678,9.083c9.233,0,28.937-2.6,33.744-4.848s13.686-10.69,13.686-20.658c0-1.988,0-4.085.082-6.3.136-7,.34-17.567-1.77-17.948a15.075,15.075,0,0,0-4.943.136,18.45,18.45,0,0,1-4.535.245c-2.07-.2-8.8-3.636-17.362-8.1-3.8-1.975-7.081-3.69-8.7-4.385-3.541-1.512-30.721-3.622-44.611-4.521h-.068c-.368,0-36.9-6.468-45.8-3.3-6.319,2.247-20.658,23.341-29.223,35.937-3.663,5.447-6.564,9.641-7.816,11-4.085,4.371-8.756,6.809-13.263,6.809-1.185,0-3.2-.232-5.733-.5a129.449,129.449,0,0,0-13.808-1.117Z" transform="translate(-135.499 -196.787)" fill="#263238"/>
      <path id="Path_1594" data-name="Path 1594" d="M346.855,440.532a.735.735,0,0,1-.463-.163.7.7,0,0,1,0-.967,139.508,139.508,0,0,1,11.221-11.738c4.181-3.364,31.8-.286,34.943.082a.681.681,0,0,1,.6.749.694.694,0,0,1-.763.6c-12.079-1.362-31.1-2.642-33.935-.368A128.822,128.822,0,0,0,347.413,440.3a.654.654,0,0,1-.558.231Z" transform="translate(-113.57 -196.902)" fill="#fff"/>
      <path id="Path_1595" data-name="Path 1595" d="M342.6,443.006a.681.681,0,0,1-.517-1.117s1.362-1.648,3.432-3.976a.685.685,0,1,1,1.035.9c-2.029,2.315-3.432,3.963-3.432,3.963A.708.708,0,0,1,342.6,443.006Z" transform="translate(-115.115 -192.717)" fill="#fff"/>
      <path id="Path_1596" data-name="Path 1596" d="M341.425,463c-3.963,3.854-8.171,5.556-11.766,5.556-3.935,0-18-2.615-26.187-.98s-18.329,6.877-17.335,11.779,5.556,7.2,20.617,9.532,31.089-3.268,35.338-5.57,8.906-5.447,10.363-6.155A20.971,20.971,0,0,1,341.425,463Z" transform="translate(-135.321 -183.556)" fill="#fff"/>
      <path id="Path_1597" data-name="Path 1597" d="M314.437,490.222a49.246,49.246,0,0,1-7.612-.558c-15.156-2.3-20.1-4.644-21.175-10.023s9.859-10.976,17.866-12.583c5.9-1.185,14.83-.191,20.74.463,2.492.286,4.467.5,5.583.5,3.731,0,7.735-1.906,11.289-5.365a.708.708,0,0,1,.667-.163.681.681,0,0,1,.477.477c.94,3.677,3.581,10.349,10.649,13.686a.681.681,0,0,1,0,1.226c-.545.286-1.593.926-2.914,1.743-2.056,1.28-4.875,3.023-7.435,4.4C338.431,486.341,326.72,490.222,314.437,490.222Zm-4.167-22.346a33.8,33.8,0,0,0-6.482.517c-8.456,1.689-17.635,6.809-16.8,10.976.926,4.671,5.61,6.809,20.045,8.96,14.707,2.233,30.748-3.241,34.915-5.447,2.533-1.362,5.324-3.091,7.381-4.358.722-.449,1.362-.844,1.879-1.157a21.706,21.706,0,0,1-9.954-12.909,17.567,17.567,0,0,1-11.412,4.984c-1.185,0-3.2-.232-5.733-.5A129.422,129.422,0,0,0,310.27,467.876Z" transform="translate(-135.499 -183.747)" fill="#263238"/>
      <path id="Path_1598" data-name="Path 1598" d="M330.64,474.33c-1.58-2.574.177-5.447,1.825-7.2a12.783,12.783,0,0,1-2.805.327c-3.936,0-18-2.615-26.187-.98s-18.329,6.877-17.335,11.779,5.556,7.2,20.617,9.532,31.089-3.268,35.338-5.57c.654-.34,1.362-.722,1.988-1.1C339.941,480.5,332.928,478.034,330.64,474.33Z" transform="translate(-135.321 -182.494)" fill="#fff"/>
      <path id="Path_1599" data-name="Path 1599" d="M314.437,489.15a49.246,49.246,0,0,1-7.612-.558c-15.156-2.3-20.1-4.644-21.175-10.023s9.859-10.976,17.866-12.583c5.9-1.185,14.83-.191,20.74.463,2.492.286,4.467.5,5.583.5a12.068,12.068,0,0,0,2.655-.313.681.681,0,0,1,.735.327.654.654,0,0,1-.082.79c-1.539,1.716-3.091,4.208-1.743,6.387h0c2.124,3.472,8.988,5.883,12.95,6.427a.681.681,0,0,1,.572.545.7.7,0,0,1-.327.722c-.681.395-1.362.763-2,1.117C338.431,485.269,326.72,489.15,314.437,489.15ZM310.27,466.8a33.8,33.8,0,0,0-6.482.517c-8.456,1.689-17.635,6.809-16.8,10.976.926,4.671,5.61,6.809,20.045,8.96,14.707,2.233,30.748-3.241,34.915-5.447l.34-.177c-4.3-.967-9.982-3.35-12.052-6.713-1.185-1.934-.912-4.194.776-6.6a11.442,11.442,0,0,1-1.171,0c-1.185,0-3.2-.231-5.733-.5A129.449,129.449,0,0,0,310.27,466.8Z" transform="translate(-135.499 -182.675)" fill="#263238"/>
      <path id="Path_1600" data-name="Path 1600" d="M400.788,331.1s-25.628.272-28.406,10.022-.286,57.643-.558,73.535-.272,26.173,1.675,30.081,13.359,11.139,14.2,11.411-.286,8.906-.286,8.906,19.773,2.506,30.912,2.792,21.162,4.453,31.457,12.528,16.995,13.359,16.995,13.359l6.4-6.959s2.506,23.667,5.3,34.534,12.256,11.411,14.979,11.411,11.97-.272,11.97-.272-8.906-16.436-12.814-27.576-6.4-20.6-6.4-20.6,1.947-3.064,1.947-9.737-1.362-10.581-1.1-17.267,12.256-35.923,7.231-68.5-3.336-41.779-15.592-48.179-38.987-10.309-46.5-10.894S400.788,331.1,400.788,331.1Z" transform="translate(-104.577 -231.817)" fill="#ff725e"/>
      <path id="Path_1601" data-name="Path 1601" d="M493.711,533.546c-3.8,0-12.937-1.157-15.7-11.929-2.356-9.205-4.535-27.753-5.147-33.132l-5.379,5.856a.681.681,0,0,1-.926.082s-6.686-5.3-16.981-13.372-20.317-12.106-31.062-12.378c-11.057-.272-30.789-2.724-30.98-2.792a.721.721,0,0,1-.449-.259.627.627,0,0,1-.136-.5,42.329,42.329,0,0,0,.5-8.279c-1.852-.967-12.365-7.667-14.366-11.657s-2.015-14.693-1.743-30.394c.082-5.011-.1-13.086-.313-22.442-.463-19.814-1.035-44.475.9-51.243,2.873-10.05,27.644-10.5,29.019-10.513s24.117-1.934,31.552-1.362c6.632.49,34.044,4.3,46.763,10.894,10.1,5.27,11.044,12.46,13.618,31.674.64,4.889,1.362,10.431,2.383,16.995,3.786,24.661-2.152,47.661-5.338,59.917a57.09,57.09,0,0,0-1.893,8.661,51.2,51.2,0,0,0,.518,9.11,66.112,66.112,0,0,1,.585,8.17,21.516,21.516,0,0,1-1.893,9.832c.436,1.62,2.832,10.336,6.319,20.29,3.827,10.962,12.664,27.3,12.76,27.467a.681.681,0,0,1,0,.667.667.667,0,0,1-.558.34C505.585,533.219,496.434,533.546,493.711,533.546Zm-20.358-47.307a.614.614,0,0,1,.218,0,.681.681,0,0,1,.463.572c0,.232,2.533,23.749,5.27,34.425,2.438,9.532,10.05,10.894,14.38,10.894,2.165,0,8.334-.163,10.894-.245-1.975-3.7-9-17.185-12.338-26.69-3.854-11.03-6.387-20.562-6.414-20.658a.668.668,0,0,1,.082-.531s1.838-3.023,1.838-9.383a63.862,63.862,0,0,0-.586-7.966,54.11,54.11,0,0,1-.518-9.328,55.83,55.83,0,0,1,1.934-8.947c3.159-12.256,9.056-35.038,5.311-59.427-1.008-6.564-1.743-12.12-2.4-17.022-2.519-19.228-3.377-25.7-12.841-30.653-12.487-6.523-39.654-10.295-46.3-10.785-7.381-.545-31.13,1.362-31.32,1.362h0c-.245,0-25.138.381-27.753,9.532-1.879,6.55-1.362,31.1-.844,50.834.218,9.369.395,17.458.313,22.5-.259,14.979-.3,25.955,1.593,29.754s12.76,10.663,13.822,11.085c.49.163,1.362.436.259,8.96,3.568.436,20.345,2.451,30.163,2.724,11.057.272,21.189,4.3,31.865,12.678,8.674,6.809,14.775,11.6,16.491,12.978l5.978-6.509a.708.708,0,0,1,.436-.15Zm-85.79-29.319Zm13.359-125.649Z" transform="translate(-104.75 -231.987)" fill="#263238"/>
      <path id="Path_1602" data-name="Path 1602" d="M388.2,332.785a18.3,18.3,0,0,1-1.5-4.916c-5.842-9.764-11.126-19.841-12.515-24.634-2.111-7.258-.49-21.066.613-28.324-3.772,5.992-9.383,17.349-13.876,36.767-7.531,32.3-7.245,48.165,4.167,55.682s19.5,4.181,22.837,7.8,4.453,8.075,1.675,8.075a5.583,5.583,0,0,1-4.181-1.675s6.4,9.75,12.528,6.959,13.086-12.8,8.633-26.173S390.116,335.29,388.2,332.785ZM366.2,363.124c-5.284-5.842-1.947-16.423-1.947-16.423-1.675,14.979,15.592,23.395,15.592,23.395S371.5,368.994,366.2,363.124Z" transform="translate(-110.095 -251.598)" fill="#263238"/>
      <path id="Path_1603" data-name="Path 1603" d="M395.812,389.832c-5.6,0-10.54-7.408-10.785-7.776a.681.681,0,0,1,1.089-.8,4.943,4.943,0,0,0,3.663,1.43c.531,0,.708-.218.79-.409.477-1.089-.6-3.963-2.969-6.523-1.239-1.362-3.323-1.62-6.21-1.988a35.406,35.406,0,0,1-16.491-5.706c-11.262-7.422-12.433-22.183-4.467-56.418,4.494-19.3,10.077-30.721,13.958-36.9a.68.68,0,0,1,1.253.463c-1.117,7.422-2.723,20.944-.626,28.025,1.253,4.344,6.141,13.944,12.446,24.512a.708.708,0,0,1,.082.2,15.712,15.712,0,0,0,1.362,4.63h0l.98,1.226c3.69,4.507,13.509,16.491,17.512,28.488,4.576,13.74-2.519,24.062-9,27.017A6.223,6.223,0,0,1,395.812,389.832Zm-7.626-5.965c2.26,2.519,6.073,5.787,9.655,4.167,6.033-2.723,12.583-12.419,8.279-25.342-3.922-11.766-13.617-23.613-17.267-28.066-.449-.545-.79-.967-1.008-1.253h0c-.313-.409-.79-1.362-1.607-5.066-5.052-8.443-10.976-19.337-12.528-24.7-1.838-6.346-.912-17.458.109-25.233-3.649,6.55-8.171,17.172-12.065,33.581-7.8,33.554-6.809,47.934,3.895,54.96a34.194,34.194,0,0,0,15.919,5.447c3.05.395,5.447.708,7.04,2.41,2.628,2.86,3.976,6.21,3.2,7.993a2.056,2.056,0,0,1-2.029,1.226,7.12,7.12,0,0,1-1.593-.122Zm-8.17-12.909h-.1c-.34,0-8.661-1.212-14.053-7.176h0c-5.447-6.06-2.233-16.641-2.1-17.09a.681.681,0,0,1,.79-.463.708.708,0,0,1,.545.749c-1.607,14.367,14.979,22.619,15.211,22.7a.673.673,0,0,1-.286,1.28Zm-13.141-8.1a21.788,21.788,0,0,0,8.865,5.6c-4.085-2.832-9.954-8.075-11.643-15.429-.15,3.227.313,7.108,2.724,9.832Z" transform="translate(-110.276 -251.779)" fill="#263238"/>
      <path id="Path_1604" data-name="Path 1604" d="M427.011,427.224h-.1l-7.953-1.144a.681.681,0,0,1,.191-1.348l7.953,1.144a.683.683,0,0,1-.1,1.362Z" transform="translate(-87.455 -197.402)" fill="#263238"/>
      <path id="Path_1605" data-name="Path 1605" d="M426.3,436.617h-.109c-27.14-3.963-41.574-6.359-42.868-7.108-2.437-1.362.763-22.946,2.887-35.664a.69.69,0,1,1,1.362.218c-2.628,15.7-4.644,32.832-3.5,34.316.5.259,5.774,1.552,42.337,6.89a.683.683,0,1,1-.1,1.362Z" transform="translate(-100.456 -208.783)" fill="#263238"/>
      <path id="Path_1606" data-name="Path 1606" d="M383.231,432.93h-.1a.667.667,0,0,1-.49-.817l2.724-11.384a.694.694,0,0,1,.831-.5.667.667,0,0,1,.49.817l-2.724,11.384A.681.681,0,0,1,383.231,432.93Z" transform="translate(-100.392 -199.037)" fill="#263238"/>
      <path id="Path_1607" data-name="Path 1607" d="M462.947,446.976a34.848,34.848,0,0,1-8.62-1.7c-8.171-2.356-24.988-8.1-25.165-8.171a.685.685,0,0,1,.449-1.294c.163.068,16.886,5.8,25.083,8.17,7.449,2.124,8.96,1.607,9.015,1.58a.626.626,0,0,1,.9.177.735.735,0,0,1-.191.981,2.724,2.724,0,0,1-1.471.259Z" transform="translate(-83.722 -193.406)" fill="#263238"/>
      <path id="Path_1608" data-name="Path 1608" d="M421.249,358.038a.612.612,0,0,1-.34-.1l-12.555-7.122a.681.681,0,0,1,.667-1.185l11.575,6.577.313-9.41a.654.654,0,0,1,.695-.654.681.681,0,0,1,.667.708l-.34,10.526a.722.722,0,0,1-.354.572A.681.681,0,0,1,421.249,358.038Z" transform="translate(-91.198 -225.827)" fill="#263238"/>
      <path id="Path_1609" data-name="Path 1609" d="M394.36,350.866a.681.681,0,0,1-.422-1.212l2.383-1.879a.681.681,0,1,1,.831,1.076l-2.369,1.866A.7.7,0,0,1,394.36,350.866Z" transform="translate(-96.391 -225.3)" fill="#263238"/>
      <path id="Path_1610" data-name="Path 1610" d="M384.554,367.426a.681.681,0,0,1-.681-.667l-.163-6.441a.681.681,0,0,1,.654-.708h0a.694.694,0,0,1,.681.667l.163,6.455a.681.681,0,0,1-.667.695Z" transform="translate(-99.999 -220.958)" fill="#263238"/>
      <path id="Path_1611" data-name="Path 1611" d="M383.86,283.88s-14.53,12.678-14.53,16.11,4.753,18.493,6.6,24.58A49.023,49.023,0,0,0,386.5,342c4.221,4.494,12.419,9.777,14.271,9.777a10.893,10.893,0,0,0,4.221-1.362s1.062,21.666,4.753,29.332,5.556,7.394,6.346,5.542,10.567-33.812,10.567-33.812l4.753-22.728-10.036-25.873s-14-12.419-23.517-15.592S383.86,283.88,383.86,283.88Z" transform="translate(-105.201 -248.353)" fill="#fff"/>
      <path id="Path_1612" data-name="Path 1612" d="M415,387.286c-1.008,0-2.724-.776-5.719-7.013-3.3-6.809-4.494-24.117-4.766-28.6a9.627,9.627,0,0,1-3.6.94c-2.315,0-10.731-5.692-14.761-9.982a49.5,49.5,0,0,1-10.731-17.7l-.722-2.356c-2.22-7.2-5.91-19.255-5.91-22.414,0-3.568,12.256-14.475,14.761-16.627a.653.653,0,0,1,.49-.163c.191,0,4.684.3,14.176,3.459s23.15,15.224,23.749,15.728a.654.654,0,0,1,.191.272L432.2,328.7a.612.612,0,0,1,0,.381l-4.753,22.728c-.409,1.362-9.8,32.083-10.608,33.949-.518,1.212-1.28,1.484-1.825,1.5Zm-9.859-37.326a.654.654,0,0,1,.327.082.708.708,0,0,1,.354.572c0,.218,1.089,21.611,4.684,29.06,2.9,5.992,4.249,6.278,4.507,6.25s.49-.422.6-.667c.613-1.443,7.163-22.714,10.54-33.758l4.712-22.469-9.914-25.547c-1.362-1.226-14.353-12.406-23.15-15.347a69.055,69.055,0,0,0-13.549-3.377c-5.542,4.861-14.081,13.168-14.081,15.415,0,2.955,3.8,15.347,5.842,22.006l.735,2.369a47.662,47.662,0,0,0,10.4,17.172c4.4,4.657,12.256,9.532,13.781,9.532a10.267,10.267,0,0,0,3.895-1.239.68.68,0,0,1,.313-.055Z" transform="translate(-105.393 -248.538)" fill="#263238"/>
      <path id="Path_1613" data-name="Path 1613" d="M389.32,323.749a8.169,8.169,0,0,1-2.574-.463c-.354-.109-1.266-.409-1.266-5.665a.694.694,0,0,1,.681-.681.681.681,0,0,1,.681.681,15.826,15.826,0,0,0,.449,4.426c1.362.422,3.609.817,4.317-.98a.681.681,0,0,1,.885-.368.667.667,0,0,1,.381.872,3.527,3.527,0,0,1-3.554,2.179Zm-1.988-1.648Z" transform="translate(-99.359 -236.394)" fill="#263238"/>
      <path id="Path_1614" data-name="Path 1614" d="M389.882,327.142c-.94,0-1.58-.082-1.675-.082a.687.687,0,0,1,.177-1.362c.082,0,7.476.926,9.873-4.085a.679.679,0,1,1,1.226.586C397.413,326.529,392.483,327.142,389.882,327.142Z" transform="translate(-98.586 -234.844)" fill="#263238"/>
      <path id="Path_1615" data-name="Path 1615" d="M395.49,336.279s8.715-6.809,13.481-13.209c0,0-5.284,12.419-6.877,15.592a47.659,47.659,0,0,0-2.369,5.542Z" transform="translate(-95.738 -234.176)" fill="#263238"/>
      <path id="Path_1616" data-name="Path 1616" d="M399.9,345.065a.694.694,0,0,1-.613-.354l-4.221-7.925a.7.7,0,0,1,.177-.858c.1-.068,8.715-6.89,13.359-13.086a.681.681,0,0,1,.885-.177.667.667,0,0,1,.286.844c-.218.517-5.311,12.487-6.891,15.633a49.466,49.466,0,0,0-2.342,5.447.681.681,0,0,1-.586.463Zm-3.364-8.429,3.241,6.1c.409-1.021,1.035-2.492,1.879-4.208.967-1.934,3.364-7.408,5.039-11.316a101.32,101.32,0,0,1-10.159,9.423Z" transform="translate(-95.918 -234.356)" fill="#263238"/>
      <path id="Path_1617" data-name="Path 1617" d="M395.933,310.531A15.238,15.238,0,0,1,392,310a.707.707,0,1,1,.381-1.362c.068,0,6.686,1.906,9.274-2.1a.694.694,0,0,1,.94-.2.667.667,0,0,1,.2.94A7.762,7.762,0,0,1,395.933,310.531Z" transform="translate(-97.188 -240.266)" fill="#263238"/>
      <path id="Path_1618" data-name="Path 1618" d="M389.849,305.546a.681.681,0,0,1-.34-1.266c.34-.191,8.266-4.63,14.026-2.724a.667.667,0,0,1,.436.858.7.7,0,0,1-.858.436c-5.2-1.743-12.855,2.533-12.923,2.587a.778.778,0,0,1-.341.109Z" transform="translate(-98.022 -242.131)" fill="#263238"/>
      <path id="Path_1619" data-name="Path 1619" d="M379.473,312.877a7.054,7.054,0,0,1-3.8-1.089.694.694,0,0,1-.15-.953.681.681,0,0,1,.94-.15,5.883,5.883,0,0,0,7.108-.763.677.677,0,1,1,.858,1.048A7.776,7.776,0,0,1,379.473,312.877Z" transform="translate(-103.006 -238.99)" fill="#263238"/>
      <path id="Path_1620" data-name="Path 1620" d="M374.331,307.417a.667.667,0,0,1-.613-.381.694.694,0,0,1,.3-.912c6.1-3.05,10.281-.34,10.458-.218a.681.681,0,0,1-.749,1.13h0c-.15-.1-3.731-2.369-9.1.313a.8.8,0,0,1-.3.068Z" transform="translate(-103.638 -240.829)" fill="#263238"/>
      <path id="Path_1621" data-name="Path 1621" d="M443.235,362.3s-3.064,10.581-1.947,17.825-.545,30.6-.545,31.742-6.128,3.895-5.856,5.842a51.885,51.885,0,0,0,1.362,5.57l-8.919-3.622-11.97,15.878a130.033,130.033,0,0,0,25.615,18.1c16.15,8.906,27.235,6.128,27.235,6.128s6.4-39.259,7.245-56.812,4.725-40.648-1.362-57.071c-4.78-12.841-25.873-14.489-30.626,7.517" transform="translate(-88.55 -229.327)" fill="#ff725e"/>
      <path id="Path_1622" data-name="Path 1622" d="M463.823,461.048c-4.807,0-12.909-1.089-22.973-6.632a132.388,132.388,0,0,1-25.805-18.207.681.681,0,0,1,0-.9l11.97-15.878a.681.681,0,0,1,.8-.218l7.6,3.091a38.7,38.7,0,0,1-1.008-4.317c-.218-1.539,1.838-3,3.826-4.4a10.437,10.437,0,0,0,2.029-1.648c0-.082,0-.94.109-2.247.368-6.387,1.362-23.354.436-29.291-1.117-7.3,1.838-17.7,1.975-18.111a.681.681,0,0,1,.858-.409.7.7,0,0,1,.463.844c0,.109-3.009,10.526-1.934,17.526.94,6.073,0,23.15-.422,29.577-.082,1.266-.122,2.083-.122,2.274,0,.776-.844,1.362-2.587,2.642-1.185.831-3.377,2.383-3.268,3.1a48.47,48.47,0,0,0,1.362,5.447.667.667,0,0,1-.9.817L427.8,420.7l-11.289,14.979a134.279,134.279,0,0,0,25.029,17.58c13.944,7.694,24.185,6.523,26.364,6.155.722-4.494,6.387-39.995,7.163-56.268.177-3.8.5-7.816.844-12.065,1.2-14.979,2.547-32.015-2.192-44.747a13.985,13.985,0,0,0-14.094-8.96c-7.49.545-13.2,6.659-15.279,16.341a.7.7,0,0,1-1.362-.286c2.22-10.309,8.388-16.818,16.5-17.417a15.32,15.32,0,0,1,15.47,9.8c4.862,13.018,3.486,30.19,2.274,45.333-.34,4.235-.654,8.239-.831,12.024-.831,17.376-7.19,56.486-7.258,56.88a.64.64,0,0,1-.5.545,20.6,20.6,0,0,1-4.821.449Z" transform="translate(-88.725 -229.511)" fill="#263238"/>
      <path id="Path_1623" data-name="Path 1623" d="M446.9,388.921a.681.681,0,0,1-.626-.422.667.667,0,0,1,.368-.885l2.724-1.13a.681.681,0,0,1,.885.368.667.667,0,0,1-.368.885l-2.724,1.13a.586.586,0,0,1-.259.054Z" transform="translate(-77.386 -211.254)" fill="#263238"/>
      <path id="Path_1624" data-name="Path 1624" d="M436.659,394.091a.693.693,0,1,1-.259-1.362l10.594-4.412a.681.681,0,1,1,.531,1.253l-10.608,4.412A.558.558,0,0,1,436.659,394.091Z" transform="translate(-81.142 -210.596)" fill="#263238"/>
      <path id="Path_1625" data-name="Path 1625" d="M432.333,402.617a.681.681,0,0,1-.667-.518.667.667,0,0,1,.5-.817c8.171-2.056,22.156-5.284,23.654-3.949a.912.912,0,0,1,.286.8c-.313,2.233-6.169,3.091-8.674,3.364a.681.681,0,0,1-.749-.6.667.667,0,0,1,.6-.749,19.569,19.569,0,0,0,7.19-1.852c-2.533-.1-12.732,1.988-21.979,4.3Z" transform="translate(-82.658 -207.425)" fill="#263238"/>
      <path id="Path_1626" data-name="Path 1626" d="M454.491,411.5a.7.7,0,0,1-.626-.422c-2.873-6.809-19.609-8.756-19.773-8.77a.685.685,0,1,1,.15-1.362c.722.082,17.7,2.083,20.889,9.6a.708.708,0,0,1-.368.9A.885.885,0,0,1,454.491,411.5Z" transform="translate(-81.994 -206.004)" fill="#263238"/>
      <path id="Path_1627" data-name="Path 1627" d="M450.164,415.751H450a12.255,12.255,0,0,1-3.432-1.525.694.694,0,0,1-.245-.94.667.667,0,0,1,.953-.259,10.677,10.677,0,0,0,3,1.362.684.684,0,1,1-.123,1.362Z" transform="translate(-77.381 -201.672)" fill="#263238"/>
      <path id="Path_1628" data-name="Path 1628" d="M449.085,416.231a.612.612,0,0,1-.368-.109c-6.727-4.48-15.919-12.052-16-12.133a.667.667,0,0,1-.1-.953.681.681,0,0,1,.953-.1c.1.082,9.233,7.612,15.892,12.052a.681.681,0,0,1,.191.94.653.653,0,0,1-.572.3Z" transform="translate(-82.362 -205.338)" fill="#263238"/>
      <path id="Path_1629" data-name="Path 1629" d="M354.97,366.323s-6.278,13.413-3.908,15.619,16.641,15.946,18,16.627,5.256,12.569,7.3,17.144,3.227,15.279,7.122,16.8,12.256-6.441,12.392-10.513,0-5.61-3.731-10.894-12.256-22.237-12.256-22.237L356.618,363.6Z" transform="translate(-112.003 -219.514)" fill="#fff"/>
      <path id="Path_1630" data-name="Path 1630" d="M384.781,433.571a3.814,3.814,0,0,1-1.362-.245c-2.955-1.157-4.358-6.359-5.706-11.384a43.578,43.578,0,0,0-1.8-5.774c-.708-1.607-1.634-4.085-2.615-6.645-1.443-3.827-3.622-9.614-4.4-10.186s-6.182-5.447-14.979-13.713c-1.484-1.362-2.655-2.519-3.2-3.023-2.533-2.356,2.233-13.155,3.758-16.341v-.082l1.689-2.724a.708.708,0,0,1,.518-.313.694.694,0,0,1,.572.218l23.245,25.288a.6.6,0,0,1,.109.15c.082.177,8.511,16.995,12.174,22.156,3.895,5.447,4.085,7.176,3.854,11.289-.123,2.982-3.922,7.394-7.381,9.668a9.165,9.165,0,0,1-4.48,1.661Zm-29.019-66.726c-2.914,6.223-5.284,13.618-4.085,14.789l3.214,3.037c4.412,4.208,13.618,12.964,14.625,13.495s2.315,3.718,5.038,10.894c.967,2.574,1.879,5,2.574,6.564a43.045,43.045,0,0,1,1.879,5.978c1.144,4.262,2.56,9.532,4.889,10.472,1.049.409,2.724-.082,4.684-1.362,3.445-2.247,6.673-6.346,6.809-8.593.163-3.922,0-5.284-3.609-10.431s-11.507-20.794-12.256-22.251l-22.591-24.512Z" transform="translate(-112.196 -219.682)" fill="#263238"/>
      <path id="Path_1631" data-name="Path 1631" d="M345.81,353.38l26.309,42.786,20.208,2.71L372.637,360Z" transform="translate(-113.71 -223.211)" fill="#263238"/>
      <path id="Path_1632" data-name="Path 1632" d="M392.538,399.737h-.1l-20.195-2.724a.708.708,0,0,1-.49-.313l-26.309-42.786a.667.667,0,0,1,.735-1.008l26.827,6.618a.64.64,0,0,1,.436.354l19.691,38.865a.694.694,0,0,1,0,.708.708.708,0,0,1-.6.286Zm-19.786-4.085,18.588,2.506-18.956-37.448-24.906-6.142Z" transform="translate(-113.879 -223.391)" fill="#263238"/>
      <path id="Path_1633" data-name="Path 1633" d="M449.711,410.93s-30.068-21.189-37.87-26.445a109.523,109.523,0,0,1-11.139-8.361s-.831-5.284-2.724-7.517-3.895-2.724-7.517-2.506-6.686.844-8.919,0-6.4-7.789-6.959-4.725-.272,5.284,2.506,7.517,6.686,3.064,7.8,3.609-1.77,1.021-1.77,1.021a30.873,30.873,0,0,1-13.985,1.525,52.468,52.468,0,0,1-13.549-3.649c-1.947-.558-1.675,2.22.558,3.895s3.609,2.506,3.609,2.506-6.959-1.117-6.114,1.117,3.895,4.181,5.842,5.57,3.895,3.895,5.57,4.725,1.947,4.739,4.739,6.414,1.961,1.484,9.069,2.138a126.523,126.523,0,0,0,22.387-.191l36.481,29.237Z" transform="translate(-110.903 -220.599)" fill="#fff"/>
      <path id="Path_1634" data-name="Path 1634" d="M437.9,427.664a.7.7,0,0,1-.422-.15l-36.263-29.06a129.231,129.231,0,0,1-22.237.15l-1.362-.123c-5.2-.463-5.311-.477-7.381-1.743l-.6-.354a9.056,9.056,0,0,1-3.255-4.235A5.011,5.011,0,0,0,365.021,390a14.734,14.734,0,0,1-3.173-2.587,27.611,27.611,0,0,0-2.492-2.206l-.667-.463c-2.056-1.443-4.6-3.227-5.447-5.447a1.362,1.362,0,0,1,.191-1.43c.64-.79,2.356-.926,3.922-.872l-1.362-1.008c-1.675-1.253-2.546-3.227-1.961-4.4a1.539,1.539,0,0,1,1.988-.695,5.275,5.275,0,0,1,.98.354,46.925,46.925,0,0,0,12.46,3.268,30.98,30.98,0,0,0,13.618-1.471h.15l.572-.109-.368-.123a21.609,21.609,0,0,1-6.55-3.186c-3.064-2.465-3.323-5.052-2.724-8.171a1.471,1.471,0,0,1,.953-1.294c1.048-.286,2.124.817,3.949,2.805a12.42,12.42,0,0,0,2.969,2.724,15.715,15.715,0,0,0,6.5.15l2.124-.191c3.922-.3,6.046.422,8.075,2.724,1.838,2.1,2.724,6.523,2.914,7.626a113.9,113.9,0,0,0,10.894,8.171c7.721,5.243,37.584,26.255,37.884,26.459a.749.749,0,0,1,.286.463.667.667,0,0,1-.136.5L438.6,427.473a.626.626,0,0,1-.463.259Zm-36.481-30.6a.64.64,0,0,1,.422.15l35.937,28.8,11.126-14.761c-4.208-2.955-30.176-21.216-37.285-26.037A110.39,110.39,0,0,1,400.4,376.8a.736.736,0,0,1-.2-.395s-.831-5.12-2.628-7.176-3.432-2.533-6.945-2.274l-2.111.191c-2.724.259-5.175.49-7.095-.232a12.147,12.147,0,0,1-3.486-3.05,13.837,13.837,0,0,0-2.519-2.383,1.366,1.366,0,0,0,0,.177c-.517,2.873-.313,4.807,2.261,6.877a20.113,20.113,0,0,0,6.141,2.955,13.534,13.534,0,0,1,1.539.586.94.94,0,0,1,.626.994c0,.286-.136.9-2.506,1.28A31.648,31.648,0,0,1,369.3,375.9a49.143,49.143,0,0,1-12.814-3.35c-.422-.163-.708-.286-.858-.327s-.368-.068-.395,0c-.163.34.15,1.661,1.552,2.724,2.165,1.621,3.541,2.465,3.554,2.465a.667.667,0,0,1,.286.817.654.654,0,0,1-.735.436c-2.506-.395-5.134-.34-5.447.109.708,1.893,3.159,3.622,4.97,4.875l.667.477a25.867,25.867,0,0,1,2.642,2.329,14.136,14.136,0,0,0,2.832,2.356,5.447,5.447,0,0,1,2.056,2.724,8.089,8.089,0,0,0,2.723,3.649l.613.368c1.8,1.1,1.8,1.1,6.809,1.552l1.362.123a127.66,127.66,0,0,0,22.251-.191Z" transform="translate(-111.065 -220.774)" fill="#263238"/>
      <path id="Path_1635" data-name="Path 1635" d="M381.433,377.434H366.386c-1.171,0-6.7-2.6-8.361-3.4a.681.681,0,1,1,.586-1.226,52,52,0,0,0,7.789,3.268h14.979a.7.7,0,0,1,.681.681A.681.681,0,0,1,381.433,377.434Z" transform="translate(-109.447 -216.217)" fill="#263238"/>
      <path id="Path_1636" data-name="Path 1636" d="M376.406,382.186a45.114,45.114,0,0,1-5.256-.2c-1.062-.177-8.361-1.539-9.532-2.356a17.445,17.445,0,0,0-4.453-1.076.681.681,0,0,1-.572-.776.694.694,0,0,1,.776-.572,18.277,18.277,0,0,1,5.011,1.294,57.712,57.712,0,0,0,9.042,2.138c1.879.313,8.62.15,8.688.15a.681.681,0,1,1,0,1.362C379.946,382.145,378.3,382.186,376.406,382.186Z" transform="translate(-109.812 -214.596)" fill="#263238"/>
      <path id="Path_1637" data-name="Path 1637" d="M373.061,386.693a10.712,10.712,0,0,1-1.743-.1c-1.511-.34-8.593-3.8-9.4-4.194a.681.681,0,0,1-.313-.912.7.7,0,0,1,.912-.313,96.561,96.561,0,0,0,9.1,4.085,71.926,71.926,0,0,0,9.26-.34.681.681,0,0,1,.735.626.7.7,0,0,1-.626.735C380.305,386.406,375.784,386.693,373.061,386.693Z" transform="translate(-108.02 -213.179)" fill="#263238"/>
      <path id="Path_1638" data-name="Path 1638" d="M436.588,326.584a287.625,287.625,0,0,1-27.562-34.534s-3.064,43.712,3.609,62.368,31.2,10.894,39.818,6.128,11.7-8.348,16.995-7.517a165.97,165.97,0,0,1-32.859-26.445Z" transform="translate(-91.095 -245.398)" fill="#263238"/>
      <path id="Path_1639" data-name="Path 1639" d="M431.11,367.062A24.2,24.2,0,0,1,422.5,365.7a17.131,17.131,0,0,1-10.322-10.894c-6.645-18.574-3.772-60.857-3.649-62.641a.681.681,0,0,1,1.239-.327,289.525,289.525,0,0,0,27.494,34.425A166.621,166.621,0,0,0,469.947,352.6a.681.681,0,0,1-.449,1.266c-3.5-.558-6.033,1.035-10.227,3.663-1.784,1.13-3.813,2.4-6.332,3.772a49.528,49.528,0,0,1-21.829,5.76Zm-21.339-72.854c-.49,8.756-2.056,44.066,3.69,60.121a15.905,15.905,0,0,0,9.532,10.036c9.342,3.541,22.659-.626,29.332-4.276,2.492-1.362,4.494-2.628,6.25-3.731,3.323-2.1,5.774-3.636,8.565-3.935A170.479,170.479,0,0,1,436.3,327.176a287.764,287.764,0,0,1-26.527-32.914Z" transform="translate(-91.281 -245.581)" fill="#263238"/>
      <path id="Path_1640" data-name="Path 1640" d="M384.517,283.476c-9.723-11.548-4.085,2.22-4.085,2.22s18.615,17.771,37.516,19.065C417.907,304.719,394.267,295.023,384.517,283.476Z" transform="translate(-101.773 -250.169)" fill="#263238"/>
      <path id="Path_1641" data-name="Path 1641" d="M418.073,305.581h0c-18.928-1.239-37.761-19.065-37.952-19.2a.572.572,0,0,1-.15-.245c-1.226-3-2.383-6.809-.98-7.6.94-.558,2.356,0,6.291,4.7,9.532,11.275,32.859,20.944,33.091,21.039a.694.694,0,0,1,.408.79A.681.681,0,0,1,418.073,305.581Zm-36.944-20.1c1.362,1.362,16.232,14.8,32.246,18.084-7.367-3.418-21.938-10.894-29.182-19.473-3.05-3.622-4.194-4.249-4.521-4.344a15.876,15.876,0,0,0,1.457,5.733Z" transform="translate(-101.939 -250.35)" fill="#263238"/>
    </g>
  </g>
</svg>
